<?xml version="1.0" encoding="utf-8"?>
<!-- Generator: Adobe Illustrator 27.0.0, SVG Export Plug-In . SVG Version: 6.00 Build 0)  -->
<svg version="1.1" id="Ñëîé_1" xmlns="http://www.w3.org/2000/svg" xmlns:xlink="http://www.w3.org/1999/xlink" x="0px" y="0px"
	 viewBox="0 0 3000 2000" style="enable-background:new 0 0 3000 2000;" xml:space="preserve">
<style type="text/css">
	.st0{fill:#848484;}
	.st1{fill:#E8C0A6;}
	.st2{fill:#7C7C7C;}
	.st3{fill:#BCBCBC;}
	.st4{fill:#4F4F4F;}
	.st5{fill:#0F0F0F;}
	.st6{fill:#0C0C0C;}
	.st7{fill:#A3A3A3;}
	.st8{fill:#BABABA;}
	.st9{fill:#D1A68F;}
	.st10{fill:#262626;}
	.st11{fill:#AA5635;}
	.st12{fill:#494949;}
	.st13{fill:#3F3F3F;}
	.st14{fill:#353535;}
	.st15{fill:#10325B;}
	.st16{fill:#F4D4BE;}
	.st17{fill:#A0A0A0;}
	.st18{fill:#848383;}
	.st19{fill:#3A3A3A;}
	.st20{fill:#757575;}
	.st21{fill:#6B6B6B;}
	.st22{fill:#B7B7B7;}
	.st23{fill:#CE3932;}
	.st24{fill:#F9F8F3;}
	.st25{fill:#F49F9F;}
	.st26{fill:#7C3021;}
	.st27{fill:#1C7280;}
	.st28{fill:#D1E0F2;}
	.st29{fill:#D3D3D3;}
	.st30{fill:#919191;}
	.st31{fill:#5E5E5E;}
	.st32{fill:#4C4C4C;}
</style>
<g>
	<g id="_x36_">
		<path class="st0" d="M851.97,814.86c0.1,0,0.38,0.01,0.31,0.01l0.01-0.01c-291.43-34.86-402.44-214.4-368.92-498.66
			c8.78-43-48.74-63.53-67.74-23.02c-154.99,330.52,36.63,705.9,414.96,717.28C965.11,1026.36,987.26,826.8,851.97,814.86z"/>
		<path class="st1" d="M551.47,1749.25h681.09c-1.42-70.14-4.03-182.45-11.68-224.96H559.59
			C553.4,1596.89,550.98,1672.61,551.47,1749.25z"/>
		<rect x="846.3" y="712.1" class="st2" width="88.06" height="103.99"/>
		<path class="st3" d="M556.53,1473.88c0.39,18.32,1.39,35.24,3.05,50.41c0,0,411.22,77.75,667.46,0c1.92-15.5,3.8-32.39,5.41-50.41
			c17.22-192.68,5.21-515.81-273.98-675.41c0,0,3.04-24.83-25.06-38.1c0,0-39.93,10.3-88.07-0.29c0,0-26.94,12.25-21.52,38.28
			c-89.41,64.71-190.38,106.42-213.03,211.21C580.01,1151.97,553.82,1346.58,556.53,1473.88z"/>
		<path class="st2" d="M745.77,580.33c10.69,49.38,70.98,36.63,60.77-12.85C795.85,518.1,735.55,530.85,745.77,580.33z"/>
		<path class="st2" d="M1040.4,580.33c-10.69,49.38-70.98,36.63-60.77-12.85C990.32,518.1,1050.61,530.85,1040.4,580.33z"/>
		<path class="st2" d="M769.14,633.68c6.88,165.35,272.06,141.11,245.89-24.94c-3.62-32.93-15.41-54.83-20.94-107.32
			c-12.8-121.5-185.46-127.97-200.98-0.91C787.02,550.63,768.76,587.58,769.14,633.68z"/>
		<path class="st4" d="M859.83,559.25c3.98-7.55-7.97-13.62-11.73-5.96C844.13,560.85,856.08,566.92,859.83,559.25z"/>
		<path class="st4" d="M938.68,559.41c3.98-7.55-7.97-13.62-11.73-5.96C922.97,561,934.92,567.07,938.68,559.41z"/>
		<path class="st4" d="M898.86,610.95c12.04-0.14,30.76-8.26,15.54-18.96c-12.44-6.73-21.56-32.49-21.65-32.75
			c-1.01-3.05-5.82-1.4-4.7,1.64c0.4,1.13,9.87,27.84,23.97,35.48c9.75,5.97-10.57,11.75-18.95,8.8c-1.32-0.42-2.71,0.3-3.13,1.61
			C889.23,611.25,895.74,610.62,898.86,610.95z"/>
		<path class="st4" d="M974.3,493.71c-59.65,27.7-128.09-62.5-164.63-21.14l-4.47-25.27l69.56-32.63l111.01,38.65L974.3,493.71z"/>
		<path class="st5" d="M785.81,538.78c0,0,20.8-39.89,23.86-66.22c3.05-26.33,38.41-30.92,67.45-10.31
			c29.04,20.61,65.28,29.98,103.38,15.93c38.09-14.05,62.74-71.8,23.99-105.87c-38.36-33.73-78.27-7.45-112.78,5.62
			C847.17,394.81,735.27,360.79,785.81,538.78z"/>
		<path class="st5" d="M999.14,536.89c0,0-31.14-35.28-33.02-82.12l33.35-13.12C999.48,441.65,1013.06,487.23,999.14,536.89z"/>
		<path class="st4" d="M758.39,590.18c1.6,0.02,2.82-1.61,2.32-3.14c-8.51-24.26,0.32-36.66,19.48-29.32
			c2.91,1.21,4.73-3.43,1.77-4.53c-20.25-8.28-36.88,4.55-25.9,35.26C756.38,589.51,757.35,590.18,758.39,590.18z"/>
		<path class="st4" d="M781.08,586.78c7.55-0.6-6.84-23.9-25.28-25.15c-1.33-0.07-2.5,0.93-2.59,2.27c-0.09,1.34,0.92,2.5,2.26,2.59
			C774.34,568.44,776.62,586.15,781.08,586.78z"/>
		<path class="st4" d="M1026.25,590.18c1.04,0,2-0.67,2.32-1.72c10.99-30.73-5.69-43.54-25.91-35.26c-2.94,1.11-1.15,5.71,1.77,4.53
			c17.34-7.12,28.66,3.67,19.48,29.32C1023.43,588.57,1024.65,590.2,1026.25,590.18z"/>
		<path class="st4" d="M1003.55,586.78c4.41-0.58,6.84-18.38,25.6-20.29c1.34-0.09,2.35-1.25,2.26-2.59
			c-0.09-1.34-1.27-2.35-2.59-2.27C1010.39,562.89,996.01,586.15,1003.55,586.78z"/>
		<path class="st6" d="M1015.95,610.48c-0.6-3.81-1.36-7.69-2.29-11.65c-1.35-5.85-3.06-11.84-5.14-18c0-0.01,0-0.01,0-0.02
			c-0.54-2.28-1.04-4.62-1.52-7.02c-1.05-5.13-2.03-10.52-3.08-15.93c-0.29-1.55-0.6-3.08-0.9-4.63c-0.01-0.05-0.02-0.11-0.04-0.16
			c-0.89-4.4-1.84-8.79-2.92-13.05c-0.09-0.35-0.18-0.72-0.27-1.07c-0.21-0.74-0.4-1.5-0.61-2.23c-2.02-7.34-4.5-14.26-7.8-20.2
			c0.97,4.41,1.89,9.1,2.74,13.95c0.62,3.47,1.21,7.04,1.77,10.66c3.96,25.42,6.54,53.22,7.76,70.11v0.01
			c4.84,30.13-15.79,36.27-37.5,27.17c-116.39-64.01-178.04,50.19-185.4-26.96c-0.28-8.16,0.21-16.5,1.18-24.89
			c0.19-1.64,0.4-3.29,0.62-4.93c1.85-13.51,4.8-27.16,7.66-40.54c1.49-6.93,2.95-13.79,4.22-20.52c0.79-4.15,1.51-8.26,2.12-12.31
			c-3.56,9.85-6.79,18.67-9.78,27.68c0,0,0,0-0.02,0h-0.01c-0.29,0.9-0.56,1.86-0.89,2.73v0.04c-0.01,0.02-0.01,0.04-0.02,0.06
			c-1.58,4.82-3.03,9.55-4.36,14.22c-0.45,1.57-0.89,3.13-1.3,4.69c-1.35,4.93-2.58,9.82-3.72,14.77c-0.5,2.16-0.99,4.34-1.46,6.53
			c-2.13,9.89-3.98,20.09-5.82,31.17c0,0.06-0.01,0.11-0.02,0.17c-5.62,73.35,30.68,116.16,77.18,132.14
			c27.98,9.64,59.63,9.55,88.07,0.56C986.11,726.69,1027.19,680.88,1015.95,610.48z M831.26,646.46
			c36.6-21.35,91.31-17.25,125.16,7.48c19.96,13.5,17.61,44.11-4.67,53.37c-46.34,19.65-43.97-30.55-58.81-30.91
			c-18.47-0.46-14.51,33.03-38.99,32.29C822.59,707.61,796.88,667.2,831.26,646.46z"/>
		<path class="st7" d="M824.02,798.03c-0.06,0.11-0.14,0.22-0.19,0.33c68,17.63,135.74,0.06,135.59,0.11c0,0,3.04-24.84-25.06-38.11
			c0,0-39.93,10.31-88.06-0.28C846.3,760.08,818.6,771.99,824.02,798.03z"/>
		<path class="st8" d="M959.42,798.46c0,0,54.28,200.82,181.93,390.08c26.44,39.19,60.36,72.41,97.56,100.47
			c53.12,40.05,112.86,69.59,166.96,90.87c91.12,35.88,166.13,48.36,166.13,48.36c25.24-44.16,18.92-78.85,18.92-78.85
			c-94.61-72.53-145.09-129.33-287.03-326.5C1161.96,825.69,959.42,798.46,959.42,798.46z"/>
		<path class="st9" d="M1076.15,983.17c108.05,126.08,161.38,303.68,161.38,303.68l1.38,2.15c53.12,40.05,112.86,69.59,166.96,90.87
			c0,0-152.82-136.08-202.54-227.19C1154.38,1062.97,1078.51,985.57,1076.15,983.17z"/>
		<path class="st10" d="M1167.95,922.18c0,0,345.89,231.78,410.22,79.67c68.48-161.89-29.27-219.26-18.85-323.39L1320.6,545.06
			c0,0-41.27,16.13-102.05,190.49C1178.98,849.1,1167.95,922.18,1167.95,922.18z"/>
		<path class="st11" d="M1450.1,1086.26c92.81,49.62,165.03,138.09,271.79,163.5c206.04,54.52,298.31-131.78,322.35-304.51
			c4.65-30.65,7.75-61.22,9.06-92.13c3.02-24-4.55-45.74-31.75-47.86c-23.37-0.38-33.3,18.19-36.36,38.34
			c-2.98,11.73-6.19,23.45-9.61,35.08c-17.9,59.55-40.38,119.55-74.74,171.24c-24.63,35.84-60.98,77.25-107.87,61.91
			c-32.6-9.33-57.96-28.25-83.13-51.55c-50.94-48.51-98.2-103.79-158.98-142.51C1435.61,842.35,1328.83,1020.24,1450.1,1086.26z"/>
		<path class="st10" d="M1408.57,533.41c113.67-50.51,189.77,130.03,130.68,223.28L1408.57,533.41z"/>
		<path class="st2" d="M1615.48,1542.21h-384.46c-1.98-152.02,15.56-305.71,51.27-453.34c21.31-86.16,33.56-155.05,115.67-201.09
			c-5.85-51.02,2.13-124.6,9.25-154.91c3.74-16.37,15.46-28.75,28.62-32.86c33.68-11.7,73.55,17,63.19,54.96
			c-3.05-1.92-12.83,106.31-6.08,136.36c166.87,53.26,81.81,242.84,93.21,370.04C1587.02,1354.82,1596.04,1450.84,1615.48,1542.21z"
			/>
		<path class="st12" d="M1499.92,750.03c-0.23,1.65-0.53,3.32-0.91,4.93c-2.2-1.46-8.37,58.26-8.42,101.61
			c-40.73,18.52-86.14,10.38-94.45,8.67c2.47-59.51-4.59-149.08,39.68-165.23C1467.62,686.41,1505.52,715.38,1499.92,750.03z"/>
		<path class="st2" d="M1309.87,707.54c6.84,42.43,21.17,90.27,54.68,118.34h0.06c13.54,11.25,30.04,18.41,47.53,21.85
			c99.02,27.69,215.15-87.42,137.77-171.26c-28.12-25.98-34.09-72.01-56.5-97.86c-32.59-47.3-104.12-44.85-142.75-6.27
			C1315.75,607.22,1303.82,655.29,1309.87,707.54z"/>
		<path class="st9" d="M556.53,1473.88c0.39,18.32,1.39,35.24,3.05,50.41c0,0,411.22,77.75,667.46,0c1.92-15.5,3.8-32.39,5.41-50.41
			h-0.01C938.3,1551.92,556.53,1473.88,556.53,1473.88z"/>
		<path class="st12" d="M1471.82,681.37c3.88-7.38-7.79-13.3-11.45-5.82C1456.49,682.93,1468.16,688.86,1471.82,681.37z"/>
		<path class="st13" d="M1510.66,897.89c0,0,0.02,5.73,0.36,15.71c1.81,52.95,12.68,225.42,77.71,294.43c2.87,3.05,5.87,6,8.96,8.87
			c11.33,10.48,24.13,19.74,37.98,27.77c30.77,17.88,66.76,29.75,103.45,35.72c63.78,10.39,129.78,2.93,174.47-21.9
			c68.7-38.16,93.25-140.85,100.18-179.12c1.66-9.18,2.31-14.65,2.31-14.65c-67.82,11.04-100.02-39.94-100.02-39.94
			c-2.27,3.14-4.55,6.13-6.85,8.98c-72.73,90.29-158.81,38.78-216.4-22.55c-59.22-63.06-134.58-96-166.62-107.98
			C1516.4,899.59,1510.66,897.89,1510.66,897.89z"/>
		<path class="st14" d="M1585.35,1024.79l12.34,192.12c36.51,33.75,88.21,54.84,141.44,63.49c-46.2-19.47-88.08-50-95.51-97.43
			C1625.86,1069.63,1585.35,1024.79,1585.35,1024.79z"/>
		<path class="st15" d="M1909.21,1033.77c36.23,59.96,104.55,45.62,104.55,45.62l0.01-0.01c1.66-9.18,2.31-14.65,2.31-14.65
			c-67.82,11.04-100.02-39.94-100.02-39.94C1913.79,1027.93,1911.52,1030.92,1909.21,1033.77z"/>
		<path class="st12" d="M1525.83,672.3c3.88-7.38-7.79-13.3-11.45-5.82C1510.49,673.85,1522.16,679.78,1525.83,672.3z"/>
		<path class="st12" d="M1505.41,728.16c11.76-0.14,30.05-8.07,15.18-18.52c-12.13-6.57-21.06-31.73-21.14-31.98
			c-12.55-9.47,5.31,29.71,18.83,36.26c9.52,5.83-10.31,11.48-18.51,8.6c-1.28-0.41-2.65,0.29-3.06,1.57
			C1496.01,728.45,1502.36,727.84,1505.41,728.16z"/>
		<path class="st13" d="M1213.54,1417.72c15.22,90.33,17.84,179.39,19.95,270.61h497c-33.14-167.4-62.17-258.55-87.96-348.47
			c-4.93-110.31-18.9-223.21-57.17-315.06c-20.04-48.75-46.37-88.01-74.7-126.91c-37.27,24.23-110.14,60.59-135.93,4.84
			C1176.56,920.78,1196.84,1280.49,1213.54,1417.72z"/>
		<path class="st12" d="M1309.87,707.54c6.84,42.43,21.17,90.27,54.68,118.34h0.06c-18.58-23.06-30.16-74.66-30.16-74.66l8.78-22.95
			c147.34-47.56,134.71-165.89,134.71-165.89c-21.98-19.21-51.66-23.09-79.89-16.07C1328.87,564.19,1301.17,638.9,1309.87,707.54z"
			/>
		<path class="st10" d="M1462.28,551.85c0,0,11.86,116.69-120.01,164.59l-47.33-26.12C1248.79,599.77,1332.35,466.78,1462.28,551.85
			z"/>
		<path class="st10" d="M1308.38,515.91c30.58,111.13,159.94,77.61,132.71-34.38C1410.52,370.4,1281.15,403.93,1308.38,515.91z"/>
		<path class="st2" d="M1282.92,728.99c10.44,48.23,69.33,35.78,59.35-12.55C1331.83,668.21,1272.95,680.66,1282.92,728.99z"/>
		<path class="st12" d="M1298.23,738.95c1.6,0.02,2.82-1.61,2.32-3.14c-9.19-25.66,2.18-36.44,19.48-29.31
			c2.9,1.2,4.73-3.43,1.77-4.53c-20.25-8.28-36.88,4.55-25.9,35.26C1296.22,738.28,1297.19,738.95,1298.23,738.95z"/>
		<path class="st12" d="M1320.92,735.56c7.55-0.6-6.84-23.9-25.28-25.15c-1.3-0.08-2.5,0.93-2.59,2.27
			c-0.09,1.34,0.92,2.5,2.26,2.59C1314.18,717.21,1316.46,734.93,1320.92,735.56z"/>
		<path class="st16" d="M1309.49,751.23c-0.1,7.08,11.02,7.08,10.91,0C1320.51,744.15,1309.39,744.15,1309.49,751.23z"/>
		<path class="st11" d="M1628.07,1301.83c1.31-0.01,1.6,0.02,2.27,0.05c0.58,0.03,1.12,0.08,1.65,0.14
			c1.06,0.11,2.08,0.28,3.09,0.47c2.02,0.4,4,1,5.88,1.82c1.88,0.8,3.66,1.84,5.15,3.07c1.54,1.21,2.71,2.61,3.68,4.03
			c2.88,4.22,0.31,9.71-5.74,12.27c-4.26,1.8-9.11,1.67-12.61-0.05l-5.31-2.62c-0.1-0.05,0.12,0.07,0.07,0.06
			c0,0-0.09-0.05-0.23-0.07l-0.21-0.03c-0.03,0-0.04-0.01-0.04-0.01l0.56,0c-7.15,0.17-12.55-3.97-12.06-9.26
			C1614.72,1306.41,1620.92,1302,1628.07,1301.83z"/>
		<path class="st11" d="M1633.6,1319.68c1.05,0.16,1.35,0.23,1.94,0.34l1.47,0.34c0.96,0.23,1.87,0.5,2.79,0.8
			c1.82,0.6,3.62,1.35,5.37,2.3c1.75,0.94,3.44,2.16,4.91,3.61c1.49,1.44,2.66,3.22,3.45,5.07c1.98,4.91-2.01,10.47-8.9,12.43
			c-6.89,1.96-14.08-0.43-16.06-5.33c0.05,0.24,0.28,0.26-0.22-0.03c-0.24-0.13-0.61-0.29-1.06-0.44c-0.23-0.07-0.47-0.15-0.71-0.2
			l-0.33-0.08c-0.02-0.01-0.33-0.06,0.1,0.01c-6.89-0.96-10.84-5.94-8.84-11.14C1619.51,1322.16,1626.71,1318.72,1633.6,1319.68z"/>
		<path class="st11" d="M1640.08,1338.19l10.76,4.61c5.91,2.54,7.42,8.35,3.36,12.98c-4.06,4.64-12.14,6.34-18.05,3.8l-10.76-4.61
			c-5.91-2.53-7.42-8.35-3.36-12.98C1626.09,1337.36,1634.17,1335.66,1640.08,1338.19z"/>
		<path class="st11" d="M1642.76,1355.15l10.76,4.61c5.91,2.53,7.42,8.35,3.36,12.98c-4.06,4.64-12.14,6.34-18.05,3.8l-10.76-4.61
			c-5.91-2.54-7.42-8.35-3.36-12.98C1628.77,1354.32,1636.85,1352.61,1642.76,1355.15z"/>
		<path class="st3" d="M353.32,706.88c12.2,65.63,47.63,122.72,90.02,169.95c0.01,0.01,0.01,0.01,0.02,0.01
			c56.12,62.53,124.48,107.79,167.41,132.73c25.25,14.66,41.71,22.31,41.71,22.31l171.34-233.52
			c-196.11-44.41-270.7-165.87-300.14-227.9c-22.67-47.77-34.89-167.25-39.3-219.69c-1.32-15.67-1.95-25.36-1.95-25.36
			c-57.47,7.88-76.87-10.5-76.87-10.5s-3.75,7.82-9.38,22C374.16,392.31,323.18,544.76,353.32,706.88z"/>
		<path class="st14" d="M1359.21,904.45c32.06,74.92,117.03,31.21,151.81,9.16c2.82-1.79,5.31-3.44,7.42-4.87
			c4.93-3.34,7.75-5.5,7.75-5.5c-9.79-3.65-15.53-5.35-15.53-5.35c-115.41,73.84-135.93,4.84-135.93,4.84
			C1369.4,903.03,1364.23,903.6,1359.21,904.45z"/>
		<path class="st14" d="M1656.56,1689.93l15.1-3.22c-11.53-53.99-26.78-108.57-41.52-161.35c-8.42-30.15-17.13-61.33-25.13-92.29
			c-7.6-29.42-13.77-55.63-18.85-80.13c-2.07-9.9-3.98-19.66-5.69-29.04c-3.62-19.77-6.63-39.18-8.94-57.71
			c-1.68-13.43-3.04-26.79-4.05-39.7c-2.25-28.77-5.24-56.78-8.89-83.24c-4.9-35.48-11.06-68.72-18.3-98.78
			c-2.31-9.6-4.8-19.14-7.4-28.36c-2.88-10.19-5.94-20.08-9.09-29.4c-12.05-35.62-22.92-55.67-28.33-64.45
			c-1.86-3.02-2.97-4.53-3.09-4.69l-12.4,9.2l0,0c0,0,0.85,1.17,2.35,3.59c4.07,6.62,14.85,25.85,26.85,61.3
			c3.07,9.07,6.05,18.7,8.86,28.64c2.55,9.03,4.99,18.37,7.25,27.78c7.12,29.57,13.18,62.3,18.01,97.28
			c3.6,26.17,6.56,53.87,8.79,82.34c1.03,13.15,2.41,26.74,4.12,40.41c2.35,18.81,5.4,38.52,9.07,58.57
			c1.73,9.5,3.67,19.4,5.76,29.41c5.13,24.74,11.35,51.19,19.02,80.85c8.03,31.1,16.76,62.36,25.2,92.58
			C1629.95,1582.07,1645.12,1636.41,1656.56,1689.93z"/>
		<path class="st14" d="M1500.23,1688.69l15.42-0.74c-2.47-51.84-5.37-101.07-8.6-146.3c-5.64-78.97-12.31-145.66-19.82-198.23
			c-2.26-15.81-4.62-30.53-7.04-43.75c-1.47-8.12-2.87-16.2-4.17-24.02c-6.19-37.35-11.42-77.3-15.56-118.74
			c-3.52-35.31-6.27-71.73-8.15-108.25c-3.1-60.17-2.89-100.22-2.85-104.59l0-0.97h-15.44v0.91c-0.04,4.35-0.26,44.83,2.87,105.45
			c1.9,36.77,4.66,73.44,8.21,108.99c4.17,41.77,9.45,82.05,15.69,119.72c1.3,7.9,2.72,16.06,4.21,24.27
			c2.38,13.04,4.71,27.56,6.94,43.17c7.46,52.21,14.08,118.54,19.7,197.14C1494.88,1587.87,1497.77,1636.97,1500.23,1688.69z"/>
		<path class="st14" d="M1363.85,1688.45l15.43-0.25c-0.78-48.22-2.03-97.42-3.71-146.26c-2.17-63.03-5.08-126.48-8.66-188.59
			c-1.06-18.38-1.96-37.17-2.66-55.87c-1.3-34.79-1.91-69.81-1.83-104.09c0.04-15.89,0.24-31.83,0.58-47.37
			c0.81-36.69,2.44-72.44,4.85-106.27c0.34-4.95,0.71-9.89,1.13-15.12c4.92-62.15,10.88-97.03,10.94-97.38l-15.21-2.63
			c-0.25,1.43-6.14,35.84-11.12,98.79c-0.42,5.29-0.79,10.28-1.14,15.27c-2.43,34.06-4.07,70.06-4.88,107
			c-0.35,15.64-0.55,31.68-0.59,47.67c-0.09,34.48,0.53,69.71,1.84,104.71c0.7,18.8,1.6,37.7,2.67,56.18
			c3.57,61.99,6.48,125.32,8.65,188.23C1361.83,1591.21,1363.08,1640.33,1363.85,1688.45z"/>
		<path class="st15" d="M1282.9,1688.97l15.38-1.29c-3.94-47.17-7.31-96.26-10.01-145.89c-2.84-52.37-4.96-106.09-6.3-159.67
			c-0.84-33.7-0.33-67.63,1.51-100.85c0.45-8.2,1.01-16.69,1.71-25.96c3.13-40.54,8.31-80.91,15.4-119.98
			c7.88-43.43,18.13-85.44,30.45-124.88c1.42-4.54,2.81-8.89,4.14-12.94c16.53-50.3,30.75-78.19,30.89-78.47l-13.73-7.06
			c-0.6,1.16-14.87,29.12-31.82,80.71c-1.35,4.12-2.77,8.55-4.21,13.15c-12.51,40.04-22.91,82.68-30.9,126.73
			c-7.18,39.58-12.43,80.48-15.6,121.56c-0.71,9.4-1.28,17.99-1.73,26.29c-1.87,33.62-2.38,67.97-1.53,102.08
			c1.34,53.73,3.47,107.61,6.32,160.12C1275.57,1592.41,1278.95,1641.64,1282.9,1688.97z"/>
		<path class="st10" d="M1397.96,887.77c0,0-5.12,66.36,0,143.63c5.12,77.28-59.81,107.48-62.7,175.05
			c-5.08,118.79-129.92,86.21-144.08-31.54c-8.48-70.49-48.31-108.7-23.23-252.74C1183.91,830.45,1397.96,887.77,1397.96,887.77z"/>
		<path class="st14" d="M1817.29,1142.78c25.44,0,52.18-10.57,78.75-31.35c27.16-21.25,44.5-45.46,45.22-46.48l-12.58-8.94
			c-0.65,0.92-65.98,91.24-135.53,67.3c-44.58-15.35-89.79-59.74-133.5-102.67c-49.96-49.06-101.62-99.79-157.26-114.06l-3.83,14.95
			c51.62,13.23,101.78,62.49,150.28,110.12c44.94,44.13,91.41,89.76,139.29,106.25C1797.59,1141.16,1807.34,1142.78,1817.29,1142.78
			z"/>
		<path class="st15" d="M1789.81,1228.27c25.55,0,51.09-5.44,76.4-16.32c45.24-19.45,76.96-55.38,95.6-82.09
			c20.1-28.8,29.54-52.83,29.93-53.84l-14.39-5.59c-0.36,0.92-36.97,92.83-117.24,127.34c-110.26,47.4-196.52-29.62-228.49-64.94
			l-11.44,10.36c21.72,24,57.53,56.21,104.77,73.35C1746.5,1224.36,1768.16,1228.27,1789.81,1228.27z"/>
		<path class="st17" d="M443.37,876.84c56.12,62.53,124.48,107.79,167.41,132.73c0.01,0,0.02,0,0.02,0s14.32-42.81,29.05-66.37
			C639.85,943.2,552.71,971.84,443.37,876.84z"/>
		<path class="st12" d="M1500.58,745.81c-0.06-0.02-0.12-0.06-0.19-0.1c-1.46-0.73-3.08-1.32-4.8-1.68
			c-8.72-1.88-17.03,2.22-18.52,9.11c-0.74,3.46,0.29,7.04,2.94,10.09c2.47,2.86,6.1,4.93,10.21,5.81c1.44,0.32,2.86,0.46,4.25,0.46
			c0.54,0,1.06-0.02,1.57-0.07c0.01,0.01,0.01,0.01,0.02,0c2.9-0.23,5.57-1.13,7.71-2.55c2.53-1.67,4.35-4.06,4.97-6.95
			C1509.91,754.47,1506.44,748.85,1500.58,745.81z M1504.25,758.98c-0.66,3.07-3.68,5.2-7.57,5.78c0,0,0,0-0.01,0
			c-1.71,0.26-3.57,0.21-5.48-0.21c-3.14-0.67-5.89-2.21-7.71-4.33c-1.67-1.93-2.34-4.09-1.91-6.12c0.78-3.61,4.82-5.95,9.7-5.95
			c1.08,0,2.22,0.12,3.36,0.37c1.96,0.41,3.73,1.17,5.2,2.14c0.05,0.01,0.09,0.05,0.13,0.09c2.73,1.82,4.42,4.4,4.42,6.99
			C1504.38,758.17,1504.33,758.58,1504.25,758.98z"/>
		<path class="st12" d="M1525.02,648.94c0.72,0,1.42-0.33,1.87-0.96c0.74-1.03,0.5-2.47-0.53-3.21c-0.37-0.27-9.35-6.5-26.32-3.26
			c-1.25,0.24-2.07,1.44-1.83,2.69c0.24,1.25,1.44,2.07,2.69,1.83c15.05-2.88,22.7,2.43,22.78,2.48
			C1524.09,648.8,1524.56,648.94,1525.02,648.94z"/>
		<path class="st12" d="M1441.76,664.34c0.66,0,1.31-0.28,1.77-0.83c13.4-16.08,27.58-14.61,27.72-14.59
			c1.26,0.15,2.41-0.75,2.56-2.01c0.15-1.26-0.75-2.41-2.01-2.56c-0.68-0.08-16.81-1.77-31.79,16.21c-0.81,0.98-0.68,2.43,0.3,3.24
			C1440.72,664.16,1441.24,664.34,1441.76,664.34z"/>
		<path class="st4" d="M952.36,533.68c0.72,0,1.42-0.33,1.87-0.96c0.74-1.03,0.51-2.47-0.52-3.21
			c-0.76-0.55-18.93-13.39-46.76-13.39c-1.27,0-2.3,1.03-2.3,2.3c0,1.27,1.03,2.3,2.3,2.3c26.28,0,43.9,12.4,44.07,12.53
			C951.43,533.54,951.9,533.68,952.36,533.68z"/>
		<path class="st4" d="M837.26,528.39c0.41,0,0.83-0.11,1.21-0.34c20.3-12.54,40.75-8.11,40.96-8.07c1.24,0.28,2.47-0.5,2.75-1.74
			c0.28-1.24-0.5-2.47-1.74-2.75c-0.91-0.21-22.5-4.88-44.39,8.64c-1.08,0.67-1.42,2.09-0.75,3.17
			C835.74,528.01,836.49,528.39,837.26,528.39z"/>
		<path class="st4" d="M896.54,650.69c14.97,0,23.8-2.39,24.39-2.56c1.63-0.46,2.58-2.15,2.13-3.78c-0.46-1.63-2.15-2.58-3.78-2.13
			c-0.32,0.09-23.17,6.17-57.95-1.86c-1.65-0.38-3.3,0.65-3.68,2.3c-0.38,1.65,0.65,3.3,2.3,3.68
			C874.37,649.67,886.76,650.69,896.54,650.69z"/>
		<path class="st17" d="M396.19,336.92c34.6,28.06,88.19,13.85,88.19,13.85c-1.32-15.67-1.95-25.36-1.95-25.36
			c-57.47,7.88-76.87-10.5-76.87-10.5S401.82,322.74,396.19,336.92z"/>
		<path class="st18" d="M544.5,222.24c-3.59-2.98-8.95-2.21-11.68,1.54c-8.34,10.68-17.7,20.68-28.25,29.12
			c-2.18-24.46,2.7-49.74,2.59-49.87c11.08-28.32,23.68-56,37.53-83.11c4.65-8.58-8.47-16.49-13.84-8.19
			c-16.67,24.57-32.32,49.96-46.62,76.02c-0.15-0.05-0.29-0.08-0.44-0.13c5.16-31.44,12.06-62.64,21.54-93.07
			c-11.58-48.96-44.14,80.87-47.2,90.85c-0.08,0.01-0.15,0.01-0.23,0.02c-0.15-30.33,3.41-60.69,10.14-90.28
			c-16.48-47.77-38.49,85.26-38.08,96.68c-0.11,0.04-0.23,0.08-0.34,0.12c-3.59-23.85-4.14-48.16-3.44-72.29
			c-21.59-41.42-24.29,73.7-23.13,84.04c-2.06,11.57-7.54,51.37,6.54,106.72c4.37,17.27,57.73,17.52,70.42,5.48
			c11.9-11.29,24.8-29.57,29.16-36.37C518.51,269.96,555.64,234.51,544.5,222.24z"/>
	</g>
	<g id="_x35_">
		<path class="st2" d="M2157.12,580.05c-10.17,46.97-67.52,34.84-57.8-12.22C2109.49,520.86,2166.83,532.98,2157.12,580.05z"/>
		<path class="st19" d="M2143.66,589.41c-1.52,0.02-2.68-1.53-2.21-2.99c8.1-23.07-0.31-34.88-18.53-27.88
			c-2.77,1.14-4.5-3.26-1.69-4.31c19.26-7.87,35.07,4.33,24.64,33.54C2145.57,588.77,2144.65,589.41,2143.66,589.41z"/>
		<path class="st19" d="M2122.07,586.18c-7.01-0.99,6.29-22.47,24.04-23.91c1.28-0.09,2.38,0.88,2.46,2.15
			c0.08,1.28-0.88,2.38-2.15,2.46C2128.49,568.74,2126.32,585.59,2122.07,586.18z"/>
		<path class="st2" d="M1858.44,580.05c10.17,46.97,67.52,34.84,57.8-12.22C1906.08,520.86,1848.73,532.98,1858.44,580.05z"/>
		<path class="st19" d="M1871.91,589.41c-0.99,0-1.91-0.64-2.21-1.64c-10.45-29.22,5.41-41.42,24.64-33.54
			c2.8,1.06,1.09,5.43-1.69,4.31c-16.49-6.77-27.26,3.48-18.53,27.88C1874.59,587.88,1873.43,589.44,1871.91,589.41z"/>
		<path class="st19" d="M1893.49,586.18c-4.19-0.55-6.51-17.48-24.35-19.3c-1.27-0.08-2.24-1.19-2.15-2.46
			c0.09-1.27,1.2-2.25,2.46-2.15C1886.98,563.46,1900.66,585.58,1893.49,586.18z"/>
		<rect x="1961.72" y="702.26" class="st20" width="86.98" height="102.72"/>
		<path class="st19" d="M1961.72,702.26v46.13c49.03,17.1,86.98,0,86.98,0v-46.13H1961.72z"/>
		<path class="st0" d="M1729.65,1355.82c-4.53-92.63,56.05-174.05,86.05-261.15c30.57-87.74,29.07-181.64,29.93-277.24
			c29.72-17.55,116.15-43.4,111.52-40.09c17.33,11.38,72.24,19.09,96.11,0c41.22,10.46,75.81,22.91,111.36,40.12
			c-1.28,72.56,13.12,221.85,49.12,303.77c42.6,103.18,52.32,200.47,46.4,312.03c-168.4,38.06-357.07,37.48-528.83,0
			C1730.51,1420.19,1729,1393.82,1729.65,1355.82z"/>
		<path class="st21" d="M1818.92,1167.29c0.13,0.39,0.27,0.78,0.39,1.17l1.86-1.85C1820.4,1166.77,1819.65,1166.99,1818.92,1167.29z
			 M1883.7,930.47l0.37-0.37C1884.02,929.94,1883.7,930.47,1883.7,930.47z M1960.55,1065.95l-0.04,0.04
			c0.07,0.06,0.13,0.1,0.21,0.13L1960.55,1065.95z M2261.01,1366.39c-14.72-14.7-44.52-44.51-59.42-59.41
			c0.98-0.98,50.58-50.58,51.54-51.54c-1.93-10.83-4.14-21.24-6.69-31.78c-12.37,12.38-51.11,51.13-64.07,64.09
			c-20.06-20.05-47.67-47.69-67.58-67.6c15.34-15.34,52.68-52.68,67.58-67.56c18.63,18.63,42.98,42.98,61.7,61.7
			c-4.89-18.82-10.66-37.15-16.88-55.32c-6.05-6.07-19.45-19.43-25.61-25.6c3.56-3.55,8.58-8.56,12.15-12.15
			c-3.47-9.54-6.93-18.95-10.22-28.22c-2.4,2.4-18.36,18.38-21.14,21.15l-67.58-67.58c13.8-13.81,47.79-47.79,63.29-63.31
			c-3-19.75-5.34-37.83-7.18-54.2c-13.26-13.25-42.58-42.57-56.11-56.1l47.45-47.45l2.24-2.24c0.02-3.62,0.11-5.57,0.13-5.84
			c-7.27-3.57-14.84-7.03-22.44-10.28c-11.75,11.75-42.6,42.6-46.59,46.59c-20.44-20.42-46.19-46.19-66.59-66.56
			c-13.42,3.16-27.78,2.86-40.83,0.38c-15.73,15.73-50.78,50.78-66.19,66.19l-49.01-49.01c-8.78,3.76-17.64,7.86-26.28,12.15
			c17.53,17.53,38.58,38.58,56.07,56.07c-17.34,17.34-41.92,41.92-59.74,59.74c-1.15,16.71-2.59,33.34-4.3,49.8
			c17.16,17.16,57.32,57.35,64.04,64.07c-16.58,16.58-50.87,50.87-67.58,67.58l-19.48-19.5c-3.38,9.35-6.98,18.53-10.73,27.7
			c1.97,1.97,9.2,9.21,11,11.01c-7.74,7.72-20.05,20.02-27.78,27.74c-12.22,27.17-25.33,54.17-36.49,81.58
			c18.35,18.34,46.04,46.06,64.27,64.29c-16.93,16.92-51.01,50.98-67.6,67.56l-18.73-18.73c-0.48,25.47,0.14,51.74,1.47,74.42
			c0,0,17.25-17.26,17.25-17.27c2.51,2.51,27.92,27.93,29.57,29.58c15.39,2.74,30.64,5.13,45.64,7.2
			c-1.29-1.29-52.65-52.66-55.99-56c18.57-18.57,49.05-49.04,67.59-67.56c12.31,12.31,54.57,54.56,67.58,67.56l-58.66,58.66
			c11.56,1.38,23.32,2.65,34.76,3.67c4.09-4.07,38.14-38.15,43.11-43.11c5.97,5.97,43.17,43.21,48.17,48.2
			c26.77,0.53,51.96,0.27,78.04-0.79c2.58-2.6,43.47-43.48,47.4-47.41c2.23,2.23,39.73,39.75,40.9,40.92
			c11.56-1.27,22.88-2.65,34.23-4.22c-10.42-10.42-46.15-46.15-55.91-55.91c20.72-20.71,46.88-46.88,67.58-67.56
			c15.29,15.27,51.84,51.83,67.58,67.56l-51.83,51.83c20.74-3.36,36.8-6.6,47.37-8.91l14.97-14.97
			C2260.9,1404.45,2261.08,1385.04,2261.01,1366.39z M2008.77,1287.75c-13.56-13.56-54.73-54.76-67.58-67.6
			c19.85-19.85,47.69-47.67,67.58-67.56c19.61,19.58,47.88,47.86,67.6,67.56L2008.77,1287.75z M2049.53,1019.76l26.83,26.83
			c-15.65,15.65-52.47,52.45-67.6,67.58c-20.77-20.77-46.78-46.78-67.58-67.58c2.82-2.82,63.13-63.15,67.58-67.6L2049.53,1019.76z
			 M1865.35,1122.43l56.62-56.63l67.58,67.58c-11.68,11.68-56.8,56.79-67.58,67.56c-16.69-16.69-50.72-50.72-67.56-67.56
			L1865.35,1122.43z M2163.16,1133.38c-16.1,16.09-51.81,51.79-67.58,67.56c-19.57-19.55-47.97-47.95-67.6-67.56l67.6-67.58
			L2163.16,1133.38z M2142.37,939.01c10.88,10.88,19.64,19.64,20.79,20.76c-18.8,18.8-48.77,48.78-67.58,67.6
			c-16.56-16.56-51.26-51.26-67.6-67.6c16.41-16.41,51.44-51.43,67.6-67.58C2098.87,895.49,2123.73,920.35,2142.37,939.01z
			 M1999.35,814.82l9.42-9.42c18.94,18.92,48.51,48.49,67.6,67.58l-4.47,4.47l-63.13,63.1c-18.69-18.69-48.87-48.87-67.58-67.58
			L1999.35,814.82z M1875.44,980.81c-5.15-5.15-16.03-16.02-21.03-21.04c2.45-2.45,64.71-64.73,67.56-67.58
			c11.67,11.67,56.81,56.81,67.58,67.58c-16.35,16.36-51.5,51.51-67.58,67.6L1875.44,980.81z M1835.18,1287.75
			c-16.71-16.72-50.62-50.64-67.59-67.6c21.16-21.14,46.47-46.47,67.59-67.56c16.19,16.18,51.9,51.89,67.58,67.56
			C1883.87,1239.07,1854.13,1268.79,1835.18,1287.75z M1854.41,1306.98c19.17-19.17,48.51-48.54,67.56-67.6
			c11.09,11.08,55.71,55.73,67.58,67.6c-9.91,9.9-56.75,56.73-67.58,67.56L1854.41,1306.98z M2015.89,1454.21l-7.13,7.13
			c-15.74-15.74-52.3-52.3-67.58-67.58c9.36-9.37,57.2-57.19,67.58-67.56l62.9,62.86l4.7,4.7L2015.89,1454.21z M2126.47,1343.66
			l-30.89,30.89c-19.41-19.4-48.24-48.21-67.6-67.56c20.27-20.27,47.19-47.19,67.6-67.6c19.13,19.12,48.43,48.47,67.58,67.6
			C2160.78,1309.36,2127.52,1342.62,2126.47,1343.66z"/>
		<path class="st11" d="M2082.42,1186.65c0,0,64.39-31.08,105.44,0c0,0-25.29,52.17-69.85,52.73L2082.42,1186.65z"/>
		<path class="st3" d="M1760.23,1345.92c68.77,8.87,178.69-11.75,226.08-27.74c96.33-31.56,131.58-82.11,131.58-82.11
			s4.08-39-35.47-49.41c0,0-191.41,33.32-243.54,10.41c-21.09-9.27-34.68-73.25-23.18-102.39
			c45.63-115.68,30.37-276.37,30.37-276.37C1636.32,890.51,1492.26,1283.44,1760.23,1345.92z"/>
		<path class="st22" d="M1986.29,1318.15c506.17,161.26,537.36-318.26,178.33-500.7c0,0-1.47,154.84,25.28,234.03
			c40.73,120.58-17.42,170.2-72.01,184.58C2117.9,1236.06,1986.29,1318.15,1986.29,1318.15z"/>
		<path class="st23" d="M2297.9,1984.49c-0.05,5.16-0.13,10.34-0.22,15.51h-276.99c-8.33-112.97-13.54-226.36-13.89-339.51
			c-11.88,112.09-23.97,226.16-36.37,339.51h-278.7c-5.49-189.48,4.67-380.15,39.58-566.74c167.57,20.98,359.59,35.15,528.82,0
			C2287.58,1614.37,2300.14,1800.57,2297.9,1984.49z"/>
		<path class="st2" d="M1889.97,633.17c4.28,140.69,223.14,144.52,234.69,5.31c2.36-51.12-14.03-67.45-20.73-131.11
			c-12.17-115.57-176.4-121.72-191.16-0.86C1906.96,554.17,1889.55,589.51,1889.97,633.17z"/>
		<path class="st24" d="M2034.82,646.64l-59.05-14.72C1978.39,665.07,2016.55,677.8,2034.82,646.64z"/>
		<path class="st19" d="M1976.23,562.38c3.78-7.18-7.59-12.96-11.15-5.67C1961.29,563.9,1972.66,569.67,1976.23,562.38z"/>
		<path class="st19" d="M1926.4,493.09c0,0,76.18-23.52,171.82,0l-5.75-30.64h-177.02L1926.4,493.09z"/>
		<path class="st19" d="M2051.22,562.52c3.78-7.18-7.59-12.96-11.15-5.67C2036.29,564.04,2047.65,569.82,2051.22,562.52z"/>
		<path class="st12" d="M2034.82,649c-1.37-1.45-64.75-13.12-61.35-17.66c-1.76-5.79,60.92,13.98,61.92,13
			C2038.05,644.92,2037.52,649.09,2034.82,649z"/>
		<path class="st19" d="M2013.35,616.79c-2.96-0.3-9.15,0.27-8.48-3.97c0.4-1.24,1.73-1.93,2.98-1.53
			c7.98,2.83,27.29-2.7,18.02-8.37c-13.42-7.27-22.43-32.67-22.8-33.75c-1.05-2.87,3.49-4.49,4.47-1.56
			c0.09,0.25,8.78,24.75,20.59,31.15C2042.61,608.94,2024.79,616.64,2013.35,616.79z"/>
		<path class="st19" d="M2089.82,554.4c-0.28-1.56-0.69-3.09-1.24-4.61c-4.15-11.47-15.88-20.91-35.18-21.02
			c-22.52,0.12-34.73,12.96-36.61,26.88c-0.27,1.88-0.34,3.77-0.22,5.64c0.9,14.71,13.17,28.88,36.83,29.01
			C2080.75,590.17,2092.9,571.23,2089.82,554.4z M2053.4,585.58c-43-0.23-43-51.83,0-52.08
			C2096.4,533.74,2096.4,585.34,2053.4,585.58z"/>
		<path class="st19" d="M1999.89,555.57c-1.93-13.88-14.15-26.67-36.6-26.79c-19.78,0.11-31.61,10.04-35.47,21.88
			c-0.49,1.46-0.85,2.96-1.08,4.47c-2.6,16.64,9.59,35.03,36.55,35.18c23.48-0.13,35.76-14.1,36.81-28.69
			C2000.26,559.61,2000.19,557.58,1999.89,555.57z M1963.29,585.58c-43-0.23-43-51.83,0-52.08
			C2006.29,533.74,2006.29,585.34,1963.29,585.58z"/>
		<path class="st19" d="M2018.17,561.91c-2.43-0.07-8.77-7.83-17.59-0.62c-0.97,0.88-2.46,0.82-3.35-0.15
			c-0.88-0.96-0.81-2.46,0.15-3.34C2004.01,548.92,2027.52,556.76,2018.17,561.91z"/>
		<path class="st5" d="M2124.89,411.26c-24.18-53.02-190.21-61.67-239.71,3.7c0,0,0,75.82,19.44,129.55c0,0,24.85-26.76,31.23-65.24
			c89.21-22.66,150.76,0.66,150.76,0.66c2.91,25.04,23.08,64.58,23.08,64.58C2125.53,488.73,2124.89,411.26,2124.89,411.26z"/>
		<path class="st25" d="M1991.86,1319.85c-5.66,0.17-7.17-8.49-1.58-10.11c72.94-23.43,119.96-74.53,120.42-75.04
			C2145.26,1227.72,2063.93,1299.1,1991.86,1319.85z"/>
		<path class="st3" d="M2047.1,775.59c0,0,36.12-4.53,51.59,14.98c-21.5,23.81-73.99,88.9-93.49-1.13
			c-6.66,70.75-63.34,51.72-93.46,0.5C1966.9,746.27,1969.76,813.29,2047.1,775.59z"/>
		<path class="st19" d="M2087.59,555.05c-2.54,0.09-3.28-3.77-0.82-4.59c0,0,22.1-8.17,22.1-8.17c2.86-1.11,4.54,3.42,1.64,4.44
			C2109.23,547.02,2089.04,555,2087.59,555.05z"/>
		<path class="st12" d="M1928.89,555.79c-1.15,0.07-22.99-8.85-24.03-9.07c-1.22-0.47-1.83-1.84-1.36-3.06
			c0.65-4.85,24.21,7.77,26.24,7.55C1932.16,552.06,1931.42,555.88,1928.89,555.79z"/>
		<path class="st11" d="M1755.65,1171.53c11.2-20.22,41.57-44.92,84.19-29.84v0v0c62.92,25.38,77,63.15,77,63.15
			c-22.06,0.32-49.56,6.22-68.1,1.5c-9.47,3.26-17,11.61-21.95,31.38c-4.69,20.82-23.44,10.22-20.3-8.32
			c-7.38,19.56-26.08,8.67-19.12-11.95c-26.66,14.89-12.47-33.56-3.38-45.34c-3.79,3-7.28,6.73-10.33,11.27
			C1759.73,1204.13,1744.86,1191.01,1755.65,1171.53z"/>
		<path class="st26" d="M1806.49,1231.78c-6.39-0.15,4.16-34.17,21.27-46.65c5.1-3.53,20.11-8.77,22.93-1.4
			c-1.94,4.04-14.05-1.05-20.26,5.31C1811.52,1201.95,1811.5,1231.02,1806.49,1231.78z"/>
		<path class="st26" d="M1787.37,1219.82c-9.54,3.13,18.47-73.55,42.42-55.72c-0.15,1.3-1.3,2.23-2.63,2.07
			C1799.19,1163.73,1791.98,1220.62,1787.37,1219.82z"/>
		<path class="st26" d="M1783.99,1174.49c-7.73-0.45,9.64-31.32,35.6-27.34c3.03,0.42,2.33,5.18-0.71,4.68
			C1793.17,1148.76,1788.34,1174.2,1783.99,1174.49z"/>
	</g>
	<g id="_x34_">
		<path class="st10" d="M2318.49,717.03c0,0-47.91-40.87-100.3,20.98c-52.39,61.86-25.48,74.23-97.24,139.8
			c-71.75,65.57,6.73,177.72,67.27,195.64c60.54,17.92-8.28,89.87,112.46,107.71C2421.43,1199,2720.08,883.09,2318.49,717.03z"/>
		<path class="st13" d="M2257.2,1135.43l-20.57,35.05l-93.78,159.82l-20.7,35.28c-15.15,4.98-30.44,9.26-45.77,12.92
			c-5.58,1.33-11.16,2.58-16.73,3.75c-171.92,36.07-342.24-2.38-342.24-2.38l22.8-173.76c0,0,116.66-3.61,283.71-53.17
			c92.06-27.3,160.37-27.26,198.53-23.43C2245.17,1131.8,2257.2,1135.43,2257.2,1135.43z"/>
		<path class="st18" d="M2364.4,1123.39c141.62,8.96,321.13,98.48,407.86,210.67c134.17,173.54,8.22,394.17-115.26,437.68
			c-59.98,21.14-76.52-6.97-32.4-51.39c138.67-139.64,10.13-278.16-111.65-319.46C2470.49,1386.49,2377.72,1124.3,2364.4,1123.39z"
			/>
		<path class="st14" d="M2142.85,1330.3l-20.7,35.28c-20.66,6.79-41.59,12.28-62.5,16.67c-9.87-97.39,75.71-162.08,75.71-162.08
			L2142.85,1330.3z"/>
		<path class="st2" d="M2099.69,1815.05c533.96-27.91,370.15,119.42,363.87-298.02c-11.27-133.94,76.83-339.11-99.15-393.64
			c-5.41-39.22-1.29-110.13,6.47-145.06c16.73-62.43-83.96-87.1-97.66-23.54c-3.37,11.89-9.71,77.53-11.62,134.52
			c-0.56,22.25,3.53,44.81-15.07,59.99C2074.34,1329.68,2104.98,1581.29,2099.69,1815.05z"/>
		<path class="st13" d="M2597.33,1832.34c-11.88-45.29-23.31-81.22-40.65-119.31c-30.34-54.08-70.74-88.93-58-164.74
			c2.12-45.77,12.52-83.85,14.68-127.4c0.46-10.06,0.41-20.22-0.41-30.61l-4.38-7.87c-8.83-15.74-138.91-249.68-144.16-259.02
			c-99.94,101.71-107.21,12.04-107.21,12.04c-291.76,143.54-128.69,282.07-166.7,519.85c0,0-0.01,0-0.01,0v0.01
			c-46.58,81.9-78.89,233.73-81.64,344.71h621.63C2621.24,1939.22,2610.28,1882.54,2597.33,1832.34z"/>
		<path class="st19" d="M2261.72,1089.31c20.67,4.27,63.7,9.92,100.35-6.29c0-3.02,0.06-6.12,0.15-9.25
			c-0.67-30.1,2.59-56.32,4.83-73.16c5.15-31.57,10.94-43.38-6.53-66.43c-12.61-15.74-37.39-22.23-56.09-14.55
			C2255.73,940.43,2270.14,1008.74,2261.72,1089.31z"/>
		<path class="st14" d="M2513.36,1420.89c-0.62,13.65-2.19,27.11-4.09,40.69c-42.05-25.71-73.68-110.8-73.68-110.8l72.98,31.63
			l4.38,7.87C2513.77,1400.67,2513.82,1410.83,2513.36,1420.89z"/>
		<path class="st2" d="M2200.76,1037.82c34.23,34.96,87.1,44.79,129.43,35.74c2.4-0.52,4.84-1.03,7.14-1.67
			c91.38-23.7,117.81-165.87,80.22-239.85c-22.7-50.43-86.58-81.11-137.77-55.83c-35.64,18.92-49.15,55.25-65.08,93.47
			c-4.78,9.95-13.97,22.93-22.98,31.76C2157.14,936.29,2157.08,990.95,2200.76,1037.82z"/>
		<path class="st19" d="M2335.1,858.16c73.63,23.92,65.28,83.46,65.28,83.46l29.22-31.06l-61.98-112.18l-61.65-30.27
			c-15.44,1.92-29.51,8.31-41.48,18.33C2264.49,786.43,2261.47,834.24,2335.1,858.16z"/>
		<path class="st13" d="M2754.65,1734.15c-16.81,10.23-32.45,12.84-43.54,7.35c0,0-17.93-41.75-64.54-46.07
			c0,0-4.75-11.04-5.26-33.07c-0.31-12.84,0.78-29.33,5.06-49.53c19.03-89.48-76.76-168.43-132.98-191.93
			c-0.01,0-0.02-0.01-0.03-0.01c-52.83-22.12-102.45-106.31-102.45-106.31c-28.93-52.3-39.86-113.51-43.99-152.31
			c-2.51-23.58-2.51-38.88-2.51-38.88c11.62-1.26,25.31-1.51,40.6-0.67c145.32,7.86,434.23,113.16,443.26,377.16
			C2852.56,1625.59,2799.4,1706.91,2754.65,1734.15z"/>
		<path class="st14" d="M2405.01,1122.72c-11.74,14.94-36.1,38.5-50.33,50.11c-52.47,44.95-126.08,37.56-132.24-43.31l0.01-0.01
			c22.72,2.29,34.75,5.92,34.75,5.92s7.27,89.67,107.21-12.04C2376.03,1122.13,2389.72,1121.88,2405.01,1122.72z"/>
		<path class="st24" d="M2227.79,982.07l55.92-28.57C2288.81,987.44,2253.43,1009.13,2227.79,982.07z"/>
		<path class="st19" d="M2270.2,906.38c-3.9-7.41,7.83-13.37,11.51-5.85C2285.61,907.95,2273.88,913.91,2270.2,906.38z"/>
		<path class="st19" d="M2215.93,897.26c-3.9-7.41,7.83-13.37,11.51-5.85C2231.35,898.83,2219.62,904.78,2215.93,897.26z"/>
		<path class="st19" d="M2227.8,984.51c1.39,0.16,55.78-28.49,57.03-28.83c1.2-0.61,1.68-2.08,1.06-3.29
			c0.42-6.23-57.97,28.26-59.2,27.5C2224.41,980.95,2225.33,984.6,2227.8,984.51z"/>
		<path class="st19" d="M2236.46,953.4c3.06-0.31,9.44,0.27,8.75-4.1c-0.41-1.29-1.79-1.99-3.07-1.58
			c-8.23,2.92-28.16-2.79-18.6-8.64c13.85-7.5,23.14-33.71,23.53-34.82c1.08-2.96-3.6-4.63-4.61-1.61
			c-0.09,0.26-9.06,25.54-21.25,32.14C2206.26,945.3,2224.64,953.25,2236.46,953.4z"/>
		<path class="st14" d="M2059.65,1726.38c2.75,1.08,150.62,57.99,497.03-13.36c-21.39-46.89-44.59-71.09-44.59-71.09
			c-202.83,52.62-421.61,13.34-421.61,13.34S2064.15,1696.56,2059.65,1726.38z"/>
		<path class="st18" d="M2567.17,1737.55c-16.81,14.97-36.72,23.99-36.75,24.14c-26.92,7.34-54.18,13.21-81.72,17.85
			c-8.86,1.27-7.5,15.23,1.55,14.65c27.22-1.18,54.47-3.55,81.49-7.29c0.05,0.13,0.1,0.26,0.15,0.39
			c-25.97,13.39-52.72,25.37-80.3,35.04c-29.69,35.26,83.7-11.76,92.71-14.97c0.05,0.05,0.09,0.1,0.14,0.15
			c-22.29,16.72-46.64,30.72-72.16,41.96c-25.46,38.11,83.91-18.45,92.17-24.93c0.09,0.06,0.18,0.12,0.27,0.18
			c-15.59,15.68-33.19,29.36-51.33,42.04c-18.8,38.84,69.24-23.48,76.08-30.22c7.66-2.19,46.49-30.3,77.97-68.89
			c10.32-12.65-23.26-44.94-39.07-47.68c-27.64-3.93-46.47-2.44-69.47-2.07L2567.17,1737.55z"/>
		<path class="st10" d="M2279.78,776.22c11.25-67.06,167.62-179.64,271.96-2.88c74.02,139.47,278.03,293.79,96.17,370.36
			c-68.77,11.95-14.96,77.43-59.8,110.47c-44.85,33.04-104.64,1.64-107.63,80.87c-2.99,79.23-53.21,97.32-108.08,92.76
			c-54.87-4.56-118.57-152.87-55.34-203.7c63.23-50.83,10.1-92.02,40.42-159.46c30.32-67.45,64.5-81.59,64.5-81.59l-12.12-61.09
			C2408.47,842.66,2275.15,849.44,2279.78,776.22z"/>
		<path class="st2" d="M2460.02,954.23c-10.49,48.46-69.66,35.95-59.64-12.61C2410.87,893.16,2470.04,905.67,2460.02,954.23z"/>
		<path class="st19" d="M2444.64,964.24c1.05,0,2.01-0.68,2.34-1.73c11.04-30.87-5.72-43.76-26.03-35.43
			c-2.95,1.12-1.16,5.74,1.78,4.55c17.42-7.16,28.8,3.69,19.57,29.46C2441.81,962.62,2443.03,964.27,2444.64,964.24z"/>
		<path class="st19" d="M2421.84,960.83c4.43-0.58,6.88-18.47,25.72-20.39c1.35-0.09,2.36-1.25,2.28-2.6
			c-0.09-1.35-1.23-2.39-2.6-2.28C2428.48,937.1,2414.44,959.76,2421.84,960.83z"/>
		<path class="st19" d="M2303.95,894.3c-0.86,0-1.71-0.38-2.29-1.11c-11.52-14.51-30.73-17.53-30.93-17.55
			c-1.59-0.24-2.69-1.72-2.46-3.31c0.23-1.6,1.69-2.67,3.31-2.46c0.88,0.13,21.66,3.34,34.64,19.71c1,1.26,0.79,3.1-0.47,4.1
			C2305.23,894.1,2304.59,894.3,2303.95,894.3z"/>
		<path class="st19" d="M2215.61,878.65c-0.91,0-1.81-0.43-2.38-1.22c-0.93-1.31-0.63-3.12,0.67-4.06
			c0.58-0.41,14.47-10.17,34.01-5.43c1.57,0.38,2.53,1.95,2.15,3.52c-0.38,1.56-1.95,2.53-3.52,2.15
			c-16.87-4.07-29.12,4.42-29.24,4.51C2216.78,878.48,2216.19,878.65,2215.61,878.65z"/>
		<path class="st14" d="M2754.65,1734.15c-16.81,10.23-32.45,12.84-43.54,7.35c0,0-17.94-41.75-64.55-46.07
			c0,0-4.75-11.05-5.25-33.07c9.34-5.06,21.59-7.51,34.39,3.27c25.17,21.2,11.17,30.31,45.64,41.98
			C2740.1,1713.95,2750.84,1723.29,2754.65,1734.15z"/>
		<path class="st14" d="M2275.41,1224.44c0,6.39-5.18,11.57-11.57,11.57s-11.57-5.18-11.57-11.57c0-6.39,5.18-11.57,11.57-11.57
			S2275.41,1218.05,2275.41,1224.44z"/>
		<path class="st14" d="M2259.6,1273.85c0,6.39-5.18,11.58-11.57,11.58s-11.57-5.18-11.57-11.58s5.18-11.57,11.57-11.57
			S2259.6,1267.46,2259.6,1273.85z"/>
		<path class="st27" d="M2673.72,1767.11c-0.98,0-1.9-0.63-2.22-1.61c-13.13-40.52-41.37-48.92-41.65-49
			c-1.24-0.35-1.96-1.64-1.61-2.88c0.35-1.24,1.64-1.96,2.88-1.61c1.26,0.35,30.93,9.18,44.82,52.05c0.4,1.23-0.27,2.54-1.5,2.94
			C2674.2,1767.08,2673.96,1767.11,2673.72,1767.11z"/>
		<path class="st27" d="M2686.88,1760.15c-0.96,0-1.87-0.6-2.2-1.57c-14.66-42.18-47.15-49.99-47.48-50.06
			c-1.25-0.28-2.04-1.53-1.76-2.79c0.28-1.26,1.53-2.04,2.78-1.77c1.43,0.32,35.31,8.33,50.87,53.08c0.42,1.22-0.22,2.54-1.44,2.97
			C2687.4,1760.1,2687.14,1760.15,2686.88,1760.15z"/>
		<path class="st27" d="M2529.23,1815.5c-1.15,0-2.15-0.85-2.31-2.01c-1.73-12.51-8.57-18.23-8.64-18.29
			c-0.99-0.81-1.15-2.28-0.34-3.28c0.81-1,2.27-1.16,3.27-0.36c0.34,0.27,8.34,6.83,10.33,21.28c0.18,1.28-0.71,2.45-1.99,2.63
			C2529.45,1815.5,2529.34,1815.5,2529.23,1815.5z"/>
		<path class="st27" d="M2427.92,1015.64c-12.33,0-22.37-10.04-22.37-22.37c0-12.33,10.04-22.37,22.37-22.37
			c1.29,0,2.33,1.04,2.33,2.33c0,1.29-1.04,2.33-2.33,2.33c-9.76,0-17.71,7.94-17.71,17.71c0,9.76,7.94,17.71,17.71,17.71
			s17.71-7.94,17.71-17.71c0-3.76-0.79-6.54-2.63-9.3c-0.72-1.07-0.43-2.52,0.64-3.23c1.07-0.72,2.52-0.43,3.23,0.64
			c2.37,3.53,3.43,7.2,3.43,11.89C2450.29,1005.6,2440.25,1015.64,2427.92,1015.64z"/>
	</g>
	<g id="_x33_">
		<path class="st0" d="M1395.96,1388.58c-85.55,88.14-271.19,154.07-406.23,119.69c-23.01-5.3-45.22-13.35-66.16-23.99
			c-35.54-18.04-67.4-43.55-93.25-75.7c-0.1-0.12-0.2-0.25-0.3-0.37c-51.54-60.59-160.99-360.03-197.52-426.49
			c315.97,81.23,372.83,417.58,746.58,324.88L1395.96,1388.58z"/>
		<path class="st28" d="M1184.96,1502.22v0.02c-0.2,0.05-0.38,0.11-0.59,0.16C1184.57,1502.33,1184.75,1502.28,1184.96,1502.22z"/>
		<path class="st10" d="M634.78,578.44c0,0,28.87-15.99,46.19,9.67c17.32,25.66-2.18,43.11,19.38,65.7
			c21.56,22.58,34.9,26.69,28.74,48.25c-6.16,21.56-22.69,23.94-15.45,50.98C709.11,752.26,569.84,607.81,634.78,578.44z"/>
		<path class="st21" d="M923.58,1484.28h-0.01c-35.54-18.04-67.4-43.55-93.25-75.7l-31.26-240.12
			C799.06,1168.46,876.57,1286.72,923.58,1484.28z"/>
		<path class="st13" d="M906.55,1999.96l-635.8,0.04c0,0-39.62-273.75,63.55-506.07c0,0,508.38,43.6,523.18,36.64
			C883,1683.35,898.25,1843.78,906.55,1999.96z"/>
		<path class="st2" d="M632.47,981.73c6.41-55.91-2.33-136.53-10.13-169.74c-14.05-65.45-117.84-40.12-100.59,24.21
			c3.35-2.1,14.06,116.49,6.66,149.41C431.01,1014.84,723.94,1110.91,632.47,981.73z"/>
		<path class="st3" d="M451.27,1715.55c0,0,82.44,65.19,133.9,102.3c51.46,37.11,114.1,44.77,114.1,44.77s24.8-13.02,29.27-29.11
			c0,0,16.85,16.85,24.51,29.11c7.66,12.26,105.29-16.35,123.06-29.11s25.14-20.73,14.1-51.98L451.27,1715.55z"/>
		<path class="st0" d="M893.65,1772.05c-30.38,112.56-330.87,12.35-442.37-56.5c-9.09-5.61-19.91-9.09-31.43-11.09
			c-46.74-8.12-105.07,8.12-106.86,4.95C271.45,1636,367,1392.03,431.82,1217.55c28.8-77.53,51.53-141.34,53.47-170.37
			c-1.9-17.96,27.04-50.41,43.11-61.57c48.75,34.06,117.75,57.23,104.12-3.84c34.93,29.11,74.05,60.69,107.33,97.69
			C857.34,1198.71,944.73,1619.11,893.65,1772.05z"/>
		<path class="st21" d="M431.5,1402.26c-55.43,117.04-43.07,199.19-11.65,302.2c-46.74-8.12-105.07,8.12-106.86,4.95
			C271.45,1636,367,1392.03,431.82,1217.55l89.97-33.2C521.79,1184.35,486.92,1285.23,431.5,1402.26z"/>
		<path class="st4" d="M520.75,830.81c0.26,1.8,0.58,3.63,1,5.4c2.41-1.6,9.17,63.84,9.23,111.33
			c44.63,20.29,94.38,11.37,103.49,9.5c0.97-60.16-4.55-114.96-13.39-149.38C601.84,749.26,512.48,770,520.75,830.81z"/>
		<path class="st2" d="M703.8,901.73c-52.25,50.78-137.96,57.25-193.2,14.99h-0.06c-60.63-55.71-79-168.02-43.15-239.39
			c26.84-61.45,113.22-95.43,167.39-49.33c27.85,23.33,39.26,56.21,53.82,90.37c5.17,10.84,15.26,25.01,25.03,34.65
			C751.35,791.01,751.41,850.59,703.8,901.73z"/>
		<path class="st0" d="M521.78,1184.35c-56.57,185.18-236.06,268.14-93.79,575.88c-45.2,60.12-102.92,49.27-102.92,49.27
			c-38.55-41.74-69.83-83.06-94.65-123.66c-214.52-350.94,52.93-648.36,269.93-695.51c9.46-2.05,18.82-3.63,28.04-4.72
			C544.47,1066.31,538.46,1129.77,521.78,1184.35z"/>
		<path class="st21" d="M666.15,991.62c0,0,5.96,48.29-33.65,55.82c-76.16,14.49-139.95-55.31-139.95-55.31
			c17.19-9.09,35.85-6.52,35.85-6.52c33.37,21.34,55.17,29.77,70.96,32.66c42.96,7.84,33.7-34.25,33.16-36.49
			c0,0,0.01,0.01,0.03,0.03C650.41,981.72,666.15,991.62,666.15,991.62z"/>
		<path class="st4" d="M628.07,758.4c4.26-8.08-8.53-14.58-12.55-6.38C611.27,760.1,624.06,766.6,628.07,758.4z"/>
		<path class="st4" d="M687.25,748.45c4.25-8.08-8.53-14.58-12.55-6.38C670.44,750.15,683.23,756.65,687.25,748.45z"/>
		<path class="st4" d="M661.43,659.84c-41.63,35.91-89.07-19.31-89.92,33.5c0.79,21.53-38.47,15.2-43.12,25.3
			c-4.61,10.1,0.75,29.34-8.08,42.43c-8.84,13.09-53.1,29.19-53.1,29.19c10.43,44.19,3.94,82.02,52.95,133.49
			c-3.32-2.14-6.51-4.49-9.56-7.03h-0.06c-70.44-66.67-86.4-205.59-16.95-276.15C540.77,590.95,629.32,596.33,661.43,659.84z"/>
		<path class="st4" d="M664.87,809.66c-3.33-0.33-10.3,0.3-9.54-4.47c0.45-1.4,1.96-2.18,3.35-1.72c8.97,3.18,30.7-3.04,20.28-9.42
			c-14.81-7.19-34.37-50.08-20.63-39.73c0.1,0.28,9.88,27.85,23.17,35.04C697.8,800.83,677.75,809.49,664.87,809.66z"/>
		<path class="st10" d="M651.73,645.8c0,0,22.65-27.92-1.32-48.45c-23.97-20.53-22.48-51.33-55.56-46.19
			c-33.08,5.13-45.4,9.13-81.33-0.57c-35.93-9.7-66.4,24.84-65.02,47.61c1.38,22.76-46.87,22.76-54.06,53.56
			c-7.19,30.8,0,40.03,0,53.38c0,13.34-42.09,30.8-33.87,62.62c8.21,31.82,34.9,26.94,40.03,47.35c5.13,20.4-10.57,55.4,12.98,66.89
			c34.92,17.04,64.98-5.42,64.98-5.42C414.3,740,517.29,802.21,508.27,725.66c-7.06-29.77,36.93-20.53,47.27-35.93
			c10.34-15.4,2.88-33.87,22.01-37.98C596.67,647.65,609.28,670.65,651.73,645.8z"/>
		<path class="st2" d="M421.09,810.56c11.44,52.84,75.96,39.2,65.03-13.75C474.69,743.97,410.17,757.62,421.09,810.56z"/>
		<path class="st4" d="M437.87,821.48c-1.14,0-2.2-0.74-2.55-1.89c-12.04-33.66,6.24-47.72,28.38-38.64
			c3.22,1.22,1.26,6.25-1.94,4.96c-19-7.8-31.4,4.02-21.34,32.12C440.96,819.72,439.62,821.51,437.87,821.48z"/>
		<path class="st4" d="M462.73,817.76c-4.83-0.64-7.5-20.14-28.05-22.23c-1.47-0.1-2.58-1.37-2.48-2.83
			c0.1-1.47,1.32-2.56,2.83-2.48C455.24,791.59,470.99,817.07,462.73,817.76z"/>
		<path class="st14" d="M327.56,1817.85c-5.13-0.23-36.08,0.09-36.04-7.58c0.14-3.17,25.37-6.54,28.51-6.41
			c73.62,2.38,89.26-35.36,102.85-54.88c5.84-8.38,13.47-22.23,18.71-22.73c9.71,5.21-5.93,38.86-26.77,59.52
			C397.97,1800.6,375.14,1817.85,327.56,1817.85z"/>
		<path class="st4" d="M663.07,842.88c-25.29,0-42.27-14.59-43.13-15.35c-1.17-1.03-1.29-2.81-0.26-3.98
			c1.03-1.17,2.81-1.29,3.98-0.26l0,0c0.24,0.21,24.26,20.74,56.54,11.51c1.5-0.43,3.06,0.44,3.49,1.94
			c0.43,1.5-0.44,3.06-1.94,3.49C675.14,842.11,668.89,842.88,663.07,842.88z"/>
		<path class="st4" d="M583.59,744.71c-0.36,0-0.72-0.07-1.08-0.22c-1.44-0.6-2.12-2.24-1.53-3.68
			c0.44-1.06,11.04-25.95,44.96-32.79c1.52-0.31,3.01,0.68,3.32,2.21c0.31,1.53-0.68,3.01-2.21,3.32
			c-30.85,6.22-40.47,28.48-40.86,29.42C585.74,744.06,584.69,744.71,583.59,744.71z"/>
		<path class="st4" d="M682.95,717.36c-0.59,0-1.18-0.18-1.69-0.56c-13.61-10.21-29.89-5.64-30.05-5.6
			c-1.49,0.43-3.06-0.42-3.5-1.91c-0.44-1.49,0.41-3.06,1.91-3.5c0.77-0.23,19.1-5.45,35.03,6.5c1.25,0.93,1.5,2.7,0.56,3.95
			C684.65,716.97,683.8,717.36,682.95,717.36z"/>
	</g>
	<g id="_x32__6_">
		<path class="st7" d="M1655.34,1126.93c0,0-117.69,28.39-183.47,122.22c-121.88,173.83-103.18,390.58-76.1,603.37h274.51
			L1655.34,1126.93z"/>
		<path class="st7" d="M1831.3,1132.22c0,0,155.39,29.68,244.67,233.92c106.11,242.75-57.22,563.97-57.22,563.97l-139.65-55.35
			L1831.3,1132.22z"/>
		<path class="st5" d="M1637.59,839.59c0,0-14.92-84.11,58.9-111.33l46.62,35.03L1637.59,839.59z"/>
		<path class="st0" d="M2030.81,2000l-634.85-0.04c-16.02-221.05,56.82-323.78,56.82-323.78c176.61,14.91,364.02,11.94,535.57-37.04
			C2016.48,1748.74,2021.25,1877.28,2030.81,2000z"/>
		<path class="st2" d="M1687.59,1121.41c-2.05-64.01-10.01-190.94,41.93-207.96c37.31-12.95,81.47,18.83,69.99,60.87
			c-3.38-2.13-14.21,117.75-6.74,151.03C1891.22,1154.88,1595.13,1252,1687.59,1121.41z"/>
		<path class="st12" d="M1800.52,968.87c-0.26,1.82-0.58,3.67-1.01,5.46c-2.44-1.62-9.27,64.52-9.33,112.53
			c-45.11,20.51-94.22,12.47-103.42,10.58c-2.51-66.26-6.56-165.48,42.77-183.98C1764.74,898.4,1806.71,930.49,1800.52,968.87z"/>
		<path class="st2" d="M1871.4,924.65c-7.58,47-23.44,99.97-60.56,131.06h-0.06c-54.11,40.98-133.38,36.61-188.42-8.56h-0.03
			c-42.48-39.69-55.91-93.12-33.56-134.29c14.63-24.27,41.56-45.62,48.83-73.27C1700.62,655.6,1898.15,758.5,1871.4,924.65z"/>
		<path class="st12" d="M1692.03,895.67c-4.3-8.17,8.63-14.74,12.69-6.44C1709.02,897.4,1696.09,903.96,1692.03,895.67z"/>
		<path class="st12" d="M1632.22,885.62c-4.3-8.17,8.63-14.74,12.69-6.44C1649.21,887.34,1636.28,893.91,1632.22,885.62z"/>
		<path class="st12" d="M1871.39,924.66c-7.57,47-23.44,99.97-60.56,131.06h-0.06c-3.08,2.56-5.19,3.8-8.54,5.96
			c28.25-28.04,43.5-87.04,43.5-87.04l-6.65-50.93c-45.6-46.21-25.97-98.17-25.97-98.17c-76.26,21.4-101.95-25.66-101.95-25.66
			c-24.11,3.11-50.59-7.68-50.59-7.68C1749.03,651.48,1898.24,798.55,1871.39,924.66z"/>
		<path class="st5" d="M1848,802.17c-32.42,12.82-43.8,88.11,32.81,139.58C1880.81,941.75,1917.92,817.71,1848,802.17z"/>
		<path class="st12" d="M1654.84,947.49c-13.02-0.16-33.28-8.94-16.81-20.51c13.43-7.28,23.32-35.14,23.42-35.42
			c1.1-3.29,6.29-1.52,5.08,1.78c-0.43,1.23-10.67,30.11-25.93,38.37c-10.54,6.46,11.42,12.72,20.49,9.52
			c1.43-0.46,2.93,0.33,3.39,1.74C1665.25,947.81,1658.21,947.13,1654.84,947.49z"/>
		<path class="st29" d="M2021.69,1874.75c-178.44,88.9-578.77,56.98-620.55,12.36c-72.32-77.21,30.27-118.79,40.95-332.94
			c9.62-192.84,110.17-370.21,213.25-427.24c1.39-0.77,21.17-5.44,32.2-5.46c-0.76,3.08-20.24,84.12,105.24,3.87
			c0.72,0.85,30.61,1.38,38.58,6.87c0,0,118.43,87.7,156.19,426.62C2003.36,1700.75,2082.25,1844.58,2021.69,1874.75z"/>
		<path class="st5" d="M1622.57,723.13c2.42-16.53,19.65-33.97,54.43-23.79c-5.61-11.44-6.65-28.63,6.65-36.79
			c17.46-10.71,35.48,0.43,47.78,14.21c4.84-32.25,32.96-39.61,57.15-35.38c61.12,10.7,58.56,89.81,58.56,89.81
			s135.06,10.04,43.12,132.66l-45.92-59.35c-47.67,29.26-96.97,15.85-127.84-13.69C1679.31,790.59,1615.48,771.6,1622.57,723.13z"/>
		<path class="st2" d="M1901.25,948.4c-11.56,53.41-76.78,39.62-65.73-13.9C1847.07,881.1,1912.29,894.89,1901.25,948.4z"/>
		<path class="st12" d="M1884.29,959.44c-1.77,0.02-3.12-1.78-2.57-3.48c10.18-28.41-2.42-40.36-21.58-32.47
			c-18.85-6.43,47.86-23.81,26.72,34.04C1886.51,958.7,1885.45,959.44,1884.29,959.44z"/>
		<path class="st12" d="M1859.16,955.68c-8.16-1.15,7.32-26.16,28-27.85c3.49-0.3,3.84,5.2,0.36,5.37
			C1866.7,935.36,1864.09,954.99,1859.16,955.68z"/>
		<path class="st7" d="M1831.3,1132.22c-19.94,28.16-190.59,134.42-175.96-5.29c1.53-0.42,21.17-5.43,32.2-5.45
			c-0.76,3.08-13.43,78.9,105.24,3.87C1793.29,1125.03,1823.53,1127.13,1831.3,1132.22z"/>
		<path class="st12" d="M1729.84,890.69c0.42,0.14,0.9,0.16,1.36,0.02c1.16-0.36,1.8-1.59,1.44-2.75
			c-8.95-28.69-25.97-37.16-26.69-37.5c-1.09-0.53-2.4-0.07-2.93,1.03c-0.52,1.09-0.07,2.4,1.02,2.92
			c0.24,0.12,16.08,8.19,24.41,34.86C1728.67,889.96,1729.2,890.47,1729.84,890.69z"/>
		<path class="st12" d="M1671.75,847.06c-17.12-0.49-27.83,4.94-31.86,6.98c-0.45,0.23-0.96,0.48-1.17,0.57l-0.04,0.01
			c-1.13,0.3-1.84,1.46-1.57,2.61c0.27,1.18,1.46,1.92,2.63,1.64c0.53-0.12,1.11-0.41,2.12-0.93c3.76-1.91,13.76-6.97,29.76-6.51
			c0.2,0,0.38-0.01,0.56-0.05c0.95-0.22,1.67-1.06,1.7-2.08C1673.91,848.1,1672.95,847.09,1671.75,847.06z"/>
		<path class="st12" d="M1677.17,979.73c-4.69,0-8.65-1.78-10.65-5.25c-3.61-6.26,0.73-15.29,9.88-20.58
			c4.19-2.42,8.77-3.65,12.88-3.48c4.54,0.19,8.05,2.04,9.88,5.21c1.83,3.17,1.68,7.13-0.42,11.16c-1.91,3.66-5.27,7-9.45,9.42
			C1685.2,978.57,1680.95,979.72,1677.17,979.73z M1688.49,955.41c-3.04,0-6.42,0.99-9.59,2.82c-6.5,3.75-10.18,10.05-8.04,13.75
			c2.14,3.7,9.43,3.66,15.93-0.09c3.37-1.95,6.04-4.58,7.52-7.4c0.74-1.42,1.8-4.14,0.53-6.34l0,0c-1.27-2.21-4.15-2.65-5.76-2.72
			C1688.88,955.41,1688.68,955.41,1688.49,955.41z"/>
		<path class="st7" d="M1708.4,1291.75c-59.36,0-91.47-20.71-93.29-21.92l6.92-10.41l6.86-10.45c0.13,0.09,13.61,8.69,39.04,13.85
			c23.56,4.78,62.5,7.51,114.23-6.64l6.6,24.11C1758.06,1288.69,1731.21,1291.75,1708.4,1291.75z"/>
		<path class="st7" d="M1699.71,1359.14c-59.41,0-96.62-21.88-98.8-23.2l12.88-21.43c0.17,0.1,17.07,10.02,45.68,15.65
			c26.28,5.18,68.19,7.7,118.61-9.69l8.15,23.63C1754.05,1355.21,1724.88,1359.14,1699.71,1359.14z"/>
		<path class="st7" d="M1694.1,1427.44c-16.59,0-31.09-1.75-42.96-4.02c-33.65-6.46-53.99-18.4-54.84-18.91l12.75-21.5
			c0.18,0.1,18.2,10.54,47.9,16.07c39.61,7.37,80.19,2.99,120.58-13.01l9.21,23.24C1752.12,1423.02,1720.48,1427.44,1694.1,1427.44z
			"/>
	</g>
	<g id="_x31_">
		<path class="st5" d="M1249.8,929.4c0,0,28.83-172.87-88.24-147.86L1249.8,929.4z"/>
		<path class="st5" d="M992.26,983.49c0,0-57.67,40.6-84.11,111.01c-28.48,75.83,2.29,117.48,70.66,133.34
			c68.37,15.87,221.43,19.6,310.09-11.2c88.66-30.8-1.56-177.95-65.1-216.52L992.26,983.49z"/>
		<path class="st30" d="M1414.9,1999.96H810.57c6.22-52.05,14.05-103.89,23.67-155.39c120.54,18.81,411.93,38.11,560.75,0
			C1402.72,1895.84,1409.37,1947.69,1414.9,1999.96z"/>
		<rect x="1075.48" y="1057.53" class="st2" width="92.23" height="109.42"/>
		<path class="st12" d="M1074.9,1065.88v49.14c51.99,18.21,92.23,0,92.23,0v-49.14H1074.9z"/>
		<path class="st13" d="M832.48,1762.09c-4.82-98.62,59.42-185.41,91.25-278.19c32.42-93.5,30.82-193.5,31.73-295.33
			c31.46-18.68,123.21-46.24,118.25-42.71c18.37,12.12,76.61,20.34,101.91,0c43.71,11.14,80.4,24.41,118.08,42.74
			c-1.35,77.27,13.9,236.28,52.08,323.59c44.97,108.92,55.58,214.58,49.2,332.4c-178.54,40.54-378.65,39.92-560.75,0
			C833.39,1830.66,831.79,1802.57,832.48,1762.09z"/>
		<path class="st18" d="M1206.55,1581.88c0,0,68.28-33.11,111.8,0c0,0-26.82,55.57-74.06,56.17L1206.55,1581.88z"/>
		<path class="st30" d="M864.9,1751.55c72.93,9.44,189.47-12.52,239.73-29.56c102.14-33.62,139.52-87.47,139.52-87.47
			s4.32-41.55-37.61-52.64c0,0-202.96,35.5-258.24,11.09c-22.37-9.87-36.77-78.03-24.58-109.07
			c48.39-123.23,32.21-294.4,32.21-294.4C733.21,1266.69,580.93,1685.09,864.9,1751.55z"/>
		<path class="st30" d="M1104.61,1721.96c536.72,171.79,569.8-339.03,189.1-533.37c0,0-1.56,164.95,26.8,249.3
			c43.19,128.44-18.47,181.3-76.35,196.63C1244.16,1634.52,1104.61,1721.96,1104.61,1721.96z"/>
		<path class="st31" d="M1110.52,1724c76.67-22.08,163.7-98.79,125.82-91.09c-0.5,0.55-50.44,54.98-127.59,79.87
			C1102.62,1714.56,1104.19,1724.22,1110.52,1724z"/>
		<path class="st30" d="M1169.09,1144c0,0,38.3-4.82,54.7,15.96c-22.82,25.37-78.44,94.71-99.13-1.2
			c-7.05,75.27-67.07,55.21-99.1,0.54C1084.13,1112.76,1087.08,1184.18,1169.09,1144z"/>
		<path class="st18" d="M860.05,1565.78c11.88-21.54,44.08-47.85,89.28-31.79v0v0c66.71,27.03,81.65,67.27,81.65,67.27
			c-23.39,0.34-52.55,6.62-72.21,1.6c-10.04,3.47-18.02,12.37-23.28,33.43c-4.98,22.18-24.85,10.87-21.53-8.86
			c-7.84,20.85-27.66,9.2-20.28-12.73c-28.29,15.85-13.2-35.78-3.58-48.29c-4.02,3.2-7.72,7.17-10.95,12.01
			C864.37,1600.51,848.61,1586.53,860.05,1565.78z"/>
		<path class="st32" d="M913.96,1629.95c5.26-0.69,5.4-31.92,25.45-45.57c6.68-6.78,18.96-1.24,21.43-5.61
			c-3.57-7.89-18.43-2.33-24.27,1.45C918.34,1593.59,907.22,1629.63,913.96,1629.95z"/>
		<path class="st32" d="M893.68,1617.21c4.84,0.96,12.63-59.81,42.19-57.14c1.37,0.16,2.63-0.82,2.79-2.2
			C912.82,1539.28,883.83,1620.17,893.68,1617.21z"/>
		<path class="st32" d="M889.07,1568.92c4.99-1.04,9.82-27.46,36.99-24.13c1.38,0.21,2.66-0.74,2.87-2.11
			c0.21-1.37-0.74-2.66-2.11-2.87C899.3,1535.59,880.89,1568.41,889.07,1568.92z"/>
		<path class="st2" d="M1012.59,941.84c2.33,57.56,20.41,128.21,80.05,148.78c2.22,0.88,4.59,1.65,6.92,2.4
			c96.13,38.32,223.45-64.9,155.41-156.68c-7.97-9.77-15.73-23.66-19.41-34.06c0,0,0,0,0-0.01
			C1201.05,717.3,1008.69,776.72,1012.59,941.84z"/>
		<path class="st12" d="M1168.94,795.8l-1.39,13.12c29.98,7.29,67.62,92.29,67.62,92.29
			C1229.89,864.69,1210.17,814.15,1168.94,795.8z"/>
		<path class="st12" d="M1016.77,980.4c6.32,38.78,22.62,80.77,56.68,100.83c-40.89-30.23-39.87-94.16-39.87-94.16L1016.77,980.4z"
			/>
		<path class="st12" d="M1012.59,941.84l29.06,16.86c39.64-13.56,82.57-71.76,82.57-71.76l-85.75-43.68
			C1021.4,870.03,1011.76,904.58,1012.59,941.84z"/>
		<path class="st12" d="M1176.67,932.93c4.65-6.94-6.33-14.15-10.79-7.04C1161.23,932.83,1172.2,940.04,1176.67,932.93z"/>
		<path class="st12" d="M1231.42,929.6c4.65-6.94-6.33-14.15-10.79-7.04C1215.98,929.5,1226.96,936.71,1231.42,929.6z"/>
		<path class="st12" d="M1208.46,983.49c11.11-0.24,26.5-6.05,13.78-17.07c-11.4-7.88-17.61-34-17.67-34.26
			c-0.67-3.08-5.52-1.98-4.75,1.11c0.27,1.15,6.71,28.23,19.64,37.16c1.47,1.02,3.08,2.5,2.38,3.75
			c-7.73,9.15-23.06,0.35-24.93,4.13C1196.04,983.56,1204.62,983.03,1208.46,983.49z"/>
		<path class="st12" d="M1138.03,916.99c-0.67,0-1.34-0.3-1.78-0.87c-0.76-0.98-0.58-2.4,0.4-3.17
			c19.13-14.84,43.94-16.9,44.99-16.98c1.24-0.1,2.33,0.83,2.42,2.08c0.1,1.24-0.83,2.33-2.07,2.42
			c-0.24,0.02-24.53,2.06-42.57,16.05C1139,916.83,1138.51,916.99,1138.03,916.99z"/>
		<path class="st12" d="M1230.57,903.47c-0.36,0-0.72-0.09-1.06-0.27c-0.15-0.08-11.56-6-27.71-2.77c-1.23,0.25-2.41-0.55-2.66-1.77
			c-0.24-1.22,0.55-2.41,1.77-2.66c17.84-3.57,30.21,2.94,30.73,3.22c1.1,0.59,1.51,1.96,0.92,3.06
			C1232.15,903.04,1231.37,903.47,1230.57,903.47z"/>
		<path class="st5" d="M1177.79,800.43c0,0-18.64,87.03-136.22,142.74l-54.83-5.72c0,0-37.32-71.82,13.78-141.63
			C1059.31,715.47,1150.24,754.69,1177.79,800.43z"/>
		<path class="st2" d="M983.47,960.42c5.29,49.39,65.26,43.17,60.45-6.23C1038.62,904.81,978.66,911.03,983.47,960.42z"/>
		<path class="st12" d="M997.92,972.04c1.51,0.01,2.7-1.41,2.4-2.9c-6.4-26.57,5.94-36.26,22.5-27.26c2.77,1.51,5.09-2.91,2.26-4.33
			c-19.39-10.47-37.2,0.69-29.55,32.51C995.74,971.22,996.77,972.04,997.92,972.04z"/>
		<path class="st12" d="M1020.88,971.05c6.84-0.77-4.3-24.24-22.76-27.85c-1.32-0.24-2.59,0.66-2.82,1.98
			c-0.23,1.33,0.66,2.59,1.98,2.82C1016.08,952.01,1015.97,970.19,1020.88,971.05z"/>
		<path class="st27" d="M1016.77,1025.9c-12.33,0-22.37-10.04-22.37-22.37c0-4.69,1.06-8.36,3.43-11.89
			c0.72-1.07,2.17-1.36,3.23-0.64c1.07,0.72,1.36,2.16,0.64,3.23c-1.85,2.76-2.64,5.54-2.64,9.3c0,9.76,7.94,17.71,17.71,17.71
			c9.76,0,17.71-7.94,17.71-17.71c0-9.76-7.94-17.71-17.71-17.71c-1.29,0-2.33-1.04-2.33-2.33s1.04-2.33,2.33-2.33
			c12.34,0,22.37,10.04,22.37,22.37C1039.14,1015.86,1029.1,1025.9,1016.77,1025.9z"/>
		<path class="st12" d="M1190.34,1005.52c-0.02,0-0.05,0-0.07,0c-16.34-0.58-24.6-17.24-24.94-17.95c-0.48-0.99-0.07-2.19,0.93-2.67
			c0.99-0.48,2.19-0.07,2.67,0.93l0,0c0.07,0.15,7.58,15.21,21.48,15.7c1.1,0.04,1.97,0.97,1.93,2.07
			C1192.3,1004.67,1191.41,1005.52,1190.34,1005.52z"/>
	</g>
</g>
</svg>
