<?xml version="1.0" encoding="utf-8"?>
<!-- Generator: Adobe Illustrator 27.0.0, SVG Export Plug-In . SVG Version: 6.00 Build 0)  -->
<svg version="1.1" xmlns="http://www.w3.org/2000/svg" xmlns:xlink="http://www.w3.org/1999/xlink" x="0px" y="0px"
	 viewBox="0 0 500 500" style="enable-background:new 0 0 500 500;" xml:space="preserve">
<style type="text/css">
	.st0{fill:#F5F5F5;}
	.st1{fill:#E0E0E0;}
	.st2{fill:#F0F0F0;}
	.st3{fill:#FAFAFA;}
	.st4{fill:#FFFFFF;}
	.st5{fill:#EBEBEB;}
	.st6{fill:none;stroke:#27DEBF;stroke-width:0.8828;stroke-miterlimit:10;}
	.st7{fill:none;stroke:#27DEBF;stroke-width:0.8828;stroke-linecap:round;stroke-linejoin:round;stroke-miterlimit:10;}
	.st8{fill:#263238;}
	.st9{fill:#37474F;}
	.st10{fill:#455A64;}
	.st11{fill:none;stroke:#FAFAFA;stroke-width:0.7403;stroke-miterlimit:10;}
	.st12{opacity:0.2;}
	.st13{fill:none;stroke:#FAFAFA;stroke-width:0.7403;stroke-linecap:round;stroke-linejoin:round;stroke-miterlimit:10;}
	.st14{opacity:0.1;}
	.st15{fill:#27DEBF;}
	.st16{opacity:0.5;}
	.st17{opacity:0.23;}
	.st18{opacity:0.38;}
	.st19{opacity:0.4;}
	.st20{opacity:0.3;}
	.st21{opacity:0.45;}
	.st22{opacity:0.7;}
	.st23{opacity:0.7;fill:#FFFFFF;}
	.st24{opacity:0.65;fill:#FFFFFF;}
	.st25{fill:#FFA8A7;}
	.st26{fill:#F28F8F;}
</style>
<g id="Floor">
	<ellipse id="Floor_7_" class="st0" cx="253.74" cy="341.76" rx="235.29" ry="135.85"/>
</g>
<g id="Shadow">
	<ellipse id="Shadow_29_" class="st1" cx="408.88" cy="369.84" rx="66.75" ry="38.54"/>
	<polygon id="Shadow_28_" class="st1" points="239.95,390.63 164.65,347.14 250.72,297.45 326.03,340.93 	"/>
	<polygon id="Shadow_27_" class="st1" points="34.91,377.18 132.03,433.25 213.49,386.23 116.37,330.16 	"/>
</g>
<g id="Shelf_1_">
	<g id="Shelf_2_">
		<g id="Shelf">
			<path class="st2" d="M178.52,113.63v-5.52h0c-0.02-0.52-0.38-1.06-1.1-1.47l-33.32-19.12c-1.41-0.81-3.71-0.81-5.12,0
				l-95.79,54.97c-0.72,0.41-1.09,0.95-1.1,1.47h0v5.52h0c0.02,0.52,0.38,1.06,1.1,1.47l33.32,19.12c1.41,0.81,3.71,0.81,5.12,0
				l95.79-54.97C178.13,114.69,178.5,114.15,178.52,113.63L178.52,113.63z"/>
			<path class="st3" d="M43.18,145.43l33.32,19.12c1.41,0.81,3.71,0.81,5.12,0l95.79-54.97c1.41-0.81,1.41-2.13,0-2.94l-33.32-19.12
				c-1.41-0.81-3.71-0.81-5.12,0l-95.79,54.97C41.77,143.3,41.77,144.62,43.18,145.43z"/>
			<path class="st1" d="M79.06,165.17v5.51c-0.92,0-1.85-0.21-2.56-0.61l-33.32-19.12c-0.72-0.41-1.09-0.95-1.1-1.47h-0.01v-5.51
				h0.01c0.01-0.21,0.09-0.42,0.21-0.62c-0.39,0.71-0.1,1.53,0.89,2.09l33.32,19.12C77.2,164.97,78.14,165.17,79.06,165.17z"/>
		</g>
		<g id="Book_2_">
			<g id="XMLID_866_">
				<polygon id="XMLID_871_" class="st1" points="96.96,118.53 125.19,134.62 171.83,107.86 143.6,91.76 				"/>
				<path id="XMLID_870_" class="st4" d="M125.51,133.4l-27.23-15.63c0.71-2.02,0.66-4.37-0.15-7.06l27.06,15.46
					C125.19,126.17,125.71,127.88,125.51,133.4z"/>
				<path id="XMLID_869_" class="st5" d="M123.8,123.97c1.45,0.83,2.62,2.85,2.62,4.5v5.26c0,1.66-1.17,2.33-2.62,1.5l-26.84-15.4
					l0-1.3l26.48,15.1c0.87,0.5,1.57,0.09,1.57-0.9l-0.02-4.88c0-1-0.7-2.21-1.57-2.7l-26.45-15.11v-1.48L123.8,123.97z"/>
				<path id="XMLID_868_" class="st3" d="M96.96,108.57L143.6,81.8l26.84,15.4c1.44,0.83,2.62,2.85,2.62,4.5l0,5.26
					c0,0.83-0.29,1.41-0.77,1.68l-46.64,26.76c0.48-0.27,0.77-0.86,0.77-1.68l0-5.27c0-1.66-1.17-3.68-2.62-4.5L96.96,108.57z"/>
				<path id="XMLID_867_" class="st2" d="M125.65,125.91c0.47,0.82,0.77,1.73,0.77,2.56l0,5.27c0,0.83-0.29,1.41-0.77,1.68
					l46.64-26.76c0.48-0.27,0.77-0.86,0.77-1.68l0-5.26c0-0.83-0.29-1.75-0.77-2.56L125.65,125.91z"/>
			</g>
		</g>
		<g id="Book_1_">
			<polygon id="XMLID_2995_" class="st5" points="68.26,78.48 67.99,82.04 99.51,98.95 100.22,96.87 			"/>
			<polygon id="XMLID_2993_" class="st4" points="99.8,97.7 69.27,80.07 63.96,83.14 95.09,101.35 			"/>
			<path id="XMLID_2991_" class="st1" d="M89.36,99.46l-3.02,35.38c0,0.72,0.51,1.6,1.13,1.96l17.71,10.25
				c0.26,0.15,0.58,0.24,0.92,0.26L95.09,102.5c-0.34-0.03-0.66-0.11-0.92-0.26l-1.28-0.74L89.36,99.46z"/>
			<path id="XMLID_2990_" class="st2" d="M96.44,102.25l3.16-2.7l2.32-1.99c0.24-0.38,0.51-0.66,0.36-0.97l10.86,44.49l0.02,0.03
				c0.15,0.31,0.19,1.01-0.23,1.26l-5.48,4.69c-0.37,0.21-0.87,0.3-1.35,0.26L95.09,102.5C95.57,102.54,96.07,102.46,96.44,102.25z"
				/>
			<path id="XMLID_2988_" class="st3" d="M101.92,96.25c0.63,0.36,0.47,0.76,0,1.31l-5.48,4.69c-0.63,0.36-1.64,0.36-2.26,0
				l-4.82-2.78c-0.63-0.36-0.74-0.88-0.25-1.16c0.49-0.28,1.39-0.22,2.02,0.14l3.8,2.19c0.21,0.12,0.55,0.12,0.75,0l4-3.48
				c0.21-0.12,0.21-0.32,0-0.44L68.26,78.48l1.51-0.87L101.92,96.25z"/>
		</g>
		<g id="Book">
			<g id="XMLID_777_">
				<polygon id="XMLID_856_" class="st5" points="59.16,80.19 89.19,97.53 89.19,154.67 59.16,137.32 				"/>
				<path id="XMLID_854_" class="st4" d="M88.22,98.48L59.16,81.8c-1.5,1.73-3.72,2.94-6.65,3.63l28.82,16.61
					C81.33,102.05,83.19,101.61,88.22,98.48z"/>
				<path id="XMLID_852_" class="st3" d="M78.54,101.95c1.54,0.89,4.04,0.89,5.59,0l4.89-2.81c1.54-0.89,1.54-2.32,0-3.21
					L60.37,79.49l-1.21,0.69l28.17,16.27c0.93,0.53,0.93,1.39,0,1.92l-4.55,2.58c-0.93,0.53-2.43,0.53-3.35,0L51.27,84.72
					l-1.37,0.79L78.54,101.95z"/>
				<path id="XMLID_849_" class="st5" d="M49.9,85.51v57.13l28.64,16.44c1.54,0.88,4.04,0.88,5.59,0l4.9-2.81
					c0.77-0.44,1.15-1.02,1.15-1.6V97.53c0,0.58-0.39,1.16-1.15,1.6l-4.9,2.81c-1.54,0.88-4.04,0.88-5.59,0L49.9,85.51z"/>
				<path id="XMLID_801_" class="st2" d="M81.33,102.61c1.01,0,2.02-0.22,2.79-0.66l4.9-2.81c0.77-0.44,1.15-1.02,1.15-1.6v57.13
					c0,0.58-0.39,1.16-1.15,1.6l-4.9,2.81c-0.77,0.44-1.78,0.66-2.79,0.66V102.61z"/>
			</g>
		</g>
	</g>
</g>
<g id="Plants_2_">
	<g id="Plants_5_">
		<path class="st6" d="M323.01,309.96c-0.68-11.98-5.99-35.98,1-58.11c3.55-11.25,11.72-23.17,23.87-26.53
			c4.3-1.19,9.62-1.03,11.73,3.87c0.36,0.82,0.55,1.71,0.62,2.61c0.26,3.72-1.43,7.02-3.31,10.06c-4.31,6.96-9.77,13.13-14.14,20.05
			c-2.31,3.67-4.29,7.52-6.01,11.49"/>
		<path class="st6" d="M322.72,317.79c0,1.44,0.38,3.24,0.06,4.61c-0.1,0.41-0.18,0.86,0,1.25c0.18,0.39,0.74,0.61,1.04,0.32
			c0.22-0.21,0.45-1.76,0.6-2.15c0.3-0.84,0.76-1.65,1.16-2.45c0.8-1.62,1.64-3.21,2.54-4.77c1.85-3.22,3.92-6.32,6.18-9.27
			c4.45-5.81,9.66-11.05,15.47-15.51c6.3-4.84,13.28-8.77,19.44-13.78c1.82-1.48,3.63-3.15,4.41-5.35c1.16-3.3-0.38-7.15-3.12-9.32
			c-2.74-2.17-6.43-2.86-9.91-2.6c-3.34,0.25-7.83,1.68-11.52,3.69c-7.52,4.1-12.69,10.44-16.82,17.63
			c-5.52,9.59-8.66,20.51-9.51,31.52C322.72,313.66,322.72,315.73,322.72,317.79z"/>
		<path class="st7" d="M365.65,264.75c-14.23,4.08-35.32,20.42-42.93,50.75"/>
		<path class="st7" d="M351.01,231.79c-7.68,6.11-26.03,25.48-28.34,56.79"/>
	</g>
</g>
<g id="Bookshelf_1_">
	<g id="Bookshelf_2_">
		<g>
			<path class="st8" d="M319.89,165.09l-55.6-32.06c-1.18-0.68-2.25-0.75-3.02-0.3c-0.72,0.41-3.28,1.9-4,2.31
				c-0.78,0.44-1.26,1.4-1.26,2.77l0,152.16c0,2.73,1.91,6.04,4.27,7.4l55.6,32.06c1.18,0.68,2.25,0.75,3.02,0.3
				c0.72-0.41,3.3-1.9,4.02-2.32c0.77-0.45,1.24-1.4,1.24-2.76V172.49C324.17,169.77,322.26,166.45,319.89,165.09z"/>
			<g>
				<path class="st8" d="M268.03,292.61l-4.01,2.31l0,12.66c0,0.68,0.48,1.51,1.07,1.85l1.87,1.08c0.59,0.34,1.55,0.34,2.14,0
					l1.87-1.08c0.59-0.34,1.25-1.14,1.47-1.78l3.61-10.41L268.03,292.61z"/>
				<path class="st9" d="M264.02,307.58c0,0.68,0.48,1.51,1.07,1.85l1.87,1.08c0.59,0.34,1.25,0.1,1.47-0.55l3.61-10.41l-8.02-4.63
					L264.02,307.58z"/>
			</g>
			<g>
				<path class="st8" d="M308.12,315.7l-4.01,2.31l0,12.66c0,0.68,0.48,1.51,1.07,1.85l1.87,1.08c0.59,0.34,1.55,0.34,2.14,0
					l1.87-1.08c0.59-0.34,1.25-1.14,1.47-1.78l3.61-10.41L308.12,315.7z"/>
				<path class="st9" d="M304.12,330.67c0,0.68,0.48,1.51,1.07,1.85l1.87,1.08c0.59,0.34,1.25,0.1,1.47-0.55l3.61-10.41l-8.02-4.63
					L304.12,330.67z"/>
			</g>
			<path class="st9" d="M260.56,135.43l55.6,32.06c2.36,1.36,4.27,4.68,4.27,7.4v152.16c0,1.36-0.48,2.32-1.25,2.77
				c-0.77,0.45-1.84,0.38-3.02-0.3l-55.6-32.06c-2.36-1.36-4.27-4.68-4.27-7.4l0-152.16c0-1.37,0.48-2.33,1.26-2.77
				C258.32,134.68,259.39,134.75,260.56,135.43z"/>
		</g>
		<g id="Bottom_1_">
			<polygon class="st10" points="179.82,343.48 239.96,378.2 324.16,329.59 320.15,327.28 260.01,292.55 179.82,338.85 			"/>
			<polygon class="st8" points="239.96,378.2 239.96,373.57 324.16,324.96 324.16,329.59 			"/>
		</g>
		<g>
			<path class="st11" d="M240.04,371.26c11.25-17.02,10.62-47.1,9.66-52.18c0,0,4.74,31.8,10.59,40.89"/>
			<path class="st11" d="M251.69,330.63c1.93,9.27,23.87,15.82,23.87,15.82"/>
			<path class="st11" d="M249.53,339.86c0.62-1.51,3.67-1.71,4.25,0.73c0,0,0.35-4.5,2.89-3.23"/>
			<path class="st11" d="M248.66,346.45c1.13-2.42,5.29-3.75,7.12,1.99c0,0,0.28-10.27,7.07-7.18"/>
			<path class="st11" d="M246.73,355.54c2.38-4.58,8.91-6.41,10.59-2.19c0.04-5.22,6.01-11.79,13.3-8.63"/>
			<path class="st11" d="M242.7,366.57c2.79-5.08,9.65-14.24,15.62-10.55"/>
		</g>
		<g>
			<polygon class="st8" points="316.14,278.66 316.14,283.29 239.96,327.28 179.82,292.55 179.82,287.92 256,243.94 			"/>
			<polygon class="st10" points="316.14,278.66 239.96,322.65 179.82,287.92 256,243.94 			"/>
		</g>
		<g>
			<polygon class="st8" points="316.14,227.74 316.14,232.36 239.96,276.35 179.82,241.62 179.82,236.99 256,193.01 			"/>
			<polygon class="st10" points="316.14,227.74 239.96,271.72 179.82,236.99 256,193.01 			"/>
		</g>
		<g id="Side_1_">
			<path class="st8" d="M239.7,211.33l-55.6-32.06c-1.18-0.68-2.25-0.75-3.02-0.3c-0.72,0.41-3.28,1.9-4,2.31
				c-0.78,0.44-1.26,1.4-1.26,2.77l0,152.16c0,2.73,1.91,6.04,4.27,7.4l55.6,32.06c1.18,0.68,2.25,0.75,3.02,0.3
				c0.72-0.41,3.3-1.9,4.02-2.32c0.77-0.45,1.24-1.4,1.24-2.76V218.74C243.98,216.01,242.07,212.7,239.7,211.33z"/>
			<polygon class="st12" points="239.96,234.68 243.98,232.37 243.98,218.47 239.95,220.79 			"/>
			<polygon class="st12" points="320.16,188.39 324.18,186.08 324.18,172.18 320.15,174.5 			"/>
			<g>
				<path class="st8" d="M187.84,338.85l-4.01,2.31l0,12.66c0,0.68,0.48,1.51,1.07,1.85l1.87,1.08c0.59,0.34,1.55,0.34,2.14,0
					l1.87-1.08c0.59-0.34,1.25-1.14,1.47-1.78l3.61-10.41L187.84,338.85z"/>
				<path class="st9" d="M183.83,353.82c0,0.68,0.48,1.51,1.07,1.85l1.87,1.08c0.59,0.34,1.25,0.1,1.47-0.55l3.61-10.41l-8.02-4.63
					L183.83,353.82z"/>
			</g>
			<g>
				<path class="st8" d="M227.93,361.95l-4.01,2.31l0,12.66c0,0.68,0.48,1.51,1.07,1.85l1.87,1.08c0.59,0.34,1.55,0.34,2.14,0
					l1.87-1.08c0.59-0.34,1.25-1.14,1.47-1.78l3.61-10.41L227.93,361.95z"/>
				<path class="st9" d="M223.93,376.92c0,0.68,0.48,1.51,1.07,1.85l1.87,1.08c0.59,0.34,1.25,0.1,1.47-0.55l3.61-10.41l-8.02-4.63
					L223.93,376.92z"/>
			</g>
			<path class="st9" d="M180.08,181.6l55.6,32.06c2.36,1.36,4.27,4.68,4.27,7.4v152.16c0,1.36,0,4.98,0,4.98s-3.09-1.83-4.28-2.51
				l-55.6-32.06c-2.36-1.36-4.27-4.68-4.27-7.4l0-152.16c0-1.37,0.48-2.33,1.26-2.77C177.85,180.85,178.91,180.92,180.08,181.6z"/>
			<path class="st12" d="M235.69,213.65l-55.6-32.06c-1.17-0.68-2.24-0.75-3.01-0.31c-0.78,0.44-1.26,1.4-1.26,2.77l0,13.58
				l64.15,37.04v-13.63C239.96,218.33,238.05,215.02,235.69,213.65z"/>
		</g>
		<g>
			<polyline class="st13" points="268.03,206.9 312.13,181.44 312.13,227.74 			"/>
			<polyline class="st13" points="304.11,216.16 312.13,181.44 296.09,209.22 			"/>
			<line class="st13" x1="312.13" y1="181.44" x2="288.08" y2="204.59"/>
			<path class="st13" d="M312.13,220.35c0.01-6.49-7.4-6.85-7.4-6.85c0.45-1.97-0.04-5.12-2.43-7.17c-2.39-2.04-4.01-0.92-4.49-0.09
				c0,0,0.5-5.97-4.66-6.54c0,0,3.42-6.31,0-7.31"/>
			<path class="st13" d="M312.13,210.37c-0.26-3.32-2.8-7.55-5.41-5.51c0,0,0.69-7.25-4.48-6.3c0,0,2.42-6.72-2.66-5.06
				c0,0,3.66-4.63,0.82-5.3"/>
		</g>
		<g id="Top_1_">
			<path class="st9" d="M333.67,165.24c0.01-0.89-0.58-1.79-1.76-2.47l-59.61-34.42c-2.36-1.36-6.19-1.36-8.55,0l-91.69,52.94
				c-1.18,0.68-1.77,1.58-1.76,2.47c0.01,0.83,0.01,3.8,0,4.63c-0.01,0.89,0.58,1.79,1.76,2.47l59.61,34.42
				c2.36,1.36,6.19,1.36,8.55,0l91.69-52.94c1.18-0.68,1.77-1.58,1.76-2.47C333.67,169.04,333.67,166.07,333.67,165.24z"/>
			<path class="st10" d="M231.68,220.64l-59.61-34.42c-2.36-1.36-2.36-3.57,0-4.94l91.69-52.94c2.36-1.36,6.19-1.36,8.55,0
				l59.61,34.42c2.36,1.36,2.36,3.57,0,4.94l-91.69,52.94C237.87,222.01,234.04,222.01,231.68,220.64z"/>
		</g>
		<g id="Shadows_1_">
			<polygon class="st14" points="320.15,179.12 292.09,213.85 243.98,241.63 243.97,223.11 			"/>
			<polygon class="st14" points="316.14,232.36 292.09,264.77 243.98,292.56 243.98,274.03 			"/>
			<polygon class="st14" points="316.14,283.29 292.09,315.7 243.98,343.49 243.98,324.96 			"/>
		</g>
	</g>
</g>
<g id="Box_1_">
	<g id="Box_2_">
		<g id="XMLID_820_">
			<polygon id="XMLID_848_" class="st15" points="205.78,384.44 132.02,427.03 48.96,378.97 122.72,336.38 			"/>
			<polygon id="XMLID_846_" class="st16" points="205.78,384.44 132.02,427.03 48.96,378.97 122.72,336.38 			"/>
			<polygon id="XMLID_845_" class="st15" points="122.72,278.65 122.72,336.38 48.96,378.97 48.96,321.24 			"/>
			<polygon id="XMLID_844_" class="st17" points="122.72,278.65 122.72,336.38 48.96,378.97 48.96,321.24 			"/>
			<polygon id="XMLID_843_" class="st15" points="132.02,369.3 132.02,427.03 48.96,378.97 48.96,321.24 			"/>
			<polygon id="XMLID_842_" class="st18" points="132.02,369.3 132.02,427.03 48.96,378.97 48.96,321.24 			"/>
			<polygon id="XMLID_841_" class="st15" points="205.78,326.71 205.78,384.44 122.72,336.38 122.72,278.65 			"/>
			<polygon id="XMLID_840_" class="st19" points="205.78,326.71 205.78,384.44 122.72,336.38 122.72,278.65 			"/>
			<polygon id="XMLID_839_" class="st15" points="205.78,384.44 205.78,326.71 132.02,369.3 132.02,427.03 			"/>
			<polygon id="XMLID_838_" class="st17" points="205.78,384.44 205.78,326.71 132.02,369.3 132.02,427.03 			"/>
			<polygon id="XMLID_830_" class="st15" points="122.72,278.65 122.82,246.69 205.68,294.81 205.78,326.71 			"/>
			<polygon id="XMLID_829_" class="st12" points="122.72,278.65 122.82,246.69 205.68,294.81 205.78,326.71 			"/>
			<polygon id="XMLID_828_" class="st15" points="132.02,369.3 138.94,341.34 212.03,299.14 205.78,326.71 			"/>
			<polygon id="XMLID_827_" class="st20" points="132.02,369.3 138.94,341.34 212.03,299.14 205.78,326.71 			"/>
			<polygon id="XMLID_825_" class="st15" points="48.96,321.24 40.16,292.24 113.92,249.66 122.72,278.65 			"/>
			<polygon id="XMLID_824_" class="st14" points="48.96,321.24 40.16,292.24 113.92,249.66 122.72,278.65 			"/>
			<polygon id="XMLID_823_" class="st15" points="48.96,321.24 31.6,297.27 114.67,345.33 132.02,369.3 			"/>
			<polygon id="XMLID_821_" class="st21" points="48.96,321.24 31.6,297.27 114.67,345.33 132.02,369.3 			"/>
		</g>
		<g id="XMLID_809_" class="st22">
			<g id="XMLID_815_">
				<g id="XMLID_818_">
					<path id="XMLID_819_" class="st4" d="M153.74,409.86c-0.25,0-0.45-0.2-0.45-0.45v-10.16c0-0.25,0.2-0.45,0.45-0.45
						c0.25,0,0.45,0.2,0.45,0.45v10.16C154.19,409.65,153.99,409.86,153.74,409.86z"/>
				</g>
				<g id="XMLID_816_">
					<path id="XMLID_817_" class="st4" d="M152.41,402.77c-0.06,0-0.12-0.01-0.18-0.04c-0.23-0.1-0.34-0.37-0.24-0.6l1.61-3.73
						l1.8,2.08c0.16,0.19,0.14,0.48-0.05,0.64c-0.19,0.16-0.48,0.14-0.64-0.05l-0.86-0.99l-1.04,2.4
						C152.75,402.66,152.59,402.77,152.41,402.77z"/>
				</g>
			</g>
			<g id="XMLID_810_">
				<g id="XMLID_813_">
					<path id="XMLID_814_" class="st4" d="M157.93,407.47c-0.25,0-0.45-0.2-0.45-0.45v-10.16c0-0.25,0.2-0.45,0.45-0.45
						s0.45,0.2,0.45,0.45v10.16C158.38,407.26,158.18,407.47,157.93,407.47z"/>
				</g>
				<g id="XMLID_811_">
					<path id="XMLID_812_" class="st4" d="M156.6,400.38c-0.06,0-0.12-0.01-0.18-0.04c-0.23-0.1-0.34-0.37-0.24-0.6l1.61-3.72
						l1.8,2.08c0.16,0.19,0.14,0.48-0.05,0.64c-0.19,0.16-0.47,0.14-0.64-0.04l-0.86-0.99l-1.04,2.4
						C156.95,400.27,156.78,400.38,156.6,400.38z"/>
				</g>
			</g>
		</g>
		<g id="XMLID_802_" class="st22">
			<g id="XMLID_807_">
				<path id="XMLID_808_" class="st4" d="M141.65,416.75c-0.18,0-0.35-0.04-0.49-0.13c-0.35-0.2-0.54-0.59-0.54-1.09v-1.24
					c0-0.25,0.2-0.45,0.45-0.45c0.25,0,0.45,0.2,0.45,0.45v1.24c0,0.19,0.05,0.28,0.09,0.3c0.03,0.02,0.14,0.01,0.3-0.08
					c0.4-0.23,0.84-1.13,0.84-2.05v-5.2c0-0.25,0.2-0.45,0.45-0.45c0.25,0,0.45,0.2,0.45,0.45v5.2c0,1.18-0.55,2.4-1.29,2.83
					C142.12,416.68,141.88,416.75,141.65,416.75z"/>
			</g>
			<g id="XMLID_803_">
				<path id="XMLID_804_" class="st4" d="M136.88,412.56v-0.78c0-3.69,2.6-8.2,5.8-10.04c1.64-0.94,3.2-1.08,4.39-0.39
					c1.2,0.69,1.86,2.11,1.86,4v0.26L136.88,412.56z M145.39,401.82c-0.68,0-1.45,0.24-2.26,0.7c-2.72,1.57-4.97,5.22-5.3,8.45
					l10.19-5.88c-0.05-1.42-0.55-2.46-1.4-2.96C146.25,401.92,145.84,401.82,145.39,401.82z"/>
			</g>
		</g>
		<polygon class="st23" points="31.6,297.27 114.67,345.33 132.02,369.3 113.75,346.18 		"/>
		<polygon class="st23" points="205.78,326.71 132.02,369.3 132.02,427.03 133.4,370.46 		"/>
	</g>
</g>
<g id="Moth_1_">
	<g id="Moth_2_">
		<g>
			<path class="st1" d="M97.54,303.62c7.61-1.1,14.56-5.98,18.97-12.17c2.05-2.88,3.61-6.11,4.5-9.54c0.81-3.15,1.27-6.68,0.46-9.88
				c-1.38-5.48-6.46-8.73-11.83-9.42c-2.71-0.35-5.51-0.09-8.1,0.8c-2.75,0.95-5,2.68-6.7,5.05c-0.88,1.23-1.8,2.75-1.85,4.31
				c-0.04,1.36,0.94,2.33,2.24,2.55c1.57,0.27,3.23-0.4,4.58-1.16c1.66-0.93,3.08-2.15,4.27-3.64c2.42-3.04,4.49-6.75,5.54-10.5
				c0.91-3.25,0.71-6.79,0.02-10.06c-0.71-3.34-2.09-6.75-4.54-9.2c-2.56-2.57-6.21-3.83-9.73-4.3c-3.57-0.47-7.33-0.15-10.75,1.04
				c-1.47,0.51-2.99,1.19-4.13,2.25c-0.86,0.8-1.84,2.13-1.49,3.42c0.39,1.44,2.25,1.88,3.54,1.71c1.88-0.24,3.68-1.41,5.01-2.71
				c1.47-1.43,2.79-3.18,3.77-4.99c0.72-1.33,1.16-2.81,1.13-4.34c-0.13-6.35-7.14-10.45-12.63-11.6c-1.49-0.31-2.99-0.41-4.51-0.3
				c-0.51,0.04-0.2,0.84,0.21,0.81c2.88-0.22,5.86,0.65,8.41,1.93c2.48,1.24,4.85,3.07,6.21,5.53c1.37,2.48,1.22,5.33-0.23,7.74
				c-0.99,1.65-2.19,3.32-3.62,4.62c-1.19,1.08-2.98,2.33-4.68,2.21c-0.5-0.04-1.13-0.27-1.32-0.83c-0.22-0.65,0.27-1.42,0.6-1.82
				c0.81-1.01,2.05-1.61,3.23-2.14c2.93-1.3,6.31-1.72,9.49-1.56c3.27,0.17,6.68,1.01,9.34,3.01c2.5,1.87,3.97,4.78,4.86,7.71
				c0.92,3.03,1.3,6.35,0.88,9.5c-0.44,3.21-1.97,6.28-3.63,9.02c-1.85,3.05-4.17,5.97-7.65,7.2c-0.86,0.3-2.66,0.76-3-0.5
				c-0.34-1.24,0.64-2.78,1.28-3.75c1.44-2.2,3.38-3.91,5.82-4.91c2.29-0.94,4.83-1.29,7.29-1.1c4.71,0.36,9.49,2.82,11.13,7.5
				c0.96,2.74,0.77,5.79,0.25,8.6c-0.57,3.11-1.72,6.11-3.31,8.84c-3.4,5.86-8.71,10.26-14.89,12.94c-1.48,0.64-3.02,1.18-4.55,1.69
				C97.29,303.25,97.36,303.65,97.54,303.62L97.54,303.62z"/>
		</g>
		<g>
			<path class="st15" d="M65.75,216.8c-4.05-0.28-9.51,2.86-7.55,5.16c1.96,2.3,7.17-1.42,7.17-1.42s-0.49,4.65,1.21,5.18
				c1.7,0.53,3.95-3.9,2.3-6.74c0,0,2.56,1.13,4.97-0.65s-0.15-3.46-3.56-3.16c0,0,2.44-7.98-2.49-6.47
				C65.36,209.45,64.49,212.34,65.75,216.8z"/>
			<path class="st24" d="M65.75,216.8c-4.05-0.28-9.51,2.86-7.55,5.16c1.96,2.3,7.17-1.42,7.17-1.42s-0.49,4.65,1.21,5.18
				c1.7,0.53,3.95-3.9,2.3-6.74c0,0,2.56,1.13,4.97-0.65s-0.15-3.46-3.56-3.16c0,0,2.44-7.98-2.49-6.47
				C65.36,209.45,64.49,212.34,65.75,216.8z"/>
			<path class="st10" d="M69.47,218.5c-0.22-0.22-0.46-0.42-0.7-0.61c-0.35-0.27-0.72-0.53-1.07-0.79c-0.34-0.25-0.7-0.47-1.07-0.67
				c-0.21-0.12-0.43-0.23-0.66-0.32c-0.35-0.15-0.65-0.21-1.02-0.16c-0.35,0.04-0.67,0.45-0.4,0.78c0.31,0.4,0.7,0.48,1.05,0.66
				c0.18,0.09,0.36,0.19,0.54,0.3c0.37,0.22,0.7,0.47,1.04,0.72c0.34,0.25,0.69,0.49,1.03,0.74c0.53,0.41,1.07,0.81,1.71,1.04
				c0.06,0.02,0.13,0.01,0.18-0.03C70.51,219.74,69.76,218.79,69.47,218.5z"/>
		</g>
	</g>
</g>
<g id="Character">
	<g id="Character_7_">
		<path class="st25" d="M388.28,106.79c-4.38,5.88-10.22,38.21-12.43,48.57c-10.63-0.31-24.85-0.8-30.24-1.37
			c-5.97-0.63-18.81-1.85-25.09-1.03c-15.61,2.04-14.99,12.26-14.63,14.93c0.42,3.07,2.6,4.46,10.96,2.56
			c1.87-0.43,3.8-0.64,5.72-0.67c0.82-0.02,2.52-0.4,3.16,0.29c0.96,1.04-1.88,2.67-2.61,3.14c-1.11,0.72-2.27,1.63-2.5,2.93
			c-0.09,0.48,0,1.06,0.42,1.32c0.36,0.24,0.84,0.15,1.26,0.05c3.83-0.9,7.54-2.32,11-4.19c1.34-0.73,2.66-1.53,4.12-1.99
			c2.17-0.7,4.4-0.28,6.59-0.28c4.69,0,29.47,2.45,40.49,3.57c7.63,0.78,8.44-6.76,11.07-14.38c3.27-9.48,10.92-59.25,10.92-59.25
			C398.79,99.88,393.48,99.81,388.28,106.79z"/>
		<path class="st9" d="M406.62,100.22c-3.69-0.68-11.99-1.71-16.51,3.34c-4.53,5.05-5.59,10.36-7.58,17.99
			c-1.99,7.64-5.49,21.36-5.49,21.36s5.83,8.37,24.08,6L406.62,100.22z"/>
		<g id="XMLID_780_">
			<polygon id="XMLID_800_" class="st25" points="452.45,364.64 439.62,364.65 435.93,336.8 452.12,336.16 			"/>
			<path id="XMLID_799_" class="st25" d="M409.85,350.73c-2.19,3.78-9.19,3.47-15.04,2.13l-0.67-27.38l17.16-0.67L409.85,350.73z"/>
			<path id="XMLID_798_" class="st15" d="M451.58,188.66c0.46,11.85-1.1,81.92-1.1,81.92c0.42,3.4,3.94,9.33,4.68,21.6
				c1.07,17.79-2.57,55.85-2.57,55.85s-7.35,3.84-15.27,0.9c0,0-8.06-55.04-10.98-72.57c-2.54-15.3-5.81-56.34-5.81-56.34
				l-6.33,52.6c0,0,1.77,8.32,1.43,18.89c-0.26,8.17-4.92,47.89-4.92,47.89s-7.82,2.93-16.42,0.4c0,0-3.83-61.64-4.26-69.12
				c-0.5-8.52-0.16-83.73-0.16-83.73L451.58,188.66z"/>
			<path id="XMLID_796_" class="st12" d="M420.54,220.01c0,0-11.21-3.18-18.85-10c0,0,3.58,6.11,13.72,11.53l-0.58,45.91
				L420.54,220.01z"/>
			<g>
				<path id="XMLID_795_" class="st8" d="M424.95,387.87c-0.42,0.42-0.18,3.18,0.33,3.91c0.54,0.78,3.56,3.16,8.87,3.33
					c5.07,0.16,9.55-0.69,12.45-2.7c2.89-2,4.25-4.13,4.41-7.02c0.17-2.89-0.26-5.65,1.02-7.92c1.19-2.1,3.12-4.48,3.51-5.61
					c0.86-2.45-0.2-5.86-0.2-5.86L424.95,387.87z"/>
				<path id="XMLID_794_" class="st10" d="M437.8,362.2c0.01,1.12-0.15,2.15-0.46,3.23c-0.65,2.26-1.68,4.41-2.85,6.45
					c-0.6,1.05-1.24,2.09-1.99,3.06c-1.46,1.88-3.3,3.45-4.85,5.25c-1.55,1.81-2.84,3.98-2.88,6.33c-0.06,3.97,4.3,5.15,7.63,5.61
					c3.56,0.49,7.33,0.15,10.74-0.96c3.8-1.24,6.45-4.33,6.94-8.18c0.14-1.11,0.03-2.23,0.11-3.34c0.2-2.54,1.42-4.9,2.81-7.06
					c0.81-1.25,1.7-2.48,2.22-3.87c0.94-2.49,0-5.22-0.76-7.64c-0.65-2.09-1.39-4.45-2.12-4.22c0,1.11,0.04,1.21-0.71,1.98
					c-0.96,0.98-0.94,2.39-1.96,3.26c0.44-1.3,0.45-1.85,0.63-2.85c0.05-0.3-0.05-0.89-0.27-1.11c-0.29-0.29-0.77-0.46-1.24-0.6
					c-1.58-0.47-3.21-0.77-4.86-0.91c-1.5-0.13-3.23-0.24-4.7,0.15c-0.45,0.12-0.89,0.36-1.15,0.73c-0.28,0.39-0.32,0.73-0.37,1.37
					C437.68,359.51,437.79,361.14,437.8,362.2z"/>
				<path id="XMLID_793_" class="st0" d="M433.99,372.73c1.43-1.16,4.74-1.31,6.56-1.19c2.27,0.15,4.14,0.88,5.21,1.6
					c0.47,0.32,1.12,0.24,1.51-0.18l0,0c0.47-0.5,0.39-1.29-0.18-1.68c-1.14-0.77-3.18-1.83-5.87-1.92
					c-4.46-0.14-5.74,0.67-5.74,0.67S433.51,371.43,433.99,372.73z"/>
				<path id="XMLID_789_" class="st0" d="M430.76,376.93c1.81-1.17,5.46-1.15,7.27-1.03c2.27,0.15,4,0.98,5.07,1.71
					c0.47,0.32,1.12,0.24,1.51-0.18l0,0c0.47-0.5,0.39-1.29-0.18-1.68c-1.14-0.77-3.31-2-6-2.08c-4.46-0.14-5.59,0.82-5.59,0.82
					S431,375.27,430.76,376.93z"/>
				<path id="XMLID_786_" class="st0" d="M442.83,365.05c-3.09-0.2-4.38,0.2-5.58,0.69c-0.77,0.47-1.23,1.73-0.72,2.02
					c0.97-0.59,2.74-0.89,4.93-0.88c1.47,0.01,3.34,0.53,4.86,1.13c0.39,0.15,0.85,0.37,1.25,0.58c0.54,0.27,1.21,0.04,1.45-0.51
					l0,0c0.2-0.47,0.02-1.01-0.44-1.26C447.49,366.21,445.32,365.2,442.83,365.05z"/>
			</g>
			<g>
				<path id="XMLID_785_" class="st8" d="M365.53,367.81c-0.46,0.86-0.42,2.5,0.03,3.57c0.45,1.07,5.74,4.39,13.1,4.24
					c7.36-0.15,12.54-2.86,15.43-4.58c2.89-1.72,5.81-1.93,9.46-1.96c3.64-0.04,8.5-1.62,9.38-3.28c0.88-1.66,0.1-4.63,0.1-4.63
					L365.53,367.81z"/>
				<path id="XMLID_784_" class="st10" d="M396.23,346.31c-0.19-0.05-0.38-0.1-0.57-0.15c-0.32-0.08-0.64-0.16-0.97-0.1
					c-0.36,0.07-0.67,0.31-0.93,0.57c-0.83,0.82-1.36,1.89-2.01,2.85c-1.66,2.44-4.98,4.36-8.6,6.09c-2.46,1.17-4.85,2.06-7.38,3.06
					c-2.58,1.02-5.96,1.55-8,2.79c-2.97,1.8-3.57,6.66-0.39,8.74c2.75,1.8,10.11,3.95,18.03,2.11c4.31-1,9.25-5.32,14.85-5.5
					c3.56-0.11,10.33-0.79,12.74-3.38c0.9-1.16-0.05-5-0.82-8.32c-0.84-3.62-0.46-9.04-2.07-8.98l-0.1,1.81
					c-0.15,0.54-1.43,1.07-1.82,1.49c-0.48,0.51-0.96,1.01-1.44,1.52c-0.63,0.66-1.28,1.35-2.12,1.72c-1.44,0.64-3.1,0.26-4.63-0.13
					c-0.07-0.02,0.77-2.78,0.85-3.05c0.07-0.22,0.14-0.45,0.08-0.67c-0.06-0.22-0.25-0.39-0.43-0.53
					C399.18,347.23,397.79,346.73,396.23,346.31z"/>
				<path id="XMLID_783_" class="st0" d="M386.55,353.8c0,0,0.57-1.34,2.71-1.63c1.63-0.22,4.43,1.1,6.13,2.65
					c0.7,0.63,0.55,1.76-0.3,2.18l0,0c-0.5,0.25-1.1,0.15-1.5-0.24C392.47,355.69,389.95,353.73,386.55,353.8z"/>
				<path id="XMLID_782_" class="st0" d="M381.41,356.37c0,0,1.12-1.58,3.18-1.45c0,0,4.21,0.32,6.71,2.88
					c0.64,0.65,0.54,1.71-0.28,2.11v0c-0.49,0.24-1.06,0.14-1.45-0.24C388.45,358.56,386.19,356.24,381.41,356.37z"/>
				<path id="XMLID_781_" class="st0" d="M375.76,358.63c0,0,1.23-1.42,3.3-1.29c0,0,3.92,0.33,6.42,2.89
					c0.64,0.65,0.54,1.71-0.28,2.11l0,0c-0.49,0.24-1.06,0.14-1.45-0.24C382.62,361,380.55,358.5,375.76,358.63z"/>
			</g>
		</g>
		<g id="XMLID_778_">
			<path id="XMLID_779_" class="st10" d="M428.01,100.44c4.72,0.54,10.31,0.83,14.81,1.42c5.81,0.76,10.34,6.77,11.76,16.07
				c1.56,10.25-4.97,39.6-4.97,39.6l2.09,34.62c-8.52,6.27-44.75,9.56-62.82-3.48c0,0,0.42-58.92,1.83-67.96
				c1.94-12.44,4.98-20.18,19.01-21.07L428.01,100.44z"/>
		</g>
		<g id="XMLID_771_">
			<path id="XMLID_770_" class="st25" d="M460.27,175.44c-1.53,2.56-3.07,5.12-4.65,7.65c-0.58,0.94-1.17,1.87-1.79,2.79
				c-0.22,0.33-0.84,0.99-1.15,1.21c-0.76,0.53-2.34,0.19-3.26,0.22c-4.52,0.15-9.03,0.48-13.52,0.99
				c-0.74,0.08-1.59,0.23-1.99,0.86c-0.46,0.72-0.06,1.74,0.64,2.24s1.58,0.62,2.43,0.72c1.3,0.16,2.6,0.31,3.9,0.47
				c0.55,0.07,1.13,0.14,1.56,0.49c1.42,1.15-1.29,2.53-2.1,3.09c-1.63,1.12-3.37,2.11-5.19,2.87c-8.13,3.43-9.12,5.91-7.62,8.72
				c1.3,2.45,6.92,11.36,21.2,3.69c5.75-3.09,14.51-12.85,18.49-17.57c5.75-6.81,15.45-22.02,15.45-22.02
				c5.52-7.58,6.24-10.69,6.36-13.85c0.12-3.16-17.01-27.38-22.82-35.88s-8.59-18.86-23.4-20.28c0,0-5.63,17.88,3.7,29.45
				l21.57,30.09C468.09,161.4,462.37,171.93,460.27,175.44z"/>
			<path id="XMLID_767_" class="st9" d="M475.92,133.71c-2.77-4-5.66-8.12-8.45-12.2c-11.74-17.15-10.76-20.29-27.7-20.53
				c-1.5,2.31-2.39,12.2-0.13,22.14c1.9,8.35,8.97,14.24,8.97,14.24l8.49,11.49c0,0,5.19-0.16,11.41-4.72
				S475.92,133.71,475.92,133.71z"/>
		</g>
		<g id="XMLID_605_">
			<g id="XMLID_756_">
				<path class="st8" d="M439.17,55.37c-3.2-4.47-7.85-3.7-7.85-3.7l-0.87,21.47l-1.42,7.93l0.25,8.82c0,0,2.39-0.12,3.83-2.91
					c1.31-2.54,4.96-14.82,4.96-14.82l-0.02,0.02C441.41,62.09,440.71,57.53,439.17,55.37z"/>
				<path id="XMLID_765_" class="st25" d="M429.44,73.24c0.42-1.34,0.83-2.1,2.07-3.42c1.23-1.31,6.13-2.75,8.37,1.41
					c2.28,4.24-1.53,9.65-4.43,11.33c-3.72,2.16-5.89-0.78-5.89-0.78l0.09,19.77l0,0c-1.73,3.98-9.54,7.56-14.18,6.97
					c-3.7-0.47-7.12-3.39-3.81-7.63l-0.26-5.63c0,0-4.95,1-7.4,0.75c-4.08-0.42-6.78-3.49-8.23-7.81
					c-2.32-6.94-3.35-12.58-2.36-26.5c1.08-15.26,18.71-16.29,28.53-10.77C431.75,56.46,429.44,73.24,429.44,73.24z"/>
				<path id="XMLID_764_" class="st8" d="M387.78,45.89c-0.45-3.33,0.71-6.9,4.19-8.08c2.63-0.89,5.33-0.84,7.74,1.29
					c0.86-2.35,3.13-4.11,5.62-4.37c2.49-0.26,5.07,0.99,6.41,3.11c1.05-1.48,2.29-2.38,4.02-2.79c2.02-0.49,4.51,0.02,5.94,1.08
					c1.43,1.05,3.09,3.05,2.67,5.53c2.81-1.12,5.74-0.19,7.83,2.3c1.25,1.49,1.93,3.42,1.99,5.36c0.03,0.94-0.03,2.1-0.42,2.97
					c-0.41,0.91-1.23,1.51-1.46,2.54c-0.22,0.97-0.67,1.86-0.54,2.84c0.23,1.68,0.6,3.35,0.82,5.04c0.21,1.63,0.4,3.28,0.41,4.92
					c0,0.79-0.56,1.34-1.21,1.93c-1.07,0.95-1.31,1.44-2.1,3.05c-0.35,0.72-0.69,2.5-1.39,2.98c-2.13,1.49-2.36-3.34-2.47-4.26
					c-0.1-0.92-0.13-3.34,0.04-6.41c-0.68-0.04-3.5-0.09-5.67-2.61c-0.71-0.82-1.26-2.07-1.41-3.14c-0.09-0.68-0.2-1.28-0.17-1.96
					c-1.38,2.3-4.62,3.24-6.92,3.03c-3.86-0.35-5.19-2-5.81-3.21c-0.28,1.08-0.75,2.46-1.53,3.26c-0.99,1.01-2.3,1.62-3.46,2.02
					c-2.16,0.73-4.73-0.19-6.32-1.82c-1.57,2.25-5.55,1.25-6.43,0.61c-2.02-1.45-2.65-3.17-2.87-5.65
					c-0.22-2.48,0.78-5.28,3.51-6.26C388.29,48.2,387.93,47.06,387.78,45.89z"/>
				<path id="XMLID_759_" class="st26" d="M411.38,95.26c0,0,8.94-2.27,12.02-4.1c2.06-1.23,3.7-3.26,4.15-4.54
					c0,0-0.46,2.71-2.23,5.22c-2.16,3.07-13.82,5.82-13.82,5.82L411.38,95.26z"/>
			</g>
			<g id="XMLID_691_">
				<path id="XMLID_753_" class="st8" d="M411.88,72.58c0.06,1.11,0.97,1.97,2.04,1.91c1.07-0.06,1.89-1,1.84-2.11
					c-0.06-1.11-0.97-1.97-2.04-1.91C412.65,70.52,411.82,71.47,411.88,72.58z"/>
				<path id="XMLID_749_" class="st26" d="M408.89,87.05c0.07,1.43,1.25,2.53,2.62,2.46c1.38-0.07,2.44-1.29,2.37-2.72
					c-0.07-1.43-1.24-2.53-2.62-2.46C409.88,84.4,408.82,85.62,408.89,87.05z"/>
				<path id="XMLID_750_" class="st8" d="M413.49,65.92l4.12,2.01c0.53-1.18,0.04-2.59-1.09-3.15
					C415.38,64.23,414.02,64.74,413.49,65.92z"/>
				<path id="XMLID_748_" class="st8" d="M395.57,67.65l3.52-3c-0.8-1.01-2.23-1.16-3.2-0.33
					C394.91,65.15,394.77,66.64,395.57,67.65z"/>
				<path id="XMLID_745_" class="st8" d="M396.62,72.19c0.05,1.08,0.94,1.9,1.97,1.85c1.03-0.05,1.83-0.97,1.78-2.05
					c-0.05-1.08-0.94-1.9-1.97-1.85C397.36,70.2,396.57,71.12,396.62,72.19z"/>
				<polygon id="XMLID_724_" class="st26" points="405.9,69.97 405.84,81.8 399.58,80 				"/>
			</g>
		</g>
		<g>
			<g>
				<path class="st1" d="M390.19,86.52c0.11-0.03,0.22-0.09,0.29-0.2c0.14-0.21,0.08-0.5-0.13-0.64l-5.43-3.62
					c-0.21-0.14-0.5-0.08-0.64,0.13c-0.14,0.21-0.08,0.5,0.13,0.64l5.43,3.62C389.94,86.53,390.07,86.55,390.19,86.52z"/>
			</g>
			<g>
				<path class="st1" d="M389.61,88.86c0.17-0.04,0.31-0.17,0.35-0.35c0.06-0.25-0.1-0.5-0.35-0.56l-6.36-1.48
					c-0.25-0.06-0.5,0.1-0.56,0.35c-0.06,0.25,0.1,0.5,0.35,0.56l6.36,1.48C389.47,88.87,389.54,88.87,389.61,88.86z"/>
			</g>
			<g>
				<path class="st1" d="M383.7,93.09c0.02,0,0.04-0.01,0.06-0.02l6.13-2.24c0.24-0.09,0.37-0.35,0.28-0.6
					c-0.09-0.24-0.37-0.36-0.6-0.28l-6.13,2.24c-0.24,0.09-0.37,0.35-0.28,0.6C383.25,93.02,383.48,93.14,383.7,93.09z"/>
			</g>
		</g>
		<g>
			<g>
				<path class="st1" d="M331.84,141.06c0.16,0.32,0.44,0.59,0.81,0.72c0.75,0.27,1.58-0.12,1.85-0.87l4.57-11.25
					c0.27-0.75-0.12-1.58-0.87-1.85c-0.75-0.27-1.58,0.12-1.85,0.87l-4.57,11.25C331.63,140.31,331.67,140.72,331.84,141.06z"/>
			</g>
			<g>
				<path class="st1" d="M324.33,141.04c0.24,0.48,0.74,0.81,1.32,0.8c0.8-0.01,1.44-0.67,1.43-1.47l-0.14-14.03
					c-0.01-0.79-0.67-1.44-1.47-1.43c-0.8,0.01-1.44,0.67-1.43,1.47l0.14,14.03C324.18,140.64,324.24,140.85,324.33,141.04z"/>
			</g>
			<g>
				<path class="st1" d="M311.6,133.21c0.03,0.06,0.06,0.11,0.1,0.17l6.89,10c0.45,0.66,1.35,0.84,2.01,0.39
					c0.66-0.45,0.81-1.4,0.39-2.01l-6.89-10c-0.45-0.66-1.35-0.84-2.01-0.39C311.48,131.78,311.28,132.58,311.6,133.21z"/>
			</g>
		</g>
	</g>
</g>
</svg>
