<?xml version="1.0" standalone="no"?>
<!DOCTYPE svg PUBLIC "-//W3C//DTD SVG 20010904//EN"
 "http://www.w3.org/TR/2001/REC-SVG-20010904/DTD/svg10.dtd">
<svg version="1.0" xmlns="http://www.w3.org/2000/svg"
 width="500.000000pt" height="500.000000pt" viewBox="0 0 500.000000 500.000000"
 preserveAspectRatio="xMidYMid meet">

<g transform="translate(0.000000,500.000000) scale(0.100000,-0.100000)"
fill="#000000" stroke="none">
<path d="M373 3871 c-35 -22 -48 -50 -39 -86 6 -23 1576 -2516 1603 -2545 9
-10 33 -15 73 -15 39 0 64 5 74 15 21 21 1567 2477 1589 2523 22 49 22 69 -4
101 l-20 26 -394 0 -394 0 -24 -22 c-44 -41 -637 -1001 -637 -1031 0 -34 40
-77 72 -77 13 0 33 7 45 15 12 8 155 229 319 490 l298 475 269 0 c242 0 269
-2 263 -16 -14 -36 -1450 -2304 -1457 -2302 -10 4 -1459 2297 -1459 2309 0 5
251 9 575 9 316 0 575 -2 575 -5 0 -2 -34 -73 -76 -157 -78 -159 -83 -180 -47
-220 21 -24 85 -24 106 0 13 14 116 220 207 415 21 44 12 90 -20 107 -12 6
-289 10 -742 10 -696 0 -724 -1 -755 -19z"/>
<path d="M3229 2472 c-29 -15 -34 -23 -37 -57 -2 -32 2 -45 20 -62 21 -19 888
-510 971 -549 45 -22 89 -6 107 37 27 65 30 63 -503 361 -271 152 -499 278
-508 281 -9 3 -32 -2 -50 -11z"/>
<path d="M2866 1919 c-31 -25 -36 -79 -8 -107 29 -29 1340 -742 1365 -742 32
1 66 30 73 66 4 24 1 37 -18 57 -28 32 -1334 747 -1364 747 -12 0 -33 -9 -48
-21z"/>
<path d="M3610 1907 c-60 -30 -64 -101 -8 -135 130 -79 967 -544 988 -548 41
-9 80 29 80 76 0 32 -6 43 -32 63 -40 29 -983 557 -995 557 -4 0 -19 -6 -33
-13z"/>
</g>
</svg>
