<?xml version="1.0" encoding="utf-8"?>
<!-- Generator: Adobe Illustrator 27.0.0, SVG Export Plug-In . SVG Version: 6.00 Build 0)  -->
<svg version="1.1" id="Слой_1" xmlns="http://www.w3.org/2000/svg" xmlns:xlink="http://www.w3.org/1999/xlink" x="0px" y="0px"
	 viewBox="0 0 3200 2000" style="enable-background:new 0 0 3200 2000;" xml:space="preserve">
<style type="text/css">
	.st0{fill:#F4F4F4;}
	.st1{fill:#DDDDDD;}
	.st2{fill:#A3A3A3;}
	.st3{fill:#0F0F0F;}
	.st4{fill:#CCCCCC;}
	.st5{fill:#333333;}
	.st6{fill:#B7B7B7;}
	.st7{fill:#EAEAEA;}
	.st8{fill:#CECECE;}
	.st9{fill:#FFFFFF;}
	.st10{fill:#232323;}
	.st11{fill:#7F7F7F;}
	.st12{fill:#444444;}
	.st13{fill:#233862;}
	.st14{fill:#D9935C;}
	.st15{fill:#474747;}
	.st16{fill:#828282;}
	.st17{fill:#9E9E9E;}
</style>
<g>
	<path class="st0" d="M463.61,1796.99c0,0-325.48-396.19-166.41-804.07c103.68-265.86,492.62-411.54,712.11-265.86
		c93.49,62.05,393.41,2.09,553.56-254.79c311.2-499.18,1397.29-196.02,1199.56,570.39c-95.69,370.89,291.21,384.37,94.07,755.11
		L463.61,1796.99z"/>
	<path class="st1" d="M921.5,1274.14c-25.1-61.48,73.02-111.21,73.02-111.21s126.46,44.58,145.06,33.73
		c18.6-10.84-100.67-59.23-100.67-59.23c30.47-28.31,145.12-52,145.12-52s74.12,108.07,89.48,92.98s-70.51-92.34-70.51-92.34
		c39.14-14.76,97.22-0.31,97.22-0.31c83.35,32.13,37.78,137.5,37.78,137.5s26.49,36.9,80.39,61.27l0,0c0,0,10.87,3.8,25.9,12.89
		l-8.68,6.63c-2.49-1.79-4.99-3.44-7.5-4.94c-0.01-0.02-0.03-0.02-0.05-0.03c-0.04-0.02-0.07-0.04-0.11-0.06
		c-1.62-0.89-3.93-2.14-6.77-3.66c0,0-0.01,0-0.01-0.01c0-0.01-0.01,0-0.01-0.01c-6.62-3.17-11.34-5.63-14.58-7.54
		c-0.01-0.01-0.02-0.01-0.03-0.02c-20.39-10.23-48.05-22.72-59.09-21.35c0,0-0.07-2.08-1.18-5.4c0.38,1.72,0.77,3.52,1.18,5.4
		c9.45,43.19-60.79,105.23-108.67,128.34s-38.75-2.34-30.93-38.3c7.82-35.97,58.33-66.63,66.46-84.6c8.12-17.97-17.71-10-43.69,13.2
		c-25.98,23.2-18.7,61.33-60.04,99.61s-139.33-19.63-139.33-19.63c38.07-13.95,80.3-73.08,74.32-85.31
		c-5.98-12.24-86.9,51.23-102.07,57.77C988.35,1344.07,946.61,1335.62,921.5,1274.14z"/>
	<path class="st1" d="M1561.73,512.51c36.64-50.8,125.45,2.85,125.45,2.85s27.52,123.44,45.5,132.9
		c17.97,9.46-2.92-110.13-2.92-110.13c37.87,10.23,114.11,90.11,114.11,90.11s-49.42,113.29-29.67,118.04
		c19.75,4.75,38.64-102.55,38.64-102.55c31.36,23.93,48.83,77.62,48.83,77.62c15.94,82.73-91.12,98.93-91.12,98.93
		s-16.28,39.63-8.85,94.93v0c0,0,2.39,10.59,2.63,27.16l-9.64-3.63c0.19-2.88,0.26-5.71,0.2-8.47c0.01-0.02,0.01-0.03,0-0.05
		c0-0.04,0-0.08,0-0.12c-0.1-1.74-0.25-4.22-0.46-7.24c0,0,0-0.01,0-0.01c0-0.01,0-0.01,0-0.01c-0.77-6.88-1.16-11.88-1.26-15.43
		c0-0.01,0-0.02,0-0.03c-2.01-21.42-5.83-49.8-12.45-57.94c0,0,1.63-1.1,3.73-3.64c-1.19,1.16-2.43,2.37-3.73,3.64
		c-29.83,29.14-114.56,3.95-156.97-22.8s-17.49-32.17,15.19-43.88c32.68-11.72,82.45,13.37,100.89,10.89
		c18.43-2.48-0.86-19.17-32.39-28.36c-31.54-9.19-58.41,15.68-109.69,1.75c-51.28-13.94-53.92-121.27-53.92-121.27
		c30.19,23.49,98.58,27.72,105.38,16.82c6.8-10.9-84.41-43.92-97.22-52.78C1539.18,600.93,1525.08,563.32,1561.73,512.51z"/>
	<path class="st1" d="M2269.48,1684.84c90.66-18.64,72.1-170.83,72.1-170.83s-149.73-111.82-151.6-141.77
		c-1.88-29.95,146.68,70.6,146.68,70.6c9.13-57.24-52.39-208.36-52.39-208.36s-182.62-1.96-177.07-31.46
		c5.55-29.49,161.62,9.99,161.62,9.99c-13.27-56.76-75.08-112.8-75.08-112.8c-101.87-71.56-188.5,62.94-188.5,62.94
		s-63.27-2.05-133.31-45.54l0,0c0,0-12.83-9.63-35.01-19.99l-0.94,15.19c4,1.49,7.85,3.1,11.54,4.85c0.03,0,0.05,0.01,0.07,0.03
		c0.05,0.03,0.11,0.05,0.16,0.08c2.28,1.19,5.53,2.89,9.49,5c0,0,0.01,0,0.01,0.01c0.01,0,0.01,0.01,0.02,0.01
		c8.8,5.2,15.32,8.75,20.04,11.04c0.01,0.01,0.03,0.01,0.04,0.02c27.66,15.67,63.59,38.01,70.56,51.85c0,0,2.47-1.54,7.17-2.82
		c-2.29,0.9-4.67,1.84-7.17,2.82c-57.34,22.56-74.66,152.02-64.28,225.39c10.38,73.37,32.77,43.05,68.35,6.09
		c35.58-36.96,31.89-119.24,46.38-142.58c14.5-23.34,25.32,12.75,18.62,60.82c-6.7,48.07-56.49,69.23-68.75,146.79
		s130.83,146.08,130.83,146.08c-13.39-54.91,22.31-149.67,41.11-152.23c18.81-2.57,8.11,140.36,12.3,162.99
		C2136.65,1661.71,2178.82,1703.47,2269.48,1684.84z"/>
	<path class="st2" d="M2074.91,733.74h-879.47c-44.79,0-81.1,36.31-81.1,81.1v435.31c0,44.79,36.31,81.1,81.1,81.1h518.37
		l141.21,261.11v-261.11h219.89c44.79,0,81.1-36.31,81.1-81.1V814.84C2156.01,770.05,2119.7,733.74,2074.91,733.74z"/>
	<path class="st1" d="M2154.46,382.36h527.26c26.85,0,48.62,25.42,48.62,46.47v184.04c0,31.6-21.77,50.35-48.62,50.35h-310.77
		l-84.66,122.74V663.22h-131.83c-26.85,0-48.62-17.07-48.62-38.12V438.22C2105.84,402.81,2127.61,382.36,2154.46,382.36z"/>
	<path class="st0" d="M1145.38,304.7H751.36c-20.07,0-36.33,16.27-36.33,36.33v195.03c0,20.07,16.27,36.33,36.33,36.33H983.6
		l63.26,116.98V572.39h98.52c20.07,0,36.33-16.27,36.33-36.33V341.03C1181.71,320.96,1165.45,304.7,1145.38,304.7z"/>
	<g>
		<path class="st3" d="M1446.84,702.16c-13.49,23.49-30.47,32.55-30.47,32.55h-70.61C1345.76,734.71,1457.13,684.24,1446.84,702.16z
			"/>
		<g>
			<path class="st4" d="M1392.61,883.88c-1.84,2.11-2.07,4.47-1.16,6.98c0,0.01,0.01,0.03,0.02,0.03
				c1.68,4.65,7.25,9.85,13.71,15.04c0.83,0.67,1.56,1.27,2.2,1.83c0.17,0.15,0.34,0.29,0.49,0.44c0.13,0.11,0.26,0.23,0.38,0.34
				c6.03,5.56,3.76,6.83,14.59,18.1c12.35,12.85,20.85,13.08,23.26,11.91c2.05-1-2.11-7.81-6.72-15.47
				c-0.22-0.37-0.44-0.74-0.67-1.12c-0.61-1.02-1.22-2.05-1.83-3.07c-5.4-9.22-4.01-13.54-2.73-27.26
				c1.04-11.15,17.34-62.27,17.34-62.27l-23.66-4.08c0,0-7.13,40.71-14.98,46.98c-4.2,3.34-8.9,3.38-12.93,5.86
				c-0.28,0.17-0.56,0.35-0.84,0.53C1396.79,880.2,1394.45,881.77,1392.61,883.88z"/>
			<path class="st3" d="M1392.61,883.88c-1.84,2.11-2.07,4.47-1.16,6.98c0,0.01,0.01,0.03,0.02,0.03
				c2.06,4.65,7.49,9.82,13.73,14.99c0.82,0.68,1.54,1.3,2.18,1.88c0.17,0.15,0.34,0.29,0.49,0.44c0.13,0.11,0.26,0.23,0.38,0.34
				c6.03,5.56,3.76,6.83,14.59,18.1c12.35,12.85,20.85,13.08,23.26,11.91c2.05-1-2.11-7.81-6.72-15.47
				c-2.4-0.88-13.57-5.42-22.01-16.22c-7.43-9.49-12.39-21.68-17.45-28.74c-0.28,0.17-0.56,0.35-0.84,0.53
				C1396.79,880.2,1394.45,881.77,1392.61,883.88z"/>
			<path class="st4" d="M1583.39,869.11c1.46,7.3,11.87,6.08,23.5,3.24c11.63-2.84,8.87,0.54,25.42-1.3
				c16.55-1.83,21.57-8,22.07-10.47c0.45-2.18-7.73-2.95-16.5-3.96c-1.1-0.12-2.21-0.26-3.32-0.4c-9.91-1.24-17.16-7.63-26.16-12.88
				c-8.52-4.97-21.24-25.23-21.24-25.23l-22.7,1.8c0,0,11.91,18.09,16.52,25.96c2.71,4.63,2.57,10.75,2.23,15.47
				C1583.04,863.91,1582.87,866.53,1583.39,869.11z"/>
			<path class="st3" d="M1606.89,872.35c11.63-2.84,8.87,0.54,25.42-1.3c16.55-1.83,21.57-8,22.07-10.47
				c0.45-2.18-7.73-2.95-16.5-3.96l-0.08,0.17c0,0-9.93,7.04-23.71,7.37c-11.23,0.27-23.13-2.94-30.88-2.82
				c-0.18,2.57-0.34,5.19,0.17,7.77C1584.85,876.41,1595.26,875.19,1606.89,872.35z"/>
			<path class="st3" d="M1496.39,723.95l-21.22,57.1l-27.71,74.56c0,0-7.52,0.73-14.72-1.35c-6.63-1.92-14.23-6.93-14.23-6.93
				s7.69-80.06,22.04-126.01c3.68-11.8,7.8-21.34,12.35-26.71C1475.15,668.33,1496.39,723.95,1496.39,723.95z"/>
			<path class="st5" d="M1474.81,633.26c-13.9-4.48-53.56,1.27-93.39,9.07l-8.34-13.76l-86.04-6.72c0,0-28.39,62.96-12.85,103.08
				c2.28,5.9,7.94,8.38,15.68,8.51c0,0,0.01,0.01,0.01,0.01c0,0,51.34,1.25,67.97,1.25c42.79,0,90.55-29.41,96.73-30.65
				c10.11-2.02,14.16,18.2,24.27,39.44c10.11,21.24,95.07,94.06,95.07,94.06s13.06,0.13,18.45-1.89c5.8-2.18,7.92-5,7.92-5
				S1506.17,643.38,1474.81,633.26z"/>
			<path class="st5" d="M1363.95,375.93c-6.45-3.84-12.74-4.4-16.54-4.27c-2.75,0.09-5.49-0.17-8.22-0.54
				c-32.6-4.38-52.23,42.99-53.38,57.35c-2.13,26.46-16.12,30.49-35.83,47.06c-39.5,33.23-27.92,71.83-6.32,86.18
				c12.96,8.61,35.8,0,35.8,0c0.32,0.23,62.48-34.75,93.11-51.61C1418.51,503.56,1382.4,386.91,1363.95,375.93z"/>
			<path class="st4" d="M1346.9,495.73c0.13,0.09-15.07,5.28-25.24,0.78c-9.57-4.23-16.81-19.97-16.67-19.98
				c4.35-0.2,9.13-4.01,12.81-28.97l1.85,0.66l31.16,11.21c0,0-2.26,10-3.72,19.52C1345.86,486.95,1345.2,494.6,1346.9,495.73z"/>
			<path class="st6" d="M1350.81,459.44c0,0-2.26,10-3.72,19.52c-17.9-3.22-24.92-21.05-27.44-30.73L1350.81,459.44z"/>
			<path class="st4" d="M1355.45,469.36c0,0-42.63-5.72-38.66-32.22c3.97-26.49,1.15-45.08,28.53-42.54s31.15,13.43,31.97,22.6
				C1378.12,426.37,1366.64,470.17,1355.45,469.36z"/>
			<path class="st3" d="M1375.74,402.68c0,0-27.29,23.52-45.85,25.42c-18.56,1.9-25.59-4.06-25.59-4.06s10.94-9.09,17.53-23.75
				c1.94-4.32,6.04-7.29,10.76-7.69C1345.84,391.44,1370.96,390.92,1375.74,402.68z"/>
			<path class="st3" d="M1358.68,400.57c0,0,9.13,8.83,12.01,15.38c2.77,6.32,3.61,21.43,1.4,27.43c0,0,14.23-27.66,6.17-41.1
				C1369.71,388.03,1358.68,400.57,1358.68,400.57z"/>
			<path class="st7" d="M1382.8,558.53c-1.29,86.3-0.35,68.27-9.79,76.45c-2.27,1.97-8.67,3.15-17.09,3.7
				c-26.46,1.76-72.98-2.6-74.75-7.49c-6.1-16.92-1.79-22.18-6.89-48.08c-0.53-2.75-1.19-5.74-1.96-8.99
				c-4.25-17.79-8.38-23.85,6.69-52.43c13.66-25.89,27.85-46.91,29.13-46.15c36.04,21.39,38.95,3.41,38.95,3.41
				S1383.43,516.44,1382.8,558.53z"/>
			<path class="st5" d="M1475.17,781.05l-27.71,74.56c0,0-7.52,0.73-14.72-1.35c-6.63-1.92-14.23-6.93-14.23-6.93
				s7.69-80.06,22.04-126.01L1475.17,781.05z"/>
			<path class="st7" d="M1347.09,478.95c0,0,37.08,6.29,41.44,22.25c4.35,15.97,29.98,109.83,29.98,109.83s-18.85,3.39-27.56-5.32
				c-8.71-8.71-30.3-80.8-30.3-80.8L1347.09,478.95z"/>
			<path class="st1" d="M1355.92,638.69c-26.46,1.76-72.98-2.6-74.75-7.49c-6.1-16.92-1.79-22.18-6.89-48.08l12.76-35.94
				c0,0-2.11,40.02,9.69,50.55c11.79,10.53,48.32,20.32,54.06,29.12C1353.57,631.06,1355.39,635.29,1355.92,638.69z"/>
			<path class="st4" d="M1325.6,621.86c0,0,26.11-5.81,30.32-3.5c4.21,2.32,14.51,10.75,15.8,13.69c1.29,2.94-9.38-2.23-12.85-3.16
				c-2.25-0.6-8.16,1.45-11.09,2.43c-12.32,4.11-19.87,1.99-19.87,1.99L1325.6,621.86z"/>
			<path class="st7" d="M1308.12,475.53c0,0-35.05,2.16-47.19,19.08c-17.08,23.82-50.97,125.36-31.55,138.9
				c21.87,15.25,99.54,3.99,99.54,3.99s2.58-12.08-1.01-17.92s-62.03-15.28-64.73-17.98c-2.7-2.7,33.71-52.59,33.71-60.69
				S1308.12,475.53,1308.12,475.53z"/>
			<path class="st8" d="M1357.18,625.63c0,0,5.47,7.06,7.26,7.9c1.79,0.84,2.95,0.63,2.95,0.63l-3.69-6.63L1357.18,625.63z"/>
			<path class="st8" d="M1355.92,618.36l15.9,7.72c0,0-0.68,1.11-2.63,1.02c-1.96-0.09-6.9-1.9-6.9-1.9L1355.92,618.36z"/>
		</g>
		<g>
			<g>
				<polygon class="st2" points="1364.45,644.34 1490.25,644.34 1528.1,550.23 1402.49,550.23 				"/>
				<polygon class="st2" points="1491.73,640.67 1325.6,640.67 1325.6,644.34 1490.25,644.34 				"/>
			</g>
			<path class="st9" d="M1458.49,597.28c0.95-3.31-0.96-5.99-4.27-5.99s-6.76,2.68-7.71,5.99s0.96,5.99,4.27,5.99
				S1457.55,600.59,1458.49,597.28z"/>
		</g>
	</g>
	<g>
		<g id="man_1_">
			<path class="st4" d="M1014.14,1008.81c-4.27,11.49-11.68,24.82-19.45,28.14c-8.81,3.76-12.49,9.07-12.49,9.07l-7.12-4.13
				l-8.5-4.94c0,0,0.2-0.94,0.62-2.48c0.41-1.53,1.05-3.66,1.91-6.02c0,0,2.61-3.35,1.01-7.56c-1.6-4.2-1.28-10.7,1.45-14.67
				c2.73-3.96,5.36-13.72,7-13.43c3.97,0.68-1.95,14.1-0.25,16.59c1.54,2.25,3.46,1.48,3.82,1.31c0.02-0.01,0.04-0.02,0.07-0.04
				c11.15-4.9,24.67-31.33,30.66-27.77C1015.1,984.21,1015.96,1003.91,1014.14,1008.81z"/>
			<g>
				<path class="st5" d="M975.57,1024.81l13.97,9.82c0.99,0.69,2.36,0.45,3.05-0.53l35.78-50.91c0.69-0.99,0.45-2.36-0.53-3.05
					l-13.97-9.82c-0.99-0.69-2.36-0.45-3.05,0.53l-35.78,50.91C974.34,1022.74,974.58,1024.12,975.57,1024.81z"/>
				<path class="st3" d="M988.35,1033.8l8.19,5.75c0.75,0.53,1.8,0.34,2.32-0.41l36.38-51.77c0.53-0.75,0.35-1.8-0.41-2.32
					l-8.19-5.75c-0.75-0.53-1.8-0.35-2.32,0.41l-36.38,51.77C987.42,1032.22,987.6,1033.27,988.35,1033.8z"/>
			</g>
			<path class="st3" d="M775.19,951.75c0,0,71.07,123.96,96.86,146.77l94.54-70.49c0,0,13.72,4.21,19.73,17.98
				c0,0-57.41,116.97-113.94,121.93c-56.53,4.96-135.86-140.2-135.86-140.2L775.19,951.75z"/>
			<g>
				<path class="st10" d="M614.35,1794.89h-41.06c-5.17-2.81-9.78-9.23-11.23-18.82c-2.01-13.23-16.83-20.44-20.04-31.27
					c-3.2-10.82,13.23-26.04,13.23-26.04l2.75-3.54l2.86-3.68l27.26,6.42c0,0,0.68,6.49,1.08,14.76c0.3,5.96,0.45,12.86,0.12,18.91
					c-0.8,14.43,4.03,29.97,16.86,32.78C615.65,1786.47,615.22,1792.1,614.35,1794.89z"/>
				<path class="st10" d="M852.68,1794.89h-93.91c-4.52-5.51-2.85-25.85-2.17-32.49c0.14-1.34,0.24-2.12,0.24-2.12
					s32.07-25.65,36.47-6.01c0.13,0.62,0.3,1.22,0.48,1.81c5.55,18.37,30.44,26.72,44.82,29.05
					C847.94,1786.65,851.4,1791.5,852.68,1794.89z"/>
				<path class="st2" d="M834.78,1270.68c0,0-4.87,60.75-10.59,133.79c-7.78,99.21-17.13,221.06-18.06,244.15
					c-1.6,40.09-8.02,104.21-8.02,104.21s-15.22,15.23-45.69,8.81c0,0-27.15-91.53-34.9-188.38c-0.12-1.59-0.24-3.19-0.36-4.79
					c-7.21-98.59-18.43-306.2-18.43-306.2L834.78,1270.68z"/>
				<path class="st11" d="M834.78,1270.68c0,0-4.87,60.75-10.59,133.79l-106.67,168.79c-0.12-1.59-0.24-3.19-0.36-4.79
					c-7.21-98.59-18.43-306.2-18.43-306.2L834.78,1270.68z"/>
				<path class="st2" d="M812.54,1277.9c0,0-87.77,220.03-145.48,323.43c-57.71,103.4-75.75,132.26-75.75,132.26
					s-33.06-13.23-36.07-22.24c0,0,22.07-199.62,60.72-248.29c21.84-27.5,47.49-110.02,48.69-138.87
					c1.2-28.86,7.82-85.97,7.82-85.97L812.54,1277.9z"/>
			</g>
			<path class="st4" d="M790.7,957.14c-34.3,10.82-93.64-18.39-93.64-18.39s31.62-23.73,29.97-73.08l26.52,21.37l18.01,14.52
				c0,0-0.07,8.56-2.04,23.56c-0.52,3.94-1.17,8.34-1.98,13.15C782.25,946.35,790.7,957.14,790.7,957.14z"/>
			<path class="st6" d="M771.55,901.56c0,0-0.07,8.56-2.04,23.56c-19.96-3.42-42.6-35.69-42.6-35.69
				c10.16-2.93,19.06-3.46,26.63-2.38L771.55,901.56z"/>
			<path class="st4" d="M782.04,900.75c0,0-56.65,9.41-61.97-25.96c-5.32-35.37-16.21-57.98,19.73-65.48
				c35.95-7.5,45.02,4.93,49.67,16.31C794.12,836.99,796.64,897.39,782.04,900.75z"/>
			<path class="st5" d="M838.57,1275.74c-1.03,0.86-2.23,1.37-3.61,1.37c-12.88-0.17-50.44,6.98-82.22,3.72
				c-26.79-2.57-50.5-10.51-75.97-21.92c-3.38-1.52-11.17-5.67-10.99-9.45c0.11-4.14,0.53-10.14,1.04-17.7
				c1.8-26.29,4.94-71.5,1.88-123.65c-0.55-9.71-0.84-19.35-0.88-28.83c-0.26-70.69,13.75-132.87,41.92-153.91
				c2.41-1.72,17.18,5.5,30.75,12.19c12.54,6.19,25.08,6.87,36.92,4.47l11.85,10.47c14.43,13.4,30.23,31.6,37.1,59.25
				c5.85,23.53,9.27,65.96,11.17,109.92c0.86,19.92,1.55,40.02,1.72,59.09v0.68c0.17,1.89,0.17,3.96,0.17,5.85
				C840.12,1236.24,839.42,1275.05,838.57,1275.74z"/>
			<path class="st3" d="M666.82,1231.76c1.8-26.29,4.94-71.5,1.88-123.65c-0.55-9.71-0.84-19.35-0.88-28.83
				c11.73-28.46,21.32-49.1,21.32-49.1h29.57C718.73,1030.17,740.41,1178.27,666.82,1231.76z"/>
			<g>
				<path class="st3" d="M515.33,1399.61l126.13,17.97c16.42,2.34,31.76-9.18,34.1-25.59l7.79-54.66
					c2.34-16.42-9.18-31.76-25.59-34.1l-126.13-17.97c-16.42-2.34-31.76,9.18-34.1,25.59l-7.79,54.66
					C487.4,1381.92,498.91,1397.27,515.33,1399.61z"/>
				<path class="st12" d="M664.88,1319.52L664.88,1319.52c-3.54-8.88-11.19-15.88-20.9-18.26h-0.01c-0.01,0-0.02,0-0.02-0.01
					c-0.95-0.23-1.92-0.42-2.91-0.56l-25.12-3.57l1.68-11.8c0.38-2.63-0.3-5.26-1.9-7.4c-1.6-2.13-3.94-3.52-6.57-3.89l-6.55-0.94
					l-26.37-3.76l-4.75-0.68c-5.45-0.77-10.52,3.02-11.29,8.48l-1.68,11.8l-43.35-6.18c-16.48-2.35-31.88,9.21-34.23,25.69
					l-7.87,55.3c-2.35,16.48,9.21,31.88,25.69,34.22l125.91,17.95c2.22,0.32,4.42,0.38,6.57,0.21h0.01c0.01,0,0.01,0,0.01,0
					c3.45-0.26,6.76-1.12,9.83-2.48c9.26-4.09,16.28-12.72,17.81-23.42l7.88-55.29C667.5,1329.53,666.78,1324.26,664.88,1319.52z
					 M566.36,1278.02c0.24-1.65,1.53-2.9,3.1-3.15c0.36-0.06,0.74-0.07,1.12-0.02l5.6,0.79l20.76,2.96l11.31,1.61
					c2.04,0.29,3.45,2.18,3.16,4.21l-1.68,11.8l-45.05-6.43L566.36,1278.02z"/>
			</g>
			<path class="st4" d="M611.25,1236.85c0,0-6.62,8.82-6.89,12.35c-1.78,23.9,9.14,27.2-19.13,40.47c0,0-12.07,4.6-12.27-4.76
				c-0.21-9.37,8.38-9.52,6.81-22.64c-1.81-15.13-1.63-15.27,8.3-23.17l6.58-10.87L611.25,1236.85z"/>
			<path class="st5" d="M594.4,1243.61c10.65,2.08,22.19,1.24,22.19,1.24s31.62-97.67,35.69-106.59
				c4.07-8.92,93.91-114.52,93.91-114.52l-37.43-93.67c0,0-97.18,162.32-107.04,185.13c-16.31,37.69-21.96,122.19-21.96,122.19
				S586.04,1241.98,594.4,1243.61z"/>
			<path class="st5" d="M720.02,871.38c0,0,5.81-0.97,4.88-8.98c-0.94-8.01-0.93-18.47,5.58-16.52c6.51,1.95,6.83,7.16,9.51,4.12
				c2.68-3.04,2.72-15.87,22.1-16.76c19.37-0.89,27.25,5.85,36.25,1.89c9.01-3.96,9.48-17.6,9.48-17.6s-2.56,4.87-6.43,6.42
				c0,0,15.03-20.56-2.37-34.65c-17.4-14.1-35.14-4.87-45.21-4.26c-22.19,1.34-36.52,2.67-43.77,17.25
				C702.8,816.87,705.79,857.35,720.02,871.38z"/>
			<path class="st4" d="M600.8,1247.36c0,0,6.38,6.65,6.78,9.42c1.29,8.88,4.26,12.72,2.77,13.68c-3.09,2.01-7.18-4.57-9.13-10.47
				C599.27,1254.09,600.8,1247.36,600.8,1247.36z"/>
		</g>
	</g>
	<g>
		<g>
			<g>
				<g>
					<path class="st4" d="M2263.83,1063.12c0-0.61,8.88-18.98,6.06-20.39c-2.83-1.41-7.89-1.2-8.48,2.02
						C2260.82,1047.96,2263.83,1063.12,2263.83,1063.12z"/>
					<path class="st5" d="M2396.44,834.81c0,0,52.09-62.6,79.67-22.54c0,0,20.57,8.54,28.02,43.56
						c7.59,35.73-16.17,62.89-28.45,56.18c-7.88-4.3-13.84,9.48-13.84,9.48L2396.44,834.81z"/>
					<path class="st4" d="M2331.83,1167.91c-41.41-15.26-81.3-86.13-81.3-86.13l13.06-9.14c10.88,15.91,59.82,46.47,59.82,46.47
						c1.12-13.41,2.74-25.58,4.74-36.6c13.59-74.9,44.67-97.09,53.01-101.8c1.35-0.77,2.11-1.06,2.11-1.06s-0.03,0.55-0.09,1.6
						c-0.12,2.25-0.38,6.8-0.82,13.02C2379.12,1040.63,2366.44,1180.67,2331.83,1167.91z"/>
					<path class="st5" d="M2470.42,805.92c0,0,7-28.02,48.15-19.26c0,0-19.7-2.48-25.1,5.11c0,0,15.61-7.15,25.39-1.17
						c9.78,5.98,11.38,26.12,9.92,32.25c-1.46,6.13-12.26,24.37-19.41,24.37c-7.15,0-15.61-6.27-15.61-6.27L2470.42,805.92z"/>
					<path class="st4" d="M2531.99,1244.38c-20.46-45.88-30.25-58.86-30.59-73.29c-0.27-11.42,5.36-23.74,16.29-53.94
						c2.57-7.12,4.35-14.44,5.45-21.83c8.65-58.23-25.02-121.18-45.95-125.46c-5.82-1.54-15.69-22.57-15.57-56.46l-2.62,0.52
						l-44.07,8.73c0,0,1,13.87,1.03,26.93c0.03,10.89-0.63,21.21-3.09,22.51c-3.17,0.29-5.04,0.48-5.04,0.48
						s-36.74,51.03-39.83,98.49s29.42,68.08-0.25,162.92C2337.45,1330.82,2543.29,1269.74,2531.99,1244.38z"/>
					<path class="st6" d="M2414.93,922.63c0,0,1,13.87,1.03,26.93c24.66-0.69,37.69-23.19,43.04-35.66L2414.93,922.63z"/>
					<path class="st5" d="M2463.55,909.11c0,0,12.92-20.42,16.03-37.88c2.21-12.47-4.13-58.67-50.57-52.02
						c0,0-13.49,1.33-26.16,9.89c-10.08,6.81-24.63,21.51-8.36,61.83l4.22,13.62L2463.55,909.11z"/>
					<path class="st4" d="M2406.69,935.01c0,0,58.34,0.96,58.38-35.38c0.04-36.34,7.6-60.7-29.65-62.85
						c-37.25-2.15-44.5,11.71-47.47,23.84C2384.99,872.74,2391.52,933.82,2406.69,935.01z"/>
					<path class="st5" d="M2408.85,835.89c0,0,15.97,42.64,40.49,48.94c24.52,6.3,35.15-0.26,35.15-0.26s-18.8-14.94-22.71-41.02
						C2461.79,843.55,2420.9,815.59,2408.85,835.89z"/>
					<path class="st13" d="M2412.81,839.35c0,0-11.93,9.52-14.84,18.77c-2.91,9.25-4.22,28.31-9.77,27.66
						c0,0-12.04-28.98,1.49-45.38C2404.04,823.02,2412.81,839.35,2412.81,839.35z"/>
					<path class="st3" d="M2480.33,1684.68c-14.68,58.39-36.78,103.16-36.78,103.16l-19.24-1.33c0,0,9.43-44.89,8.89-105.53
						c-0.38-42.4-5.62-92.51-22.38-140.35c-57.57-164.42-48.26-284.08-48.26-284.08l108.26,12.66l5.04,0.59
						c0.45,49.72,1.73,117.22,2.86,170.01c0.99,47.47,1.86,83.04,1.86,83.04C2501.41,1567.66,2493.85,1630.94,2480.33,1684.68z"/>
					<path class="st4" d="M2607.87,1293.12l-17.52,5.25c0,0-57.78-95.87-63.03-120.81c-1.71-8.12-5.92-24.37-10.82-42.58
						c-10.15-37.71-23.24-83.85-23.24-83.85l-4.31-18.68l-14.71-63.7c0,0,28.16,2.88,44.64,9.77c5.45,2.28,9.61,4.99,11.07,8.18
						c12.1,26.61,24.18,93.76,32.67,141.67c4.73,26.7,8.34,47.42,10.23,51.81C2578.11,1192.44,2594.16,1259.85,2607.87,1293.12z"/>
					<path class="st5" d="M2542.44,1675.35c-6.23,66.43-33.63,109.39-33.63,109.39l-9.19,6.68c0,0-8.7-46.81-14.85-102.49
						c-5.87-52.93-13.91-108.93-23-126.03c-36.1-67.8-46.97-323.73-46.97-323.73l109.77-5.44c11.04,18.56,15.85,49,16.99,83.61
						c2.89,87.35-17.65,201.24-20.71,217.71c0,0.01,0,0.02-0.01,0.04c-0.24,1.27,0.13,2.53,0.72,3.68
						C2543.38,1582.01,2546.54,1631.47,2542.44,1675.35z"/>
					<path class="st13" d="M2410.6,840.79c0,0,11.38,44.65,42.31,58.95c0,0-30.93-27.43-33.56-56.91
						C2416.72,813.36,2410.6,840.79,2410.6,840.79z"/>
					<path class="st2" d="M2545.75,1277.51c0.19,3.7-0.01,6.66-0.68,8.77c-2.34,7.35-10.36,10.7-29.75,8.69
						c-11.85-1.23-17.13-21.09-19.49-38.04c-7.12,24.24-17.08,37.85-29.97,40.71c-18.8,4.18-113.62,15.71-119.83-29.37
						c-6.83-49.58,13.62-137.37,14.74-184.7c-2.79-16.78-3.74-31.35-3.44-43.86c0.79-33.72,10.69-52.62,18.3-60.23
						c2.16-1.65,4.31-2.69,12.96-4.17c4.42-0.75,10.55-1.62,19.23-2.77c0,0,3.54-0.4,3.46-0.27c-1.6,2.87-23.08,35.39-21.41,43.75
						c1.75,8.75,77.92,0.87,83.18-3.94s13.56-41.69,13.56-41.69s26.97,2.95,40.17,12.54c0,0-0.05,0.06-0.14,0.17
						c1.59,1.14,2.79,2.36,3.47,3.65c14.08,26.8,28.13,94.44,38.02,142.68c-23.96,13.2-44.9,9.27-51.39,7.53
						C2525.23,1192.54,2544.49,1252.2,2545.75,1277.51z"/>
					<path class="st4" d="M2263.59,1072.64c0.01-1.8,1.51-27.86-3.13-33.34c-4.64-5.47-14.11-13.26-17.09-13.02
						c-2.98,0.24-14.63,15.72-11.13,27.58c3.5,11.86,18.29,27.92,18.29,27.92L2263.59,1072.64z"/>
					<g>
						<path class="st2" d="M2284.87,1040.76l-27.01,8.09c-0.9,0.27-1.84-0.24-2.11-1.14l-15.43-51.5c-0.27-0.9,0.24-1.84,1.14-2.11
							l27.01-8.09c0.9-0.27,1.84,0.24,2.11,1.14l15.44,51.5C2286.27,1039.54,2285.76,1040.49,2284.87,1040.76z"/>
						<path class="st11" d="M2277.85,1042.86l-24.5,7.34c-1.59,0.48-3.26-0.43-3.74-2.01l-14.68-48.99
							c-0.48-1.59,0.43-3.26,2.02-3.74l24.5-7.34c1.59-0.48,3.26,0.43,3.74,2.02l14.68,48.99
							C2280.34,1040.71,2279.44,1042.38,2277.85,1042.86z"/>
					</g>
					<path class="st4" d="M2542.44,1675.35c-6.23,66.43-33.63,109.39-33.63,109.39l-9.36,8.52c0,0-8.53-48.64-14.69-104.33
						C2491.25,1689.41,2519.84,1690.45,2542.44,1675.35z"/>
					<path class="st14" d="M2480.33,1684.68c-14.68,58.39-36.78,103.16-36.78,103.16l-19.24-1.33c0,0,9.43-44.89,8.89-105.53
						C2439.74,1684.26,2453.21,1687.59,2480.33,1684.68z"/>
					<g>
						<path class="st3" d="M2454.64,1803.97h-12.28c-4.11-0.65-7.15-1.84-11.37-2.39c-6.41-0.84-9.36,1.79-9.95,2.39
							c-0.08,0.08-0.11,0.12-0.11,0.12h-52.18c-1.31-1.87-0.05-6.22,1.18-9.41c0.83-2.17,2.64-3.82,4.88-4.47
							c5.53-1.6,16.44-3.03,26.43-12.07c5.62-5.08,27.14-18.67,27.14-18.67l0.11-0.03c0.47,0.01,2.72,0.7,12.51,8.96
							c5.06,4.26,13.68-6.02,13.68-6.02s1.62,1.34,2.83,3.83c0.97,1.97,1.68,4.68,1.12,8.01c-0.78,4.7,1.73,13.44,3.74,19.35
							c1.22,3.58,2.24,6.12,2.24,6.12S2465.2,1802.65,2454.64,1803.97z"/>
						<path class="st15" d="M2457.52,1766.22c-2.93,2.07-9.12,6.14-13.23,6.67c-5.54,0.73-15.91-13.42-15.91-13.42l0.11-0.03
							c0.47,0.01,2.72,0.7,12.51,8.96c5.06,4.26,13.68-6.02,13.68-6.02S2456.31,1763.72,2457.52,1766.22z"/>
						<path class="st15" d="M2454.64,1803.97h-12.28c-4.11-0.65-7.15-1.84-11.37-2.39c-6.41-0.84-9.36,1.79-9.95,2.39
							c-0.08,0.08-0.11,0.12-0.11,0.12h-52.18c-1.31-1.87-0.05-6.22,1.18-9.41c1.58-1.41,2.03,6.12,2.91,7.32
							c0.88,1.2,42.57,0.44,44.97-1.31c2.41-1.75,9.63-4.82,19.7-2.41c8.76,2.09,21.68-3.27,24.87-4.7
							c1.22,3.58,2.24,6.12,2.24,6.12S2465.2,1802.65,2454.64,1803.97z"/>
					</g>
					<g>
						<path class="st3" d="M2520.18,1803.97h-12.28c-4.11-0.65-7.15-1.84-11.37-2.39c-6.41-0.84-9.36,1.79-9.95,2.39
							c-0.08,0.08-0.11,0.12-0.11,0.12h-52.18c-1.31-1.87-0.05-6.22,1.18-9.41c0.83-2.17,2.64-3.82,4.89-4.47
							c5.53-1.6,16.44-3.03,26.43-12.07c5.62-5.08,27.14-18.67,27.14-18.67l0.11-0.03c0.47,0.01,2.72,0.7,12.51,8.96
							c5.06,4.26,13.68-6.02,13.68-6.02s1.62,1.34,2.83,3.83c0.97,1.97,1.68,4.68,1.12,8.01c-0.78,4.7,1.73,13.44,3.74,19.35
							c1.22,3.58,2.24,6.12,2.24,6.12S2530.75,1802.65,2520.18,1803.97z"/>
						<path class="st15" d="M2523.06,1766.22c-2.93,2.07-9.12,6.14-13.23,6.67c-5.54,0.73-15.91-13.42-15.91-13.42l0.11-0.03
							c0.47,0.01,2.72,0.7,12.51,8.96c5.06,4.26,13.68-6.02,13.68-6.02S2521.86,1763.72,2523.06,1766.22z"/>
						<path class="st15" d="M2520.18,1803.97h-12.28c-4.11-0.65-7.15-1.84-11.37-2.39c-6.41-0.84-9.36,1.79-9.95,2.39
							c-0.08,0.08-0.11,0.12-0.11,0.12h-52.18c-1.31-1.87-0.05-6.22,1.18-9.41c1.58-1.41,2.03,6.12,2.91,7.32
							c0.88,1.2,42.57,0.44,44.97-1.31c2.41-1.75,9.63-4.82,19.7-2.41c8.76,2.09,21.68-3.27,24.87-4.7
							c1.22,3.58,2.24,6.12,2.24,6.12S2530.75,1802.65,2520.18,1803.97z"/>
					</g>
					<path class="st11" d="M2545.75,1277.51c-13.02-4.35-29.74-15.92-49.81-41.86c-53.14-68.68-4.51-149.39,2.01-150.89
						s18.79,52.22,18.79,52.22C2525.23,1192.54,2544.49,1252.2,2545.75,1277.51z"/>
					<path class="st2" d="M2378.89,977.95c0,0-36.39,18.31-48.51,92.21c0,0,11.92,16.34,28.71,21.16c2.4,0.69,4.9,1.14,7.47,1.28
						C2387.17,1093.68,2378.89,977.95,2378.89,977.95z"/>
					<path class="st4" d="M2240.59,1028.28c0,0,11.25-17.3,13.99-16.34c3.92,1.37-10.2,23.33-10.2,23.33s10.46-16.41,12.1-15.18
						c3.72,2.81-2.2,13.12-8.08,21.03c0,0,10.52-9.63,10.86-7.9c1.2,6.08-11.55,20.8-11.55,20.8l-7.13-16.28V1028.28z"/>
					<path class="st4" d="M2232.15,1044.34c0.54-2.12,3.29-43.44,4.46-39.52c1.17,3.92,3.97,25.59,3.97,25.59L2232.15,1044.34z"/>
				</g>
			</g>
			<path class="st9" d="M2418.09,913.43c0,0-1.01,4.28-11.66,3.62c0,0-8.95-0.55-8.67-5.26
				C2397.76,911.79,2406.43,908.45,2418.09,913.43z"/>
		</g>
		<path class="st4" d="M2607.87,1293.12c0,0,21.13,14.05,24.36,19.97c3.23,5.92,10.77,27.72,10.77,27.72s-5.38,0.81-10.77-8.61
			c-5.38-9.42-23.15-8.61-29.07-13.73c-5.92-5.11-12.81-20.1-12.81-20.1L2607.87,1293.12z"/>
		<path class="st4" d="M2592.65,1303.01c0,0,3.51,16.54,7.82,21.39s10.23,12.92,12.65,10.77c2.42-2.15-2.69-20.19-2.69-20.19
			L2592.65,1303.01z"/>
		<path class="st4" d="M2629.27,1314.97c0.54,0.81,19.11,20.54,19.11,20.54s-6.73,3.05-8.61,0
			C2637.89,1332.47,2629.27,1314.97,2629.27,1314.97z"/>
	</g>
	<g>
		<path class="st9" d="M1373.39,1146.4h-30.2v-77.55h-78.03v77.55h-30.32V971.89h30.32v72.63h78.03v-72.63h30.2V1146.4z"/>
		<path class="st9" d="M1535.77,1068.5h-71.68v53.7h83.78v24.21h-114.11V971.89h113.27v24.45h-82.94v48.18h71.68V1068.5z"/>
		<path class="st9" d="M1627.44,1122.19h79.23v24.21h-109.55V971.89h30.32V1122.19z"/>
		<path class="st9" d="M1784.79,1122.19h79.23v24.21h-109.55V971.89h30.32V1122.19z"/>
		<path class="st9" d="M2043.43,1063.7c0,13.26-1.74,25.15-5.21,35.66c-3.48,10.51-8.37,19.42-14.68,26.73
			c-6.31,7.31-13.9,12.93-22.77,16.84c-8.87,3.91-18.7,5.87-29.49,5.87c-10.71,0-20.5-1.96-29.37-5.87
			c-8.87-3.91-16.52-9.53-22.95-16.84c-6.43-7.31-11.43-16.22-14.98-26.73c-3.56-10.51-5.33-22.39-5.33-35.66v-8.87
			c0-13.26,1.78-25.17,5.33-35.72c3.55-10.55,8.51-19.5,14.86-26.85c6.35-7.35,13.96-12.98,22.83-16.9
			c8.87-3.91,18.66-5.87,29.37-5.87c10.79,0,20.63,1.96,29.55,5.87c8.91,3.92,16.54,9.55,22.89,16.9
			c6.35,7.35,11.27,16.3,14.74,26.85s5.21,22.46,5.21,35.72V1063.7z M2013.1,1054.59c0-9.75-0.94-18.36-2.82-25.83
			c-1.88-7.47-4.61-13.72-8.21-18.76c-3.59-5.03-8.01-8.85-13.24-11.45c-5.24-2.6-11.17-3.9-17.8-3.9c-6.47,0-12.31,1.3-17.5,3.9
			c-5.2,2.6-9.61,6.41-13.25,11.45c-3.64,5.03-6.43,11.29-8.39,18.76c-1.96,7.47-2.94,16.08-2.94,25.83v9.11
			c0,9.75,0.98,18.38,2.94,25.89c1.96,7.51,4.77,13.8,8.45,18.88c3.67,5.08,8.13,8.91,13.36,11.51c5.23,2.6,11.09,3.9,17.56,3.9
			c13.42,0,23.75-5.11,30.98-15.34c7.23-10.23,10.85-25.17,10.85-44.83V1054.59z"/>
	</g>
	<g>
		<g>
			<path class="st9" d="M1553.14,1661.99h-338.59c-10.39,0-18.9-8.5-18.9-18.9v-129.15c0-10.39,8.5-18.9,18.9-18.9h338.59
				c10.39,0,18.9,8.5,18.9,18.9v129.15C1572.04,1653.48,1563.54,1661.99,1553.14,1661.99z"/>
			<polygon class="st9" points="1564.13,1506.86 1644.31,1453.62 1564.13,1621.17 			"/>
		</g>
		<g>
			<path class="st2" d="M1309.04,1610.33h-11.97v-30.72h-30.91v30.72h-12.01v-69.13h12.01v28.77h30.91v-28.77h11.97V1610.33z"/>
			<path class="st2" d="M1362.55,1610.33c-0.32-0.6-0.58-1.31-0.78-2.14c-0.21-0.82-0.39-1.71-0.55-2.66
				c-0.76,0.79-1.61,1.54-2.54,2.23c-0.93,0.7-1.96,1.31-3.09,1.83c-1.12,0.52-2.34,0.93-3.66,1.23c-1.31,0.3-2.71,0.45-4.2,0.45
				c-2.56,0-4.92-0.39-7.07-1.16c-2.15-0.77-4-1.85-5.53-3.23c-1.54-1.38-2.74-3-3.61-4.87c-0.87-1.87-1.31-3.89-1.31-6.08
				c0-2.75,0.52-5.19,1.57-7.31c1.04-2.12,2.56-3.89,4.56-5.32c1.99-1.42,4.44-2.51,7.34-3.25s6.2-1.12,9.9-1.12h7.26v-3.37
				c0-2.66-0.74-4.79-2.23-6.39c-1.49-1.6-3.75-2.4-6.79-2.4c-1.36,0-2.6,0.18-3.7,0.55c-1.11,0.36-2.05,0.85-2.83,1.47
				c-0.78,0.62-1.38,1.35-1.8,2.21c-0.43,0.86-0.64,1.77-0.64,2.75h-11.54c0-2.02,0.5-3.98,1.5-5.86c1-1.88,2.41-3.56,4.25-5.03
				c1.83-1.47,4.06-2.65,6.67-3.54c2.61-0.89,5.53-1.33,8.76-1.33c2.88,0,5.54,0.37,7.98,1.12c2.44,0.74,4.54,1.85,6.31,3.32
				c1.77,1.47,3.15,3.31,4.13,5.51c0.98,2.2,1.47,4.77,1.47,7.72v22.79c0,4.62,0.65,8.31,1.95,11.06v0.81H1362.55z M1349.87,1602.02
				c1.33,0,2.57-0.17,3.73-0.52c1.15-0.35,2.2-0.81,3.13-1.38c0.93-0.57,1.75-1.23,2.45-1.97c0.7-0.74,1.25-1.5,1.66-2.25v-9.69
				h-6.22c-4.27,0-7.49,0.74-9.64,2.23c-2.15,1.49-3.23,3.59-3.23,6.32c0,1.04,0.17,2.01,0.52,2.9c0.35,0.89,0.87,1.65,1.57,2.3
				c0.7,0.65,1.54,1.16,2.54,1.52C1347.38,1601.84,1348.54,1602.02,1349.87,1602.02z"/>
			<path class="st2" d="M1406.46,1610.33h-11.54v-72.93h11.54V1610.33z"/>
			<path class="st2" d="M1441.02,1610.33h-11.54v-72.93h11.54V1610.33z"/>
			<path class="st2" d="M1461.14,1584.17c0-3.74,0.55-7.19,1.64-10.38c1.09-3.18,2.66-5.94,4.7-8.29c2.04-2.34,4.53-4.18,7.48-5.51
				c2.94-1.33,6.28-2,10.02-2c3.77,0,7.14,0.67,10.11,2s5.48,3.17,7.53,5.51c2.04,2.34,3.6,5.1,4.68,8.29
				c1.08,3.18,1.61,6.64,1.61,10.38v1c0,3.74-0.54,7.2-1.61,10.4c-1.08,3.2-2.64,5.96-4.68,8.29c-2.04,2.33-4.54,4.15-7.5,5.46
				c-2.96,1.31-6.31,1.97-10.04,1.97c-3.77,0-7.13-0.66-10.09-1.97c-2.96-1.31-5.46-3.13-7.5-5.46c-2.04-2.33-3.61-5.09-4.7-8.29
				c-1.09-3.2-1.64-6.66-1.64-10.4V1584.17z M1472.68,1585.16c0,2.31,0.24,4.49,0.71,6.55c0.47,2.06,1.22,3.85,2.23,5.39
				c1.01,1.54,2.3,2.75,3.87,3.63c1.57,0.89,3.43,1.33,5.58,1.33c2.12,0,3.96-0.44,5.53-1.33c1.57-0.89,2.85-2.1,3.85-3.63
				s1.74-3.33,2.23-5.39c0.49-2.06,0.74-4.24,0.74-6.55v-1c0-2.28-0.25-4.44-0.74-6.48c-0.49-2.04-1.24-3.83-2.26-5.37
				c-1.01-1.53-2.3-2.76-3.87-3.68c-1.57-0.92-3.43-1.38-5.58-1.38c-2.15,0-4,0.46-5.53,1.38c-1.54,0.92-2.81,2.14-3.82,3.68
				c-1.01,1.54-1.76,3.33-2.23,5.37c-0.48,2.04-0.71,4.2-0.71,6.48V1585.16z"/>
		</g>
	</g>
	<g>
		<path class="st16" d="M2193.5,550.98v-64.61h22.14c3.49,0,6.63,0.35,9.41,1.04c2.78,0.7,5.13,1.75,7.06,3.17
			c1.92,1.42,3.39,3.23,4.42,5.44c1.02,2.2,1.53,4.81,1.53,7.83c0,2.96-0.8,5.62-2.4,7.99c-1.6,2.37-3.93,4.2-7.01,5.5
			c1.86,0.5,3.48,1.24,4.86,2.2c1.38,0.96,2.51,2.09,3.42,3.39c0.9,1.3,1.58,2.74,2.02,4.3c0.44,1.57,0.67,3.19,0.67,4.88
			c0,3.11-0.51,5.83-1.53,8.19c-1.02,2.35-2.5,4.32-4.44,5.9c-1.94,1.58-4.29,2.77-7.06,3.57c-2.77,0.8-5.89,1.2-9.38,1.2H2193.5z
			 M2204.73,513.57h11c3.49,0,6.22-0.79,8.19-2.37c1.97-1.58,2.95-3.82,2.95-6.72c0-3.19-0.91-5.5-2.73-6.92
			c-1.82-1.42-4.65-2.13-8.5-2.13h-10.92V513.57z M2204.73,521.82v20.19h12.47c1.83,0,3.45-0.24,4.86-0.71
			c1.41-0.47,2.58-1.15,3.53-2.02c0.95-0.87,1.66-1.91,2.13-3.13c0.47-1.21,0.71-2.56,0.71-4.04c0-3.19-0.84-5.71-2.53-7.54
			c-1.69-1.83-4.42-2.75-8.21-2.75H2204.73z"/>
		<path class="st16" d="M2311.48,520.36c0,4.91-0.64,9.31-1.93,13.2c-1.29,3.89-3.1,7.19-5.44,9.9c-2.34,2.71-5.15,4.79-8.43,6.23
			c-3.28,1.45-6.92,2.17-10.92,2.17c-3.96,0-7.59-0.73-10.87-2.17c-3.28-1.45-6.12-3.53-8.5-6.23c-2.38-2.71-4.23-6-5.55-9.9
			c-1.32-3.89-1.97-8.29-1.97-13.2v-3.28c0-4.91,0.66-9.32,1.97-13.22c1.32-3.9,3.15-7.22,5.5-9.94c2.35-2.72,5.17-4.81,8.45-6.26
			c3.28-1.45,6.91-2.17,10.87-2.17c3.99,0,7.64,0.73,10.94,2.17c3.3,1.45,6.12,3.54,8.48,6.26c2.35,2.72,4.17,6.04,5.46,9.94
			c1.29,3.9,1.93,8.31,1.93,13.22V520.36z M2300.25,516.99c0-3.61-0.35-6.8-1.04-9.56c-0.7-2.77-1.71-5.08-3.04-6.94
			c-1.33-1.86-2.97-3.28-4.9-4.24c-1.94-0.96-4.13-1.44-6.59-1.44c-2.4,0-4.56,0.48-6.48,1.44c-1.92,0.96-3.56,2.37-4.9,4.24
			c-1.35,1.86-2.38,4.18-3.11,6.94c-0.72,2.77-1.09,5.95-1.09,9.56v3.37c0,3.61,0.36,6.8,1.09,9.58c0.73,2.78,1.77,5.11,3.13,6.99
			c1.36,1.88,3.01,3.3,4.95,4.26c1.94,0.96,4.11,1.44,6.5,1.44c4.97,0,8.79-1.89,11.47-5.68c2.68-3.79,4.02-9.32,4.02-16.6V516.99z"
			/>
		<path class="st16" d="M2383,550.98h-11.23l-28.8-45.84v45.84h-11.23v-64.61h11.23l28.89,46.02v-46.02H2383V550.98z"/>
		<path class="st16" d="M2431.8,486.37h11.18v45.31c0,3.19-0.53,6.05-1.58,8.56c-1.05,2.51-2.51,4.63-4.39,6.35s-4.1,3.02-6.68,3.93
			c-2.57,0.9-5.38,1.35-8.43,1.35c-3.08,0-5.91-0.38-8.5-1.15c-2.59-0.77-4.81-1.95-6.68-3.55c-1.86-1.6-3.32-3.61-4.37-6.03
			c-1.05-2.43-1.58-5.28-1.58-8.56h11.18c0,1.86,0.24,3.45,0.73,4.77c0.49,1.32,1.17,2.38,2.04,3.19c0.87,0.81,1.92,1.41,3.13,1.8
			c1.21,0.38,2.56,0.58,4.04,0.58c1.45,0,2.78-0.24,3.99-0.73c1.21-0.49,2.25-1.21,3.13-2.15c0.87-0.95,1.55-2.11,2.04-3.51
			c0.49-1.39,0.73-3,0.73-4.84V486.37z"/>
		<path class="st16" d="M2516.46,520.36c0,4.91-0.64,9.31-1.93,13.2c-1.29,3.89-3.1,7.19-5.44,9.9c-2.34,2.71-5.15,4.79-8.43,6.23
			c-3.28,1.45-6.92,2.17-10.92,2.17c-3.96,0-7.59-0.73-10.87-2.17c-3.28-1.45-6.12-3.53-8.5-6.23c-2.38-2.71-4.23-6-5.55-9.9
			c-1.32-3.89-1.97-8.29-1.97-13.2v-3.28c0-4.91,0.66-9.32,1.97-13.22c1.32-3.9,3.15-7.22,5.5-9.94c2.35-2.72,5.17-4.81,8.45-6.26
			c3.28-1.45,6.91-2.17,10.87-2.17c3.99,0,7.64,0.73,10.94,2.17c3.3,1.45,6.12,3.54,8.48,6.26c2.35,2.72,4.17,6.04,5.46,9.94
			c1.29,3.9,1.93,8.31,1.93,13.22V520.36z M2505.23,516.99c0-3.61-0.35-6.8-1.04-9.56c-0.7-2.77-1.71-5.08-3.04-6.94
			c-1.33-1.86-2.97-3.28-4.9-4.24c-1.94-0.96-4.13-1.44-6.59-1.44c-2.4,0-4.56,0.48-6.48,1.44c-1.92,0.96-3.56,2.37-4.9,4.24
			c-1.35,1.86-2.38,4.18-3.11,6.94c-0.73,2.77-1.09,5.95-1.09,9.56v3.37c0,3.61,0.36,6.8,1.09,9.58c0.72,2.78,1.77,5.11,3.13,6.99
			c1.36,1.88,3.01,3.3,4.95,4.26c1.94,0.96,4.1,1.44,6.5,1.44c4.97,0,8.79-1.89,11.47-5.68c2.68-3.79,4.02-9.32,4.02-16.6V516.99z"
			/>
		<path class="st16" d="M2583.99,486.37v43.22c0,3.7-0.63,6.94-1.89,9.72c-1.26,2.78-2.98,5.1-5.17,6.97
			c-2.19,1.86-4.75,3.26-7.68,4.19c-2.93,0.93-6.07,1.4-9.41,1.4c-3.46,0-6.66-0.47-9.61-1.4c-2.94-0.93-5.5-2.33-7.66-4.19
			c-2.16-1.86-3.85-4.19-5.06-6.97c-1.21-2.78-1.82-6.02-1.82-9.72v-43.22h11.18v43.22c0,2.31,0.3,4.3,0.91,5.97
			c0.61,1.67,1.47,3.06,2.6,4.15c1.12,1.09,2.48,1.9,4.08,2.42c1.6,0.52,3.39,0.78,5.37,0.78s3.78-0.26,5.39-0.78
			c1.61-0.52,2.97-1.32,4.08-2.42c1.11-1.09,1.97-2.48,2.57-4.15c0.61-1.67,0.91-3.66,0.91-5.97v-43.22H2583.99z"/>
		<path class="st16" d="M2628.8,526.08h-12.51v24.89h-11.23v-64.61h22.72c3.7,0,7,0.42,9.9,1.26c2.9,0.84,5.35,2.09,7.34,3.73
			c2,1.64,3.51,3.68,4.55,6.1c1.04,2.43,1.55,5.24,1.55,8.43c0,4.32-1.04,7.94-3.13,10.85c-2.08,2.91-4.99,5.16-8.72,6.72
			l14.51,26.93v0.58h-12.02L2628.8,526.08z M2616.28,517.07h11.54c2.01,0,3.77-0.27,5.28-0.8c1.51-0.53,2.77-1.27,3.77-2.22
			c1.01-0.95,1.76-2.07,2.26-3.37c0.5-1.3,0.75-2.74,0.75-4.3c0-1.66-0.24-3.16-0.71-4.5c-0.47-1.35-1.2-2.5-2.17-3.46
			c-0.98-0.96-2.23-1.7-3.75-2.22c-1.52-0.52-3.35-0.78-5.48-0.78h-11.49V517.07z"/>
	</g>
	<g>
		<path class="st16" d="M832.23,415.53c-4.58,8.05-9.44,15.4-14.43,21.64c-1.25-1.94-4.16-5.55-5.97-7.49
			c13.04-15.54,25.53-41.9,33.44-67.57l11.52,3.47c-0.56,1.39-1.8,1.66-3.33,1.53c-3.75,11.1-8.19,22.34-13.18,32.88l4.02,1.11
			c-0.28,0.83-0.97,1.53-2.78,1.66V491h-9.29V415.53z M927.27,418.86c1.11-5.13,2.5-12.9,3.75-20.39H903.4v81.02
			c0,9.99-3.61,11.79-23.03,11.79c-0.55-2.77-1.94-6.8-3.47-9.57c3.47,0.14,6.8,0.14,9.43,0.14h5.55c1.8,0,2.36-0.56,2.36-2.36
			v-81.02h-22.34c-4.16,10.13-9.02,19.28-14.29,26.22c-1.66-1.67-4.86-4.44-7.08-5.69c9.99-12.9,18.17-34.68,22.89-56.47l11.52,3.05
			c-0.28,0.97-1.25,1.53-3.05,1.39c-1.8,7.63-4.02,15.4-6.66,22.75h61.32l4.86,0.14c0,2.36-3.33,20.53-6.24,30.52L927.27,418.86z
			 M882.87,423.43c-0.42,0.97-1.39,1.53-3.05,1.53c-4.44,17.07-12.07,35.24-20.81,46.34c-1.8-1.53-5.13-3.61-7.35-4.72
			c8.46-10.54,15.68-28.44,19.98-46.2L882.87,423.43z M933.23,470.19c-2.64-13.04-10.68-33.02-19.01-47.86l8.19-2.91
			c8.74,14.85,16.93,34.41,19.7,47.45L933.23,470.19z"/>
		<path class="st16" d="M1013.42,391.11l5.27,1.39l-0.83,1.94c-1.94,24.56-6.38,44.26-13.32,59.66c6.8,5.27,12.62,10.41,16.37,15.12
			l-5.69,7.63c-3.47-4.44-8.74-9.43-14.84-14.43c-7.08,12.9-16.37,22.34-27.47,29c-1.25-2.36-3.88-5.69-5.83-7.63
			c10.41-5.55,19.15-14.57,26.08-27.05c-5.13-3.89-10.54-7.49-15.82-10.68l-1.67,6.11l-7.91-4.16c3.47-12.21,7.77-29.83,11.79-47.73
			h-13.87v-8.74h15.82c2.22-10.4,4.16-20.39,5.83-29.27l11.38,1.39c-0.14,0.97-0.97,1.53-2.77,1.67
			c-1.53,7.91-3.47,16.93-5.55,26.22h21.37L1013.42,391.11z M988.45,400.27c-2.91,12.9-6.1,25.94-9.02,37.32
			c5.83,3.19,11.79,7.08,17.62,10.96c5.55-12.9,9.57-29,11.52-48.28H988.45z M1094.3,424.13v9.02h-33.44v45.92
			c0,10.68-4.16,12.35-28.72,12.07c-0.55-2.5-2.08-6.52-3.47-9.3c6.66,0.14,12.76,0.28,16.65,0.28c4.72,0,6.1,0,6.1-2.91v-46.06
			h-33.99v-9.02h33.99v-23.59l4.58,0.28c7.21-6.11,14.84-14.84,20.53-22.61h-53.41v-8.74h60.49l1.8-0.56l7.35,4.58
			c-0.42,0.69-1.39,1.11-2.22,1.39c-7.22,10.27-19.15,23.45-29.69,32.05v17.2H1094.3z"/>
	</g>
	<g>
		<g>
			<path class="st1" d="M2725.63,958.25c-36.75,29.25-90.45,23.16-119.71-13.6c-29.25-36.75-23.16-90.45,13.6-119.71
				s90.46-23.16,119.71,13.6C2768.48,875.3,2762.38,929,2725.63,958.25z M2627.42,834.87c-31.28,24.9-36.48,70.61-11.57,101.89
				c24.9,31.28,70.61,36.48,101.89,11.57c31.28-24.9,36.47-70.61,11.57-101.89C2704.41,815.16,2658.7,809.96,2627.42,834.87z"/>
		</g>
		<g>
			<path class="st1" d="M2816.12,1071.94c-3.25,2.59-7.99,2.05-10.58-1.2l-88.21-110.82c-2.59-3.25-2.05-7.99,1.2-10.58
				c3.25-2.59,7.99-2.05,10.58,1.2l88.21,110.81C2819.91,1064.61,2819.38,1069.35,2816.12,1071.94z"/>
		</g>
	</g>
	<g>
		<g>
			<rect x="1421.2" y="1406.28" class="st2" width="26.45" height="47.24"/>
			<polygon class="st2" points="1405.9,1406.28 1461.14,1406.28 1434.42,1365.9 			"/>
		</g>
		<g>
			
				<rect x="1355.25" y="1365.9" transform="matrix(-1 -1.224647e-16 1.224647e-16 -1 2736.9414 2779.0381)" class="st9" width="26.45" height="47.24"/>
			<polygon class="st9" points="1396.99,1413.14 1341.75,1413.14 1368.47,1453.52 			"/>
		</g>
	</g>
	<g>
		<g>
			
				<rect x="1934.64" y="529.44" transform="matrix(-1.836970e-16 1 -1 -1.836970e-16 2494.0793 -1396.7292)" class="st17" width="21.54" height="38.47"/>
			<polygon class="st17" points="1964.64,525.45 1964.64,570.43 1997.52,548.67 			"/>
		</g>
		<g>
			
				<rect x="1967.52" y="475.74" transform="matrix(6.123234e-17 -1 1 6.123234e-17 1483.3191 2473.259)" class="st1" width="21.54" height="38.47"/>
			<polygon class="st1" points="1959.05,518.19 1959.05,473.21 1926.17,494.97 			"/>
		</g>
	</g>
</g>
</svg>
